{
.appVersion = "3414";
.formatVersion = 3;
axes = (
{
name = Weight;
tag = wght;
}
);
classes = (
{
code = "zero one two three four five six seven eight nine zero.zero zero.tf one.tf two.tf three.tf four.tf five.tf six.tf seven.tf eight.tf nine.tf zero.tf.zero ";
name = numbers;
}
);
customParameters = (
{
name = vendorID;
value = BLOM;
},
{
name = "Use Typo Metrics";
value = 1;
},
{
name = "Family Alignment Zones";
value = (
{
pos = 760;
size = 15;
},
{
pos = 700;
size = 15;
},
{
pos = 559;
size = 15;
},
{
pos = 0;
size = -15;
},
{
pos = -215;
size = -15;
}
);
},
{
name = "Variable Font Origin";
value = "73572E25-487C-487F-975F-150A505979A5";
},
{
name = fsType;
value = (
);
}
);
date = "2025-02-06 08:55:11 +0000";
familyName = "Vend Sans";
featurePrefixes = (
{
automatic = 1;
code = "languagesystem DFLT dflt;

languagesystem latn dflt;
languagesystem latn AZE;
languagesystem latn CRT;
languagesystem latn KAZ;
languagesystem latn TAT;
languagesystem latn TRK;
languagesystem latn ROM;
languagesystem latn MOL;
languagesystem latn MAH;
languagesystem latn CAT;
";
name = Languagesystems;
}
);
features = (
{
automatic = 1;
code = "feature locl;
feature subs;
feature sinf;
feature sups;
feature numr;
feature dnom;
feature frac;
feature ordn;
feature pnum;
feature tnum;
feature case;
feature zero;
feature ss01;
feature ss02;
";
tag = aalt;
},
{
automatic = 1;
code = "lookup ccmp_DFLT_1 {
	@CombiningTopAccents = [acutecomb brevecomb caroncomb circumflexcomb commaturnedabovecomb dieresiscomb dotaccentcomb gravecomb hungarumlautcomb macroncomb ringcomb tildecomb];
	lookupflag UseMarkFilteringSet @CombiningTopAccents;
	sub i' @CombiningTopAccents by idotless;
	sub j' @CombiningTopAccents by jdotless;
} ccmp_DFLT_1;

lookup ccmp_latn_1 {
	lookupflag 0;
	sub fi by f i;
	sub fl by f l;
	sub Ldot by L periodcentered.loclCAT.case;
	sub ldot by l periodcentered.loclCAT;
} ccmp_latn_1;

script latn;
lookup ccmp_latn_1;
";
tag = ccmp;
},
{
automatic = 1;
code = "script latn;

glyphs = (
{
glyphname = A;
kernLeft = KO_A;
kernRight = KO_A;
lastChange = "2025-05-28 12:37:31 +0000";
layers = (
{
anchors = (
{
name = bottom;
pos = (255,0);
},
{
name = ogonek;
pos = (554,10);
},
{
name = top;
pos = (404,700);
}
);
layerId = "73572E25-487C-487F-975F-150A505979A5";
shapes = (
{
closed = 1;
nodes = (
(37,0,l),
(390,616,l),
(386,616,l),
(472,0,l),
(547,0,l),
(440,700,l),
(373,700,l),
(-38,0,l)
);
},
{
closed = 1;
nodes = (
(464,226,l),
(477,286,l),
(139,286,l),
(126,226,l)
);
}
);
userData = {
com.hugojourdan.ColorFlow = {
"0" = 0;
"1" = 0;
"10" = 0;
"11" = 0;
"2" = 0;
"3" = 0;
"4" = 0;
"5" = 0;
"6" = 0;
"7" = 0;
"8" = 0;
"9" = 0;
};
};
width = 625;
},
{
anchors = (
{
name = bottom;
pos = (268,0);
},
{
name = ogonek;
pos = (542,10);
},
{
name = top;
pos = (417,700);
}
);
layerId = "66114D67-63CC-4821-8086-0090D571F0A1";
shapes = (
{
closed = 1;
nodes = (
(112,0,l),
(418,613,l),
(404,613,l),
(445,0,l),
(581,0,l),
(519,700,l),
(321,700,l),
(-45,0,l)
);
},
{
closed = 1;
nodes = (
(470,192,l),
(494,308,l),
(156,308,l),
(132,192,l)
);
}
);
userData = {
com.hugojourdan.ColorFlow = {
"0" = 0;
"1" = 0;
"10" = 0;
"11" = 0;
"2" = 0;
"3" = 0;
"4" = 0;
"5" = 0;
"6" = 0;
"7" = 0;
"8" = 0;
"9" = 0;
};
};
width = 656;
}
);
metricRight = "=|";
unicode = 65;
userData = {
KernOnName = A;
};
},
{
color = 0;
glyphname = AE;
kernRight = KO_E;
lastChange = "2025-05-28 12:37:31 +0000";
layers = (
{
anchors = (
{
name = bottom;
pos = (388,0);
},
{
name = top;
pos = (537,700);
}
);
layerId = "73572E25-487C-487F-975F-150A505979A5";
shapes = (
{
closed = 1;
nodes = (
(39,0,l),
(422,651,l),
(370,640,l),
(542,640,l),
(555,700,l),
(385,700,l),
(-36,0,l)
);
},
{
closed = 1;
nodes = (
(454,228,l),
(467,286,l),
(141,286,l),
(128,228,l)
);
},
{
alignment = -1;
pos = (347,0);
ref = E;
}
);
userData = {
com.hugojourdan.ColorFlow = {
"0" = 0;
"1" = 0;
"10" = 0;
"11" = 0;
"2" = 0;
"3" = 0;
"4" = 0;
"5" = 0;
"6" = 0;
"7" = 0;
"8" = 0;
"9" = 0;
};
};
width = 892;
},
{
anchors = (
{
name = bottom;
pos = (386,0);
},
{
name = top;
pos = (535,700);
}
);
layerId = "66114D67-63CC-4821-8086-0090D571F0A1";
shapes = (
{
closed = 1;
nodes = (
(98,0,l),
(448,670,l),
(359,581,l),
(557,581,l),
(582,700,l),
(331,700,l),
(-50,0,l)
);
},
{
closed = 1;
nodes = (
(474,190,l),
(499,308,l),
(153,308,l),
(128,190,l)
);
},
{
alignment = -1;
pos = (346,0);
ref = E;
}
);
userData = {
com.hugojourdan.ColorFlow = {
"0" = 0;
"1" = 0;
"10" = 0;
"11" = 0;
"2" = 0;
"3" = 0;
"4" = 0;
"5" = 0;
"6" = 0;
"7" = 0;
"8" = 0;
"9" = 0;
};
};
width = 892;
}
);
metricRight = E;
unicode = 198;
},
{
glyphname = B;
kernLeft = KO_H;
kernRight = KO_B;
lastChange = "2025-05-28 12:37:31 +0000";
layers = (
{
anchors = (
{
name = bottom;
pos = (245,0);
},
{
name = center;
pos = (132,175);
},
{
name = top;
pos = (394,700);
}
);
layerId = "73572E25-487C-487F-975F-150A505979A5";
shapes = (
{
closed = 1;
nodes = (
(289,0,ls),
(431,0,o),
(518,82,o),
(542,193,cs),
(569,322,o),
(517,394,o),
(366,394,cs),
(332,394,l),
(394,367,l),
(480,370,o),
(565,445,o),
(583,534,cs),
(606,638,o),
(555,700,o),
(427,700,cs),
(181,700,l),
(32,0,l)
);
},
{
closed = 1;
nodes = (
(176,347,l),
(347,347,ls),
(445,347,o),
(498,310,o),
(476,206,cs),
(454,105,o),
(384,60,o),
(286,60,cs),
(115,60,l)
);
},
{
closed = 1;
nodes = (
(238,640,l),
(405,640,ls),
(483,640,o),
(531,618,o),
(513,530,cs),
(493,440,o),
(433,407,o),
(355,407,cs),
(188,407,l)
);
}
);
userData = {
com.hugojourdan.ColorFlow = {
"0" = 0;
"1" = 0;
"10" = 0;
"11" = 0;
"2" = 0;
"3" = 0;
"4" = 0;
"5" = 0;
"6" = 0;
"7" = 0;
"8" = 0;
"9" = 0;
};
};
width = 604;
},
{
anchors = (
{
name = bottom;
pos = (240,0);
},
{
name = center;
pos = (131,175);
},
{
name = top;
pos = (389,700);
}
);
color = 4;
layerId = "66114D67-63CC-4821-8086-0090D571F0A1";
shapes = (
{
closed = 1;
nodes = (
(293,0,ls),
(438,0,o),
(539,72,o),
(564,191,cs),
(591,317,o),
(534,394,o),
(386,394,cs),
(352,394,l),
(417,368,l),
(510,369,o),
(588,427,o),
(609,522,cs),
(629,620,o),
(559,700,o),
(451,700,cs),
(153,700,l),
(5,0,l)
);
},
{
closed = 1;
nodes = (
(219,326,l),
(336,326,ls),
(403,326,o),
(438,297,o),
(422,219,cs),
(405,144,o),
(357,109,o),
(290,109,cs),
(173,109,l)
);
},
{
closed = 1;
nodes = (
(275,591,l),
(393,591,ls),
(435,591,o),
(471,574,o),
(458,512,cs),
(446,452,o),
(402,429,o),
(358,429,cs),
(241,429,l)
);
}
);
userData = {
com.hugojourdan.ColorFlow = {
"0" = 0;
"1" = 0;
"10" = 0;
"11" = 0;
"2" = 0;
"3" = 0;
"4" = 0;
"5" = 0;
"6" = 0;
"7" = 0;
"8" = 0;
"9" = 0;
};
};
width = 615;
}
);
metricLeft = H;
metricRight = "=H*.5";
unicode = 66;
},
{
glyphname = C;
kernLeft = KO_O;
kernRight = KO_C;
lastChange = "2025-05-28 12:37:31 +0000";
layers = (
{
anchors = (
{
name = bottom;
pos = (249,0);
},
{
name = top;
pos = (398,700);
}
);
layerId = "73572E25-487C-487F-975F-150A505979A5";
shapes = (
{
closed = 1;
nodes = (
(382,-12,o),
(482,38,o),
(557,226,c),
(489,234,l),
(439,97,o),
(373,48,o),
(278,48,cs),
(148,48,o),
(109,157,o),
(151,351,cs),
(192,545,o),
(277,654,o),
(407,654,cs),
(506,654,o),
(546,590,o),
(538,468,c),
(611,478,l),
(617,661,o),
(539,714,o),
(419,714,cs),
(246,714,o),
(128,573,o),
(81,351,cs),
(33,129,o),
(91,-12,o),
(264,-12,cs)
);
}
);
userData = {
com.hugojourdan.ColorFlow = {
"0" = 0;
"1" = 0;
"10" = 0;
"11" = 0;
"2" = 0;
"3" = 0;
"4" = 0;
"5" = 0;
"6" = 0;
"7" = 0;
"8" = 0;
"9" = 0;
};
};
width = 612;
},
{
anchors = (
{
name = bottom;
pos = (250,0);
},
{
name = top;
pos = (399,700);
}
);
color = 4;
layerId = "66114D67-63CC-4821-8086-0090D571F0A1";
shapes = (
{
closed = 1;
nodes = (
(394,-12,o),
(516,33,o),
(592,232,c),
(456,264,l),
(417,144,o),
(363,104,o),
(289,104,cs),
(186,104,o),
(156,180,o),
(192,351,cs),
(228,521,o),
(290,599,o),
(394,599,cs),
(471,599,o),
(511,551,o),
(496,438,c),
(639,463,l),
(653,663,o),
(547,714,o),
(418,714,cs),
(224,714,o),
(94,570,o),
(49,361,cs),
(2,141,o),
(75,-12,o),
(265,-12,cs)
);
}
);
userData = {
com.hugojourdan.ColorFlow = {
"0" = 0;
"1" = 0;
"10" = 0;
"11" = 0;
"2" = 0;
"3" = 0;
"4" = 0;
"5" = 0;
"6" = 0;
"7" = 0;
"8" = 0;
"9" = 0;
};
};
width = 624;
}
);
metricLeft = O;
metricRight = "=O*.7";
unicode = 67;
},
{
glyphname = D;
kernLeft = KO_H;
kernRight = KO_D;
lastChange = "2025-05-28 12:37:31 +0000";
layers = (
{
anchors = (
{
name = bottom;
pos = (242,0);
},
{
name = center;
pos = (176,350);
},
{
name = top;
pos = (391,700);
}
);
layerId = "73572E25-487C-487F-975F-150A505979A5";
shapes = (
{
closed = 1;
nodes = (
(217,0,ls),
(398,0,o),
(542,116,o),
(592,353,cs),
(642,590,o),
(547,700,o),
(366,700,cs),
(181,700,l),
(32,0,l)
);
},
{
closed = 1;
nodes = (
(238,640,l),
(355,640,ls),
(494,640,o),
(565,555,o),
(522,352,cs),
(479,149,o),
(371,60,o),
(232,60,cs),
(115,60,l)
);
}
);
userData = {
com.hugojourdan.ColorFlow = {
"0" = 0;
"1" = 0;
"10" = 0;
"11" = 0;
"2" = 0;
"3" = 0;
"4" = 0;
"5" = 0;
"6" = 0;
"7" = 0;
"8" = 0;
"9" = 0;
};
};
width = 639;
},
{
anchors = (
{
name = bottom;
pos = (245,0);
},
{
name = center;
pos = (176,350);
},
{
name = top;
pos = (394,700);
}
);
layerId = "66114D67-63CC-4821-8086-0090D571F0A1";
shapes = (
{
closed = 1;
nodes = (
(234,0,ls),
(422,0,o),
(569,93,o),
(618,324,cs),
(667,554,o),
(571,700,o),
(383,700,cs),
(153,700,l),
(5,0,l)
);
},
{
closed = 1;
nodes = (
(274,585,l),
(346,585,ls),
(460,585,o),
(514,516,o),
(479,352,cs),
(445,189,o),
(361,116,o),
(246,116,cs),
(175,116,l)
);
}
);
userData = {
com.hugojourdan.ColorFlow = {
"0" = 0;
"1" = 0;
"10" = 0;
"11" = 0;
"2" = 0;
"3" = 0;
"4" = 0;
"5" = 0;
"6" = 0;
"7" = 0;
"8" = 0;
"9" = 0;
};
};
width = 641;
}
);
metricLeft = H;
metricRight = O;
unicode = 68;
userData = {
KernOnName = D;
};
},
{
color = 0;
glyphname = Eth;
kernLeft = KO_Eth;
kernRight = KO_D;
lastChange = "2025-05-28 12:37:31 +0000";
layers = (
{
layerId = "73572E25-487C-487F-975F-150A505979A5";
shapes = (
{
ref = D;
},
{
closed = 1;
nodes = (
(298,320,l),
(311,380,l),
(25,380,l),
(12,320,l)
);
}
);
userData = {
com.hugojourdan.ColorFlow = {
"0" = 0;
"1" = 0;
"10" = 0;
"11" = 0;
"2" = 0;
"3" = 0;
"4" = 0;
"5" = 0;
"6" = 0;
"7" = 0;
"8" = 0;
"9" = 0;
};
};
width = 639;
},
{
layerId = "66114D67-63CC-4821-8086-0090D571F0A1";
shapes = (
{
ref = D;
},
{
closed = 1;
nodes = (
(320,288,l),
(344,403,l),
(15,403,l),
(-10,288,l)
);
}
);
userData = {
com.hugojourdan.ColorFlow = {
"0" = 0;
"1" = 0;
"10" = 0;
"11" = 0;
"2" = 0;
"3" = 0;
"4" = 0;
"5" = 0;
"6" = 0;
"7" = 0;
"8" = 0;
"9" = 0;
};
};
width = 641;
}
);
metricRight = D;
unicode = 208;
},
{
glyphname = E;
kernLeft = KO_H;
kernRight = KO_E;
lastChange = "2025-05-28 12:37:31 +0000";
layers = (
{
anchors = (
{
name = bottom;
pos = (215,0);
},
{
name = ogonek;
pos = (433,10);
},
{
name = top;
pos = (364,700);
},
{
name = topleft;
pos = (113,700);
}
);
layerId = "73572E25-487C-487F-975F-150A505979A5";
shapes = (
{
closed = 1;
nodes = (
(446,0,l),
(459,60,l),
(115,60,l),
(238,640,l),
(554,640,l),
(567,700,l),
(181,700,l),
(32,0,l)
);
},
{
closed = 1;
nodes = (
(464,356,l),
(476,416,l),
(124,416,l),
(112,356,l)
);
}
);
userData = {
com.hugojourdan.ColorFlow = {
"0" = 0;
"1" = 0;
"10" = 0;
"11" = 0;
"2" = 0;
"3" = 0;
"4" = 0;
"5" = 0;
"6" = 0;
"7" = 0;
"8" = 0;
"9" = 0;
};
};
width = 545;
},
{
anchors = (
{
name = bottom;
pos = (207,0);
},
{
name = ogonek;
pos = (422,10);
},
{
name = top;
pos = (356,700);
},
{
name = topleft;
pos = (111,700);
}
);
layerId = "66114D67-63CC-4821-8086-0090D571F0A1";
shapes = (
{
closed = 1;
nodes = (
(458,0,l),
(483,116,l),
(175,116,l),
(274,585,l),
(555,585,l),
(579,700,l),
(153,700,l),
(5,0,l)
);
},
{
closed = 1;
nodes = (
(469,320,l),
(493,436,l),
(101,436,l),
(77,320,l)
);
}
);
userData = {
com.hugojourdan.ColorFlow = {
"0" = 0;
"1" = 0;
"10" = 0;
"11" = 0;
"2" = 0;
"3" = 0;
"4" = 0;
"5" = 0;
"6" = 0;
"7" = 0;
"8" = 0;
"9" = 0;
};
};
width = 546;
}
);
metricLeft = H;
unicode = 69;
},
{
glyphname = F;
kernLeft = KO_H;
kernRight = KO_F;
lastChange = "2025-05-28 12:37:31 +0000";
layers = (
{
anchors = (
{
name = bottom;
pos = (194,0);
},
{
name = top;
pos = (343,700);
}
);
layerId = "73572E25-487C-487F-975F-150A505979A5";
shapes = (
{
closed = 1;
nodes = (
(102,0,l),
(238,640,l),
(552,640,l),
(565,700,l),
(181,700,l),
(32,0,l)
);
},
{
closed = 1;
nodes = (
(464,366,l),
(477,426,l),
(127,426,l),
(114,366,l)
);
}
);
userData = {
com.hugojourdan.ColorFlow = {
"0" = 0;
"1" = 0;
"10" = 0;
"11" = 0;
"2" = 0;
"3" = 0;
"4" = 0;
"5" = 0;
"6" = 0;
"7" = 0;
"8" = 0;
"9" = 0;
};
};
width = 504;
},
{
anchors = (
{
name = bottom;
pos = (179,0);
},
{
name = top;
pos = (328,700);
}
);
layerId = "66114D67-63CC-4821-8086-0090D571F0A1";
shapes = (
{
closed = 1;
nodes = (
(150,0,l),
(274,585,l),
(574,585,l),
(598,700,l),
(153,700,l),
(5,0,l)
);
},
{
closed = 1;
nodes = (
(485,309,l),
(510,425,l),
(99,425,l),
(74,309,l)
);
}
);
userData = {
com.hugojourdan.ColorFlow = {
"0" = 0;
"1" = 0;
"10" = 0;
"11" = 0;
"2" = 0;
"3" = 0;
"4" = 0;
"5" = 0;
"6" = 0;
"7" = 0;
"8" = 0;
"9" = 0;
};
};
width = 528;
}
);
metricLeft = H;
unicode = 70;
userData = {
KernOnName = F;
};
},
{
glyphname = G;
kernLeft = KO_O;
kernRight = KO_G;
lastChange = "2025-05-28 12:37:31 +0000";
layers = (
{
anchors = (
{
name = bottom;
pos = (261,0);
},
{
name = top;
pos = (410,700);
}
);
background = {
anchors = (
{
name = bottom;
pos = (305,0);
},
{
name = top;
pos = (305,700);
}
);
};
layerId = "73572E25-487C-487F-975F-150A505979A5";
shapes = (
{
closed = 1;
nodes = (
(468,-12,o),
(544,138,o),
(586,334,cs),
(589,351,o),
(593,367,o),
(596,384,c),
(316,384,l),
(303,324,l),
(514,324,l),
(478,160,o),
(415,48,o),
(278,48,cs),
(144,48,o),
(109,157,o),
(151,351,cs),
(192,545,o),
(273,654,o),
(407,654,cs),
(505,654,o),
(553,597,o),
(538,488,c),
(610,498,l),
(623,665,o),
(539,714,o),
(420,714,cs),
(243,714,o),
(128,573,o),
(81,351,cs),
(33,129,o),
(88,-12,o),
(265,-12,cs)
);
}
);
userData = {
com.hugojourdan.ColorFlow = {
"0" = 0;
"1" = 0;
"10" = 0;
"11" = 0;
"2" = 0;
"3" = 0;
"4" = 0;
"5" = 0;
"6" = 0;
"7" = 0;
"8" = 0;
"9" = 0;
};
};
width = 637;
},
{
anchors = (
{
name = bottom;
pos = (264,0);
},
{
name = top;
pos = (413,700);
}
);
color = 4;
layerId = "66114D67-63CC-4821-8086-0090D571F0A1";
shapes = (
{
closed = 1;
nodes = (
(486,-12,o),
(580,113,o),
(629,345,cs),
(634,372,o),
(640,396,o),
(645,419,c),
(326,419,l),
(302,303,l),
(473,303,l),
(443,166,o),
(389,104,o),
(293,104,cs),
(184,104,o),
(162,211,o),
(196,370,cs),
(228,520,o),
(288,599,o),
(404,599,cs),
(462,599,o),
(506,566,o),
(507,489,c),
(651,522,l),
(644,654,o),
(539,714,o),
(428,714,cs),
(229,714,o),
(98,590,o),
(51,370,cs),
(5,152,o),
(61,-12,o),
(288,-12,cs)
);
}
);
userData = {
com.hugojourdan.ColorFlow = {
"0" = 0;
"1" = 0;
"10" = 0;
"11" = 0;
"2" = 0;
"3" = 0;
"4" = 0;
"5" = 0;
"6" = 0;
"7" = 0;
"8" = 0;
"9" = 0;
};
};
width = 647;
}
);
metricLeft = O;
metricRight = O;
unicode = 71;
},
{
glyphname = H;
kernLeft = KO_H;
kernRight = KO_H;
lastChange = "2025-05-28 12:37:31 +0000";
layers = (
{
anchors = (
{
name = bottom;
pos = (281,0);
},
{
name = center;
pos = (393,525);
},
{
name = top;
pos = (430,700);
},
{
name = topleft;
pos = (113,700);
}
);
layerId = "73572E25-487C-487F-975F-150A505979A5";
shapes = (
{
closed = 1;
nodes = (
(530,0,l),
(679,700,l),
(609,700,l),
(460,0,l)
);
},
{
closed = 1;
nodes = (
(102,0,l),
(251,700,l),
(181,700,l),
(32,0,l)
);
},
{
closed = 1;
nodes = (
(579,338,l),
(592,398,l),
(138,398,l),
(125,338,l)
);
}
);
userData = {
com.hugojourdan.ColorFlow = {
"0" = 0;
"1" = 0;
"10" = 0;
"11" = 0;
"2" = 0;
"3" = 0;
"4" = 0;
"5" = 0;
"6" = 0;
"7" = 0;
"8" = 0;
"9" = 0;
};
};
width = 678;
},
{
anchors = (
{
name = bottom;
pos = (282,0);
},
{
name = center;
pos = (394,525);
},
{
name = top;
pos = (431,700);
},
{
name = topleft;
pos = (117,700);
}
);
layerId = "66114D67-63CC-4821-8086-0090D571F0A1";
shapes = (
{
closed = 1;
nodes = (
(550,0,l),
(699,700,l),
(554,700,l),
(405,0,l)
);
},
{
closed = 1;
nodes = (
(150,0,l),
(299,700,l),
(153,700,l),
(5,0,l)
);
},
{
closed = 1;
nodes = (
(594,312,l),
(618,428,l),
(117,428,l),
(92,312,l)
);
}
);
userData = {
com.hugojourdan.ColorFlow = {
"0" = 0;
"1" = 0;
"10" = 0;
"11" = 0;
"2" = 0;
"3" = 0;
"4" = 0;
"5" = 0;
"6" = 0;
"7" = 0;
"8" = 0;
"9" = 0;
};
};
width = 674;
}
);
metricRight = "=|";
unicode = 72;
userData = {
KernOnName = H;
};
},
{
color = 0;
glyphname = Hbar;
lastChange = "2025-05-28 12:37:31 +0000";
layers = (
{
layerId = "73572E25-487C-487F-975F-150A505979A5";
shapes = (
{
ref = H;
},
{
closed = 1;
nodes = (
(68,585,l),
(56,525,l),
(730,525,l),
(742,585,l)
);
}
);
userData = {
com.hugojourdan.ColorFlow = {
"0" = 0;
"1" = 0;
"10" = 0;
"11" = 0;
"2" = 0;
"3" = 0;
"4" = 0;
"5" = 0;
"6" = 0;
"7" = 0;
"8" = 0;
"9" = 0;
};
};
width = 678;
},
{
layerId = "66114D67-63CC-4821-8086-0090D571F0A1";
shapes = (
{
ref = H;
},
{
closed = 1;
nodes = (
(73,615,l),
(50,507,l),
(720,507,l),
(743,615,l)
);
}
);
userData = {
com.hugojourdan.ColorFlow = {
"0" = 0;
"1" = 0;
"10" = 0;
"11" = 0;
"2" = 0;
"3" = 0;
"4" = 0;
"5" = 0;
"6" = 0;
"7" = 0;
"8" = 0;
"9" = 0;
};
};
width = 672;
}
);
unicode = 294;
},
{
glyphname = I;
kernLeft = KO_H;
kernRight = KO_H;
lastChange = "2025-05-28 12:37:31 +0000";
layers = (
{
anchors = (
{
name = bottom;
pos = (67,0);
},
{
name = ogonek;
pos = (115,0);
},
{
name = top;
pos = (216,700);
},
{
name = topleft;
pos = (113,700);
}
);
layerId = "73572E25-487C-487F-975F-150A505979A5";
shapes = (
{
closed = 1;
nodes = (
(102,0,l),
(251,700,l),
(181,700,l),
(32,0,l)
);
}
);
userData = {
com.hugojourdan.ColorFlow = {
"0" = 0;
"1" = 0;
"10" = 0;
"11" = 0;
"2" = 0;
"3" = 0;
"4" = 0;
"5" = 0;
"6" = 0;
"7" = 0;
"8" = 0;
"9" = 0;
};
};
width = 250;
},
{
anchors = (
{
name = bottom;
pos = (78,0);
},
{
name = ogonek;
pos = (162,0);
},
{
name = top;
pos = (227,700);
},
{
name = topleft;
pos = (107,700);
}
);
layerId = "66114D67-63CC-4821-8086-0090D571F0A1";
shapes = (
{
closed = 1;
nodes = (
(150,0,l),
(299,700,l),
(153,700,l),
(5,0,l)
);
}
);
userData = {
com.hugojourdan.ColorFlow = {
"0" = 0;
"1" = 0;
"10" = 0;
"11" = 0;
"2" = 0;
"3" = 0;
"4" = 0;
"5" = 0;
"6" = 0;
"7" = 0;
"8" = 0;
"9" = 0;
};
};
width = 274;
}
);
metricLeft = H;
metricRight = "=|";
unicode = 73;
userData = {
KernOnName = I;
};
},
{
glyphname = J;
kernLeft = KO_J;
kernRight = KO_J;
lastChange = "2025-05-28 12:37:31 +0000";
layers = (
{
anchors = (
{
name = bottom;
pos = (143,0);
},
{
name = top;
pos = (292,700);
}
);
layerId = "73572E25-487C-487F-975F-150A505979A5";
shapes = (
{
closed = 1;
nodes = (
(82,0,ls),
(195,0,o),
(264,58,o),
(286,161,cs),
(401,700,l),
(331,700,l),
(217,164,ls),
(203,98,o),
(158,60,o),
(94,60,cs),
(-14,60,l),
(-27,0,l)
);
}
);
userData = {
com.hugojourdan.ColorFlow = {
"0" = 0;
"1" = 0;
"10" = 0;
"11" = 0;
"2" = 0;
"3" = 0;
"4" = 0;
"5" = 0;
"6" = 0;
"7" = 0;
"8" = 0;
"9" = 0;
};
};
width = 400;
},
{
anchors = (
{
name = bottom;
pos = (136,0);
},
{
name = top;
pos = (285,700);
}
);
layerId = "66114D67-63CC-4821-8086-0090D571F0A1";
shapes = (
{
closed = 1;
nodes = (
(85,0,ls),
(213,0,o),
(292,66,o),
(317,183,cs),
(427,700,l),
(281,700,l),
(173,188,ls),
(163,143,o),
(129,116,o),
(80,116,cs),
(-20,116,l),
(-44,0,l)
);
}
);
userData = {
com.hugojourdan.ColorFlow = {
"0" = 0;
"1" = 0;
"10" = 0;
"11" = 0;
"2" = 0;
"3" = 0;
"4" = 0;
"5" = 0;
"6" = 0;
"7" = 0;
"8" = 0;
"9" = 0;
};
};
width = 402;
}
);
metricRight = H;
unicode = 74;
userData = {
KernOnName = J;
};
},
{
glyphname = K;
kernLeft = KO_H;
kernRight = KO_K;
lastChange = "2025-05-28 12:37:31 +0000";
layers = (
{
anchors = (
{
name = bottom;
pos = (221,0);
},
{
name = top;
pos = (370,700);
}
);
layerId = "73572E25-487C-487F-975F-150A505979A5";
shapes = (
{
closed = 1;
nodes = (
(495,0,l),
(243,390,l),
(237,361,l),
(638,700,l),
(546,700,l),
(161,375,l),
(401,0,l)
);
},
{
closed = 1;
nodes = (
(102,0,l),
(251,700,l),
(181,700,l),
(32,0,l)
);
}
);
userData = {
com.hugojourdan.ColorFlow = {
"0" = 0;
"1" = 0;
"10" = 0;
"11" = 0;
"2" = 0;
"3" = 0;
"4" = 0;
"5" = 0;
"6" = 0;
"7" = 0;
"8" = 0;
"9" = 0;
};
};
width = 558;
},
{
anchors = (
{
name = bottom;
pos = (245,0);
},
{
name = top;
pos = (394,700);
}
);
layerId = "66114D67-63CC-4821-8086-0090D571F0A1";
shapes = (
{
closed = 1;
nodes = (
(534,0,l),
(333,419,l),
(331,345,l),
(692,700,l),
(513,700,l),
(199,376,l),
(368,0,l)
);
},
{
closed = 1;
nodes = (
(149,0,l),
(298,700,l),
(153,700,l),
(5,0,l)
);
}
);
userData = {
com.hugojourdan.ColorFlow = {
"0" = 0;
"1" = 0;
"10" = 0;
"11" = 0;
"2" = 0;
"3" = 0;
"4" = 0;
"5" = 0;
"6" = 0;
"7" = 0;
"8" = 0;
"9" = 0;
};
};
width = 610;
}
);
metricLeft = H;
unicode = 75;
userData = {
KernOnName = K;
};
},
{
glyphname = L;
kernLeft = KO_H;
kernRight = KO_L;
lastChange = "2025-05-28 12:37:31 +0000";
layers = (
{
anchors = (
{
name = bottom;
pos = (188,0);
},
{
name = center;
pos = (262,350);
},
{
name = top;
pos = (216,700);
},
{
name = topright;
pos = (429,700);
}
);
layerId = "73572E25-487C-487F-975F-150A505979A5";
shapes = (
{
closed = 1;
nodes = (
(415,0,l),
(428,60,l),
(115,60,l),
(251,700,l),
(181,700,l),
(32,0,l)
);
}
);
userData = {
com.hugojourdan.ColorFlow = {
"0" = 0;
"1" = 0;
"10" = 0;
"11" = 0;
"2" = 0;
"3" = 0;
"4" = 0;
"5" = 0;
"6" = 0;
"7" = 0;
"8" = 0;
"9" = 0;
};
};
width = 492;
},
{
anchors = (
{
name = bottom;
pos = (200,0);
},
{
name = center;
pos = (275,350);
},
{
name = top;
pos = (223,700);
},
{
name = topright;
pos = (427,700);
}
);
layerId = "66114D67-63CC-4821-8086-0090D571F0A1";
shapes = (
{
closed = 1;
nodes = (
(448,0,l),
(472,116,l),
(174,116,l),
(298,700,l),
(153,700,l),
(5,0,l)
);
}
);
userData = {
com.hugojourdan.ColorFlow = {
"0" = 0;
"1" = 0;
"10" = 0;
"11" = 0;
"2" = 0;
"3" = 0;
"4" = 0;
"5" = 0;
"6" = 0;
"7" = 0;
"8" = 0;
"9" = 0;
};
};
width = 519;
}
);
metricLeft = H;
unicode = 76;
userData = {
KernOnName = L;
};
},
{
color = 0;
glyphname = Lslash;
kernLeft = KO_Lslash;
kernRight = KO_L;
lastChange = "2025-05-28 12:37:31 +0000";
layers = (
{
layerId = "73572E25-487C-487F-975F-150A505979A5";
shapes = (
{
closed = 1;
nodes = (
(340,434,l),
(310,490,l),
(-38,263,l),
(-8,207,l)
);
},
{
ref = L;
}
);
userData = {
com.hugojourdan.ColorFlow = {
"0" = 0;
"1" = 0;
"10" = 0;
"11" = 0;
"2" = 0;
"3" = 0;
"4" = 0;
"5" = 0;
"6" = 0;
"7" = 0;
"8" = 0;
"9" = 0;
};
};
width = 492;
},
{
layerId = "66114D67-63CC-4821-8086-0090D571F0A1";
shapes = (
{
closed = 1;
nodes = (
(392,453,l),
(341,547,l),
(-66,282,l),
(-15,188,l)
);
},
{
ref = L;
}
);
userData = {
com.hugojourdan.ColorFlow = {
"0" = 0;
"1" = 0;
"10" = 0;
"11" = 0;
"2" = 0;
"3" = 0;
"4" = 0;
"5" = 0;
"6" = 0;
"7" = 0;
"8" = 0;
"9" = 0;
};
};
width = 519;
}
);
metricRight = L;
unicode = 321;
},
{
glyphname = M;
kernLeft = KO_H;
kernRight = KO_H;
lastChange = "2025-05-28 12:37:31 +0000";
layers = (
{
anchors = (
{
name = bottom;
pos = (338,0);
},
{
name = top;
pos = (487,700);
}
);
layerId = "73572E25-487C-487F-975F-150A505979A5";
shapes = (
{
closed = 1;
nodes = (
(102,0,l),
(239,646,l),
(228,649,l),
(326,113,l),
(396,113,l),
(721,646,l),
(712,648,l),
(574,0,l),
(644,0,l),
(793,700,l),
(678,700,l),
(359,173,l),
(378,173,l),
(285,700,l),
(181,700,l),
(32,0,l)
);
}
);
userData = {
com.hugojourdan.ColorFlow = {
"0" = 0;
"1" = 0;
"10" = 0;
"11" = 0;
"2" = 0;
"3" = 0;
"4" = 0;
"5" = 0;
"6" = 0;
"7" = 0;
"8" = 0;
"9" = 0;
};
};
width = 792;
},
{
anchors = (
{
name = bottom;
pos = (345,0);
},
{
name = top;
pos = (494,700);
}
);
layerId = "66114D67-63CC-4821-8086-0090D571F0A1";
shapes = (
{
closed = 1;
nodes = (
(141,0,l),
(273,622,l),
(237,632,l),
(305,113,l),
(432,113,l),
(721,632,l),
(682,624,l),
(549,0,l),
(686,0,l),
(834,700,l),
(615,700,l),
(385,276,l),
(406,276,l),
(355,700,l),
(153,700,l),
(5,0,l)
);
}
);
userData = {
com.hugojourdan.ColorFlow = {
"0" = 0;
"1" = 0;
"10" = 0;
"11" = 0;
"2" = 0;
"3" = 0;
"4" = 0;
"5" = 0;
"6" = 0;
"7" = 0;
"8" = 0;
"9" = 0;
};
};
width = 810;
}
);
metricLeft = H;
metricRight = "=|";
unicode = 77;
},
{
glyphname = N;
kernLeft = KO_H;
kernRight = KO_H;
lastChange = "2025-05-28 12:37:31 +0000";
layers = (
{
anchors = (
{
name = bottom;
pos = (279,0);
},
{
name = top;
pos = (428,700);
}
);
layerId = "73572E25-487C-487F-975F-150A505979A5";
shapes = (
{
closed = 1;
nodes = (
(102,0,l),
(232,613,l),
(226,621,l),
(437,0,l),
(526,0,l),
(675,700,l),
(605,700,l),
(472,74,l),
(482,77,l),
(270,700,l),
(181,700,l),
(32,0,l)
);
}
);
userData = {
com.hugojourdan.ColorFlow = {
"0" = 0;
"1" = 0;
"10" = 0;
"11" = 0;
"2" = 0;
"3" = 0;
"4" = 0;
"5" = 0;
"6" = 0;
"7" = 0;
"8" = 0;
"9" = 0;
};
};
width = 674;
},
{
anchors = (
{
name = bottom;
pos = (289,0);
},
{
name = top;
pos = (438,700);
}
);
layerId = "66114D67-63CC-4821-8086-0090D571F0A1";
shapes = (
{
closed = 1;
nodes = (
(143,0,l),
(271,601,l),
(232,621,l),
(384,0,l),
(575,0,l),
(724,700,l),
(585,700,l),
(456,92,l),
(496,76,l),
(343,700,l),
(153,700,l),
(5,0,l)
);
}
);
userData = {
com.hugojourdan.ColorFlow = {
"0" = 0;
"1" = 0;
"10" = 0;
"11" = 0;
"2" = 0;
"3" = 0;
"4" = 0;
"5" = 0;
"6" = 0;
"7" = 0;
"8" = 0;
"9" = 0;
};
};
width = 699;
}
);
metricLeft = H;
metricRight = H;
unicode = 78;
userData = {
KernOnName = N;
};
},
{
color = 0;
glyphname = Eng;
kernLeft = KO_H;
kernRight = KO_H;
lastChange = "2025-05-28 12:37:31 +0000";
layers = (
{
anchors = (
{
name = bottom;
pos = (233,-215);
},
{
name = top;
pos = (428,700);
}
);
layerId = "73572E25-487C-487F-975F-150A505979A5";
shapes = (
{
closed = 1;
nodes = (
(310,-215,ls),
(423,-215,o),
(493,-157,o),
(514,-54,cs),
(629,485,l),
(559,485,l),
(447,-41,ls),
(433,-107,o),
(388,-145,o),
(324,-145,cs),
(216,-145,l),
(201,-215,l)
);
},
{
ref = N;
}
);
userData = {
com.hugojourdan.ColorFlow = {
"0" = 0;
"1" = 0;
"10" = 0;
"11" = 0;
"2" = 0;
"3" = 0;
"4" = 0;
"5" = 0;
"6" = 0;
"7" = 0;
"8" = 0;
"9" = 0;
};
};
width = 674;
},
{
anchors = (
{
name = bottom;
pos = (245,-215);
},
{
name = top;
pos = (439,700);
}
);
layerId = "66114D67-63CC-4821-8086-0090D571F0A1";
shapes = (
{
closed = 1;
nodes = (
(343,-215,ls),
(472,-215,o),
(544,-149,o),
(568,-32,cs),
(678,485,l),
(540,485,l),
(432,-22,ls),
(422,-67,o),
(389,-94,o),
(339,-94,cs),
(240,-94,l),
(214,-215,l)
);
},
{
ref = N;
}
);
userData = {
com.hugojourdan.ColorFlow = {
"0" = 0;
"1" = 0;
"10" = 0;
"11" = 0;
"2" = 0;
"3" = 0;
"4" = 0;
"5" = 0;
"6" = 0;
"7" = 0;
"8" = 0;
"9" = 0;
};
};
width = 699;
}
);
metricLeft = N;
metricRight = N;
unicode = 330;
},
{
glyphname = O;
kernLeft = KO_O;
kernRight = KO_O;
lastChange = "2025-05-28 12:37:31 +0000";
layers = (
{
anchors = (
{
name = bottom;
pos = (264,0);
},
{
name = center;
pos = (338,350);
},
{
name = ogonek;
pos = (522,10);
},
{
name = top;
pos = (413,700);
},
{
name = topleft;
pos = (113,700);
},
{
name = topright;
pos = (713,700);
}
);
layerId = "73572E25-487C-487F-975F-150A505979A5";
shapes = (
{
closed = 1;
nodes = (
(427,-12,o),
(546,114,o),
(597,351,cs),
(647,588,o),
(582,714,o),
(421,714,cs),
(260,714,o),
(131,588,o),
(81,351,cs),
(30,114,o),
(105,-12,o),
(266,-12,cs)
);
},
{
closed = 1;
nodes = (
(152,48,o),
(108,153,o),
(151,351,cs),
(193,549,o),
(281,654,o),
(408,654,cs),
(529,654,o),
(569,550,o),
(527,351,cs),
(484,153,o),
(399,48,o),
(279,48,cs)
);
}
);
userData = {
com.hugojourdan.ColorFlow = {
"0" = 0;
"1" = 0;
"10" = 0;
"11" = 0;
"2" = 0;
"3" = 0;
"4" = 0;
"5" = 0;
"6" = 0;
"7" = 0;
"8" = 0;
"9" = 0;
};
};
width = 644;
},
{
anchors = (
{
name = bottom;
pos = (270,0);
},
{
name = center;
pos = (345,350);
},
{
name = ogonek;
pos = (536,10);
},
{
name = top;
pos = (419,700);
},
{
name = topleft;
pos = (109,700);
},
{
name = topright;
pos = (729,700);
}
);
layerId = "66114D67-63CC-4821-8086-0090D571F0A1";
shapes = (
{
closed = 1;
nodes = (
(485,-12,o),
(593,121,o),
(638,332,cs),
(687,560,o),
(629,714,o),
(420,714,cs),
(226,714,o),
(96,580,o),
(51,370,cs),
(2,141,o),
(72,-12,o),
(277,-12,cs)
);
},
{
closed = 1;
nodes = (
(184,104,o),
(161,192,o),
(195,351,cs),
(231,519,o),
(288,599,o),
(400,599,cs),
(511,599,o),
(528,511,o),
(495,351,cs),
(459,183,o),
(407,104,o),
(300,104,cs)
);
}
);
userData = {
com.hugojourdan.ColorFlow = {
"0" = 0;
"1" = 0;
"10" = 0;
"11" = 0;
"2" = 0;
"3" = 0;
"4" = 0;
"5" = 0;
"6" = 0;
"7" = 0;
"8" = 0;
"9" = 0;
};
};
width = 659;
}
);
metricRight = "=|";
unicode = 79;
userData = {
KernOnName = O;
};
},
{
color = 0;
glyphname = Oslash;
kernRight = KO_Oslash;
lastChange = "2025-05-28 12:37:31 +0000";
layers = (
{
layerId = "73572E25-487C-487F-975F-150A505979A5";
shapes = (
{
closed = 1;
nodes = (
(680,676,l),
(634,714,l),
(-1,24,l),
(45,-14,l)
);
},
{
ref = O;
}
);
userData = {
com.hugojourdan.ColorFlow = {
"0" = 0;
"1" = 0;
"10" = 0;
"11" = 0;
"2" = 0;
"3" = 0;
"4" = 0;
"5" = 0;
"6" = 0;
"7" = 0;
"8" = 0;
"9" = 0;
};
};
width = 497;
},
{
layerId = "66114D67-63CC-4821-8086-0090D571F0A1";
shapes = (
{
closed = 1;
nodes = (
(727,638,l),
(661,707,l),
(-21,61,l),
(45,-8,l)
);
},
{
ref = O;
}
);
userData = {
com.hugojourdan.ColorFlow = {
"0" = 0;
"1" = 0;
"10" = 0;
"11" = 0;
"2" = 0;
"3" = 0;
"4" = 0;
"5" = 0;
"6" = 0;
"7" = 0;
"8" = 0;
"9" = 0;
};
};
width = 659;
}
);
unicode = 216;
},
{
color = 0;
glyphname = OE;
kernLeft = KO_O;
kernRight = KO_E;
lastChange = "2025-05-28 12:37:31 +0000";
layers = (
{
anchors = (
{
name = bottom;
pos = (264,0);
},
{
name = center;
pos = (338,350);
},
{
name = ogonek;
pos = (522,10);
},
{
name = top;
pos = (413,700);
},
{
name = topleft;
pos = (113,700);
},
{
name = topright;
pos = (713,700);
}
);
background = {
shapes = (
{
ref = O;
},
{
alignment = -1;
pos = (420,0);
ref = E;
}
);
};
layerId = "73572E25-487C-487F-975F-150A505979A5";
shapes = (
{
closed = 1;
nodes = (
(439,-12,o),
(534,134,o),
(581,351,cs),
(627,568,o),
(594,714,o),
(426,714,cs),
(262,714,o),
(131,588,o),
(81,351,cs),
(30,114,o),
(107,-12,o),
(271,-12,cs)
);
},
{
closed = 1;
nodes = (
(152,48,o),
(108,153,o),
(151,351,cs),
(193,549,o),
(281,654,o),
(408,654,cs),
(529,654,o),
(569,550,o),
(527,351,cs),
(484,153,o),
(399,48,o),
(279,48,cs)
);
},
{
alignment = -1;
pos = (421,0);
ref = E;
}
);
userData = {
com.hugojourdan.ColorFlow = {
"0" = 0;
"1" = 0;
"10" = 0;
"11" = 0;
"2" = 0;
"3" = 0;
"4" = 0;
"5" = 0;
"6" = 0;
"7" = 0;
"8" = 0;
"9" = 0;
};
};
width = 966;
},
{
anchors = (
{
name = bottom;
pos = (268,0);
},
{
name = center;
pos = (343,350);
},
{
name = ogonek;
pos = (532,10);
},
{
name = top;
pos = (417,700);
},
{
name = topleft;
pos = (110,700);
},
{
name = topright;
pos = (724,700);
}
);
layerId = "66114D67-63CC-4821-8086-0090D571F0A1";
shapes = (
{
closed = 1;
nodes = (
(471,-12,o),
(521,139,o),
(565,351,cs),
(609,560,o),
(625,713,o),
(425,713,cs),
(224,713,o),
(91,561,o),
(47,351,cs),
(1,141,o),
(69,-12,o),
(269,-12,cs)
);
},
{
closed = 1;
nodes = (
(181,104,o),
(157,192,o),
(191,351,cs),
(225,510,o),
(285,599,o),
(401,599,cs),
(508,599,o),
(527,511,o),
(494,351,cs),
(460,193,o),
(405,104,o),
(296,104,cs)
);
},
{
alignment = -1;
pos = (415,0);
ref = E;
}
);
userData = {
com.hugojourdan.ColorFlow = {
"0" = 0;
"1" = 0;
"10" = 0;
"11" = 0;
"2" = 0;
"3" = 0;
"4" = 0;
"5" = 0;
"6" = 0;
"7" = 0;
"8" = 0;
"9" = 0;
};
};
width = 961;
}
);
metricLeft = O;
metricRight = E;
unicode = 338;
},
{
glyphname = P;
kernLeft = KO_H;
kernRight = KO_P;
lastChange = "2025-05-28 12:37:31 +0000";
layers = (
{
anchors = (
{
name = bottom;
pos = (234,0);
},
{
name = top;
pos = (383,700);
}
);
layerId = "73572E25-487C-487F-975F-150A505979A5";
shapes = (
{
closed = 1;
nodes = (
(102,0,l),
(158,262,l),
(307,262,ls),
(475,262,o),
(569,343,o),
(598,478,cs),
(628,620,o),
(568,700,o),
(400,700,cs),
(181,700,l),
(32,0,l)
);
},
{
closed = 1;
nodes = (
(238,640,l),
(394,640,ls),
(502,640,o),
(552,593,o),
(527,475,cs),
(504,368,o),
(434,322,o),
(326,322,cs),
(170,322,l)
);
}
);
userData = {
com.hugojourdan.ColorFlow = {
"0" = 0;
"1" = 0;
"10" = 0;
"11" = 0;
"2" = 0;
"3" = 0;
"4" = 0;
"5" = 0;
"6" = 0;
"7" = 0;
"8" = 0;
"9" = 0;
};
};
width = 584;
},
{
anchors = (
{
name = bottom;
pos = (234,0);
},
{
name = top;
pos = (383,700);
}
);
layerId = "66114D67-63CC-4821-8086-0090D571F0A1";
shapes = (
{
closed = 1;
nodes = (
(150,0,l),
(198,225,l),
(307,225,ls),
(465,225,o),
(572,287,o),
(605,446,cs),
(637,595,o),
(567,700,o),
(408,700,cs),
(153,700,l),
(5,0,l)
);
},
{
closed = 1;
nodes = (
(274,585,l),
(372,585,ls),
(449,585,o),
(482,550,o),
(464,462,cs),
(446,379,o),
(398,342,o),
(320,342,cs),
(222,342,l)
);
}
);
userData = {
com.hugojourdan.ColorFlow = {
"0" = 0;
"1" = 0;
"10" = 0;
"11" = 0;
"2" = 0;
"3" = 0;
"4" = 0;
"5" = 0;
"6" = 0;
"7" = 0;
"8" = 0;
"9" = 0;
};
};
width = 589;
}
);
metricLeft = H;
metricRight = F;
unicode = 80;
},
{
color = 0;
glyphname = Thorn;
kernLeft = KO_H;
kernRight = KO_P;
lastChange = "2025-05-28 12:37:31 +0000";
layers = (
{
anchors = (
{
name = bottom;
pos = (234,0);
},
{
name = top;
pos = (383,700);
}
);
layerId = "73572E25-487C-487F-975F-150A505979A5";
shapes = (
{
closed = 1;
nodes = (
(306,163,ls),
(460,163,o),
(546,235,o),
(571,355,cs),
(597,474,o),
(540,541,o),
(386,541,cs),
(201,541,l),
(188,481,l),
(380,481,ls),
(475,481,o),
(520,444,o),
(501,352,cs),
(482,262,o),
(420,223,o),
(325,223,cs),
(134,223,l),
(122,163,l)
);
},
{
closed = 1;
nodes = (
(102,0,l),
(251,700,l),
(181,700,l),
(32,0,l)
);
}
);
userData = {
com.hugojourdan.ColorFlow = {
"0" = 0;
"1" = 0;
"10" = 0;
"11" = 0;
"2" = 0;
"3" = 0;
"4" = 0;
"5" = 0;
"6" = 0;
"7" = 0;
"8" = 0;
"9" = 0;
};
};
width = 584;
},
{
anchors = (
{
name = bottom;
pos = (235,0);
},
{
name = top;
pos = (384,700);
}
);
layerId = "66114D67-63CC-4821-8086-0090D571F0A1";
shapes = (
{
closed = 1;
nodes = (
(289,130,ls),
(449,130,o),
(556,214,o),
(586,353,cs),
(615,491,o),
(544,572,o),
(383,572,cs),
(254,572,l),
(229,453,l),
(347,453,ls),
(421,453,o),
(456,424,o),
(440,350,cs),
(425,281,o),
(378,248,o),
(304,248,cs),
(186,248,l),
(160,130,l)
);
},
{
closed = 1;
nodes = (
(149,0,l),
(298,700,l),
(153,700,l),
(5,0,l)
);
}
);
userData = {
com.hugojourdan.ColorFlow = {
"0" = 0;
"1" = 0;
"10" = 0;
"11" = 0;
"2" = 0;
"3" = 0;
"4" = 0;
"5" = 0;
"6" = 0;
"7" = 0;
"8" = 0;
"9" = 0;
};
};
width = 589;
}
);
metricLeft = P;
metricRight = P;
unicode = 222;
},
{
glyphname = Q;
kernLeft = KO_O;
kernRight = KO_O;
lastChange = "2025-05-28 12:37:31 +0000";
layers = (
{
anchors = (
{
name = bottom;
pos = (264,0);
},
{
name = top;
pos = (413,700);
}
);
layerId = "73572E25-487C-487F-975F-150A505979A5";
shapes = (
{
closed = 1;
nodes = (
(393,-179,l),
(406,-119,l),
(299,-119,ls),
(274,-119,o),
(267,-108,o),
(274,-81,cs),
(301,17,l),
(231,17,l),
(206,-72,ls),
(183,-155,o),
(209,-179,o),
(297,-179,cs)
);
},
{
ref = O;
}
);
userData = {
com.hugojourdan.ColorFlow = {
"0" = 0;
"1" = 0;
"10" = 0;
"11" = 0;
"2" = 0;
"3" = 0;
"4" = 0;
"5" = 0;
"6" = 0;
"7" = 0;
"8" = 0;
"9" = 0;
};
};
width = 644;
},
{
anchors = (
{
name = bottom;
pos = (270,0);
},
{
name = top;
pos = (419,700);
}
);
layerId = "66114D67-63CC-4821-8086-0090D571F0A1";
shapes = (
{
closed = 1;
nodes = (
(427,-192,l),
(452,-76,l),
(340,-76,ls),
(322,-76,o),
(314,-68,o),
(319,-49,cs),
(340,25,l),
(197,25,l),
(174,-57,ls),
(148,-152,o),
(192,-192,o),
(309,-192,cs)
);
},
{
ref = O;
}
);
userData = {
com.hugojourdan.ColorFlow = {
"0" = 0;
"1" = 0;
"10" = 0;
"11" = 0;
"2" = 0;
"3" = 0;
"4" = 0;
"5" = 0;
"6" = 0;
"7" = 0;
"8" = 0;
"9" = 0;
};
};
width = 659;
}
);
metricLeft = O;
metricRight = O;
unicode = 81;
},
{
glyphname = R;
kernLeft = KO_H;
kernRight = KO_R;
lastChange = "2025-05-28 12:37:31 +0000";
layers = (
{
anchors = (
{
name = bottom;
pos = (237,0);
},
{
name = top;
pos = (386,700);
}
);
layerId = "73572E25-487C-487F-975F-150A505979A5";
shapes = (
{
closed = 1;
nodes = (
(102,0,l),
(169,316,l),
(349,316,ls),
(464,316,o),
(571,368,o),
(601,506,cs),
(630,647,o),
(546,700,o),
(431,700,cs),
(181,700,l),
(32,0,l)
);
},
{
closed = 1;
nodes = (
(512,0,l),
(350,322,l),
(268,322,l),
(429,0,l)
);
},
{
closed = 1;
nodes = (
(238,640,l),
(415,640,ls),
(494,640,o),
(553,610,o),
(531,508,cs),
(509,407,o),
(439,376,o),
(359,376,cs),
(182,376,l)
);
}
);
userData = {
com.hugojourdan.ColorFlow = {
"0" = 0;
"1" = 0;
"10" = 0;
"11" = 0;
"2" = 0;
"3" = 0;
"4" = 0;
"5" = 0;
"6" = 0;
"7" = 0;
"8" = 0;
"9" = 0;
};
};
width = 595;
},
{
anchors = (
{
name = bottom;
pos = (246,0);
},
{
name = top;
pos = (395,700);
}
);
layerId = "66114D67-63CC-4821-8086-0090D571F0A1";
shapes = (
{
closed = 1;
nodes = (
(150,0,l),
(208,275,l),
(323,275,ls),
(460,275,o),
(569,329,o),
(599,470,cs),
(631,619,o),
(549,700,o),
(412,700,cs),
(153,700,l),
(5,0,l)
);
},
{
closed = 1;
nodes = (
(533,0,l),
(383,322,l),
(234,322,l),
(373,0,l)
);
},
{
closed = 1;
nodes = (
(274,585,l),
(383,585,ls),
(443,585,o),
(474,560,o),
(458,486,cs),
(443,416,o),
(402,389,o),
(342,389,cs),
(233,389,l)
);
}
);
userData = {
com.hugojourdan.ColorFlow = {
"0" = 0;
"1" = 0;
"10" = 0;
"11" = 0;
"2" = 0;
"3" = 0;
"4" = 0;
"5" = 0;
"6" = 0;
"7" = 0;
"8" = 0;
"9" = 0;
};
};
width = 610;
}
);
metricLeft = H;
unicode = 82;
userData = {
KernOnName = R;
};
},
{
glyphname = S;
kernLeft = KO_S;
kernRight = KO_S;
lastChange = "2025-05-28 12:37:31 +0000";
layers = (
{
anchors = (
{
name = bottom;
pos = (217,0);
},
{
name = top;
pos = (366,700);
}
);
layerId = "73572E25-487C-487F-975F-150A505979A5";
shapes = (
{
attr = {
identifier = ID0x7fafcdcb18b0;
};
closed = 1;
nodes = (
(326,-15,o),
(457,41,o),
(488,187,cs),
(512,301,o),
(461,357,o),
(303,401,cs),
(187,433,o),
(181,478,o),
(194,542,cs),
(210,618,o),
(283,655,o),
(353,655,cs),
(428,655,o),
(483,626,o),
(480,512,c),
(549,524,l),
(563,693,o),
(443,715,o),
(369,715,cs),
(239,715,o),
(145,639,o),
(122,530,cs),
(105,452,o),
(130,368,o),
(254,338,cs),
(388,305,o),
(440,263,o),
(413,170,cs),
(388,80,o),
(306,45,o),
(243,45,cs),
(175,45,o),
(86,67,o),
(99,210,c),
(28,203,l),
(11,49,o),
(106,-15,o),
(236,-15,cs)
);
}
);
userData = {
com.hugojourdan.ColorFlow = {
"0" = 0;
"1" = 0;
"10" = 0;
"11" = 0;
"2" = 0;
"3" = 0;
"4" = 0;
"5" = 0;
"6" = 0;
"7" = 0;
"8" = 0;
"9" = 0;
};
};
width = 549;
},
{
anchors = (
{
name = bottom;
pos = (224,0);
},
{
name = top;
pos = (373,700);
}
);
color = 4;
layerId = "66114D67-63CC-4821-8086-0090D571F0A1";
shapes = (
{
attr = {
identifier = ID0x7fafcdcb18b0;
};
closed = 1;
nodes = (
(398,-15,o),
(495,50,o),
(521,180,cs),
(545,298,o),
(487,386,o),
(340,421,cs),
(252,442,o),
(238,480,o),
(249,531,cs),
(259,575,o),
(298,602,o),
(345,602,cs),
(407,602,o),
(449,576,o),
(450,495,c),
(588,532,l),
(586,664,o),
(494,715,o),
(361,715,cs),
(224,715,o),
(124,642,o),
(100,529,cs),
(76,418,o),
(122,335,o),
(262,302,cs),
(354,281,o),
(391,246,o),
(379,185,cs),
(367,125,o),
(312,98,o),
(261,98,cs),
(204,98,o),
(155,130,o),
(151,226,c),
(14,199,l),
(11,53,o),
(105,-15,o),
(259,-15,cs)
);
}
);
userData = {
com.hugojourdan.ColorFlow = {
"0" = 0;
"1" = 0;
"10" = 0;
"11" = 0;
"2" = 0;
"3" = 0;
"4" = 0;
"5" = 0;
"6" = 0;
"7" = 0;
"8" = 0;
"9" = 0;
};
};
width = 573;
}
);
metricRight = "=|";
unicode = 83;
userData = {
KernOnName = S;
};
},
{
color = 0;
glyphname = Germandbls;
kernLeft = KO_H;
lastChange = "2025-05-28 12:37:31 +0000";
layers = (
{
layerId = "73572E25-487C-487F-975F-150A505979A5";
shapes = (
{
attr = {
identifier = ID0x159985ed0;
};
closed = 1;
nodes = (
(463,-4,o),
(558,107,o),
(583,228,cs),
(611,358,o),
(548,448,o),
(391,448,c),
(412,422,l),
(617,620,l),
(634,700,l),
(181,700,l),
(32,0,l),
(108,0,l),
(244,640,l),
(601,640,l),
(600,687,l),
(347,447,l),
(334,387,l),
(344,387,ls),
(472,387,o),
(531,345,o),
(506,226,cs),
(487,137,o),
(428,56,o),
(328,56,cs),
(274,56,o),
(219,76,o),
(189,95,c),
(174,25,l),
(214,4,o),
(265,-4,o),
(313,-4,cs)
);
}
);
userData = {
com.hugojourdan.ColorFlow = {
"0" = 0;
"1" = 0;
"10" = 0;
"11" = 0;
"2" = 0;
"3" = 0;
"4" = 0;
"5" = 0;
"6" = 0;
"7" = 0;
"8" = 0;
"9" = 0;
};
};
width = 638;
},
{
layerId = "66114D67-63CC-4821-8086-0090D571F0A1";
shapes = (
{
attr = {
identifier = ID0x13be0ebe0;
};
closed = 1;
nodes = (
(449,-13,o),
(578,86,o),
(605,216,cs),
(631,337,o),
(577,422,o),
(458,442,c),
(420,391,l),
(624,555,l),
(655,700,l),
(153,700,l),
(5,0,l),
(149,0,l),
(274,586,l),
(549,586,l),
(549,637,l),
(338,455,l),
(313,338,l),
(327,338,ls),
(437,338,o),
(479,298,o),
(461,213,cs),
(447,147,o),
(394,101,o),
(324,101,cs),
(283,101,o),
(239,113,o),
(222,132,c),
(196,12,l),
(219,-3,o),
(264,-13,o),
(316,-13,cs)
);
}
);
userData = {
com.hugojourdan.ColorFlow = {
"0" = 0;
"1" = 0;
"10" = 0;
"11" = 0;
"2" = 0;
"3" = 0;
"4" = 0;
"5" = 0;
"6" = 0;
"7" = 0;
"8" = 0;
"9" = 0;
};
};
width = 651;
}
);
metricLeft = B;
metricRight = B;
unicode = 7838;
},
{
glyphname = T;
kernLeft = KO_T;
kernRight = KO_T;
lastChange = "2025-05-28 12:37:31 +0000";
layers = (
{
anchors = (
{
name = bottom;
pos = (232,0);
},
{
name = center;
pos = (306,350);
},
{
name = top;
pos = (381,700);
}
);
layerId = "73572E25-487C-487F-975F-150A505979A5";
shapes = (
{
closed = 1;
nodes = (
(266,0,l),
(414,695,l),
(344,695,l),
(196,0,l)
);
},
{
closed = 1;
nodes = (
(621,640,l),
(634,700,l),
(128,700,l),
(115,640,l)
);
}
);
userData = {
com.hugojourdan.ColorFlow = {
"0" = 0;
"1" = 0;
"10" = 0;
"11" = 0;
"2" = 0;
"3" = 0;
"4" = 0;
"5" = 0;
"6" = 0;
"7" = 0;
"8" = 0;
"9" = 0;
};
};
width = 580;
},
{
anchors = (
{
name = bottom;
pos = (222,0);
},
{
name = center;
pos = (297,350);
},
{
name = top;
pos = (371,700);
}
);
layerId = "66114D67-63CC-4821-8086-0090D571F0A1";
shapes = (
{
closed = 1;
nodes = (
(295,0,l),
(443,695,l),
(298,695,l),
(150,0,l)
);
},
{
closed = 1;
nodes = (
(600,584,l),
(624,700,l),
(118,700,l),
(94,584,l)
);
}
);
userData = {
com.hugojourdan.ColorFlow = {
"0" = 0;
"1" = 0;
"10" = 0;
"11" = 0;
"2" = 0;
"3" = 0;
"4" = 0;
"5" = 0;
"6" = 0;
"7" = 0;
"8" = 0;
"9" = 0;
};
};
width = 564;
}
);
metricRight = "=|";
unicode = 84;
userData = {
KernOnName = T;
};
},
{
glyphname = U;
kernLeft = KO_U;
kernRight = KO_U;
lastChange = "2025-05-28 12:37:31 +0000";
layers = (
{
anchors = (
{
name = bottom;
pos = (264,0);
},
{
name = ogonek;
pos = (395,10);
},
{
name = top;
pos = (413,700);
},
{
name = topright;
pos = (713,700);
}
);
layerId = "73572E25-487C-487F-975F-150A505979A5";
shapes = (
{
closed = 1;
nodes = (
(396,-15,o),
(518,62,o),
(559,256,cs),
(654,700,l),
(585,700,l),
(486,237,ls),
(459,110,o),
(371,45,o),
(274,45,cs),
(178,45,o),
(116,110,o),
(143,237,cs),
(242,700,l),
(172,700,l),
(77,256,ls),
(36,62,o),
(128,-15,o),
(261,-15,cs)
);
}
);
userData = {
com.hugojourdan.ColorFlow = {
"0" = 0;
"1" = 0;
"10" = 0;
"11" = 0;
"2" = 0;
"3" = 0;
"4" = 0;
"5" = 0;
"6" = 0;
"7" = 0;
"8" = 0;
"9" = 0;
};
};
width = 644;
},
{
anchors = (
{
name = bottom;
pos = (267,0);
},
{
name = ogonek;
pos = (414,10);
},
{
name = top;
pos = (416,700);
},
{
name = topright;
pos = (709,700);
}
);
layerId = "66114D67-63CC-4821-8086-0090D571F0A1";
shapes = (
{
closed = 1;
nodes = (
(456,-15,o),
(552,65,o),
(595,267,cs),
(687,700,l),
(542,700,l),
(447,251,ls),
(424,145,o),
(374,101,o),
(300,101,cs),
(222,101,o),
(174,144,o),
(196,251,cs),
(292,700,l),
(147,700,l),
(55,267,ls),
(14,74,o),
(119,-15,o),
(272,-15,cs)
);
}
);
userData = {
com.hugojourdan.ColorFlow = {
"0" = 0;
"1" = 0;
"10" = 0;
"11" = 0;
"2" = 0;
"3" = 0;
"4" = 0;
"5" = 0;
"6" = 0;
"7" = 0;
"8" = 0;
"9" = 0;
};
};
width = 656;
}
);
metricLeft = "=H*.9";
metricRight = "=|";
unicode = 85;
},
{
glyphname = V;
kernLeft = KO_V;
kernRight = KO_V;
lastChange = "2025-05-28 12:37:31 +0000";
layers = (
{
anchors = (
{
name = bottom;
pos = (257,0);
},
{
name = top;
pos = (406,700);
}
);
layerId = "73572E25-487C-487F-975F-150A505979A5";
shapes = (
{
closed = 1;
nodes = (
(288,0,l),
(685,700,l),
(613,700,l),
(277,101,l),
(275,101,l),
(198,700,l),
(126,700,l),
(223,0,l)
);
}
);
userData = {
com.hugojourdan.ColorFlow = {
"0" = 0;
"1" = 0;
"10" = 0;
"11" = 0;
"2" = 0;
"3" = 0;
"4" = 0;
"5" = 0;
"6" = 0;
"7" = 0;
"8" = 0;
"9" = 0;
};
};
width = 629;
},
{
anchors = (
{
name = bottom;
pos = (270,0);
},
{
name = top;
pos = (419,700);
}
);
layerId = "66114D67-63CC-4821-8086-0090D571F0A1";
shapes = (
{
closed = 1;
nodes = (
(363,0,l),
(727,700,l),
(572,700,l),
(268,90,l),
(295,90,l),
(248,700,l),
(110,700,l),
(178,0,l)
);
}
);
userData = {
com.hugojourdan.ColorFlow = {
"0" = 0;
"1" = 0;
"10" = 0;
"11" = 0;
"2" = 0;
"3" = 0;
"4" = 0;
"5" = 0;
"6" = 0;
"7" = 0;
"8" = 0;
"9" = 0;
};
};
width = 659;
}
);
metricRight = "=|";
unicode = 86;
userData = {
KernOnName = V;
};
},
{
glyphname = W;
kernLeft = KO_W;
kernRight = KO_W;
lastChange = "2025-05-28 12:37:31 +0000";
layers = (
{
anchors = (
{
name = bottom;
pos = (365,0);
},
{
name = top;
pos = (514,700);
}
);
layerId = "73572E25-487C-487F-975F-150A505979A5";
shapes = (
{
closed = 1;
nodes = (
(211,0,l),
(511,668,l),
(503,668,l),
(519,0,l),
(621,0,l),
(902,700,l),
(835,700,l),
(573,41,l),
(584,41,l),
(567,700,l),
(461,700,l),
(164,41,l),
(175,41,l),
(193,700,l),
(126,700,l),
(109,0,l)
);
}
);
userData = {
com.hugojourdan.ColorFlow = {
"0" = 0;
"1" = 0;
"10" = 0;
"11" = 0;
"2" = 0;
"3" = 0;
"4" = 0;
"5" = 0;
"6" = 0;
"7" = 0;
"8" = 0;
"9" = 0;
};
};
width = 846;
},
{
anchors = (
{
name = bottom;
pos = (369,0);
},
{
name = top;
pos = (518,700);
}
);
layerId = "66114D67-63CC-4821-8086-0090D571F0A1";
shapes = (
{
closed = 1;
nodes = (
(270,0,l),
(497,554,l),
(480,554,l),
(471,0,l),
(669,0,l),
(929,700,l),
(800,700,l),
(582,101,l),
(593,101,l),
(595,700,l),
(438,700,l),
(184,101,l),
(196,101,l),
(235,700,l),
(110,700,l),
(72,0,l)
);
}
);
userData = {
com.hugojourdan.ColorFlow = {
"0" = 0;
"1" = 0;
"10" = 0;
"11" = 0;
"2" = 0;
"3" = 0;
"4" = 0;
"5" = 0;
"6" = 0;
"7" = 0;
"8" = 0;
"9" = 0;
};
};
width = 861;
}
);
metricLeft = V;
metricRight = V;
unicode = 87;
userData = {
KernOnName = W;
};
},
{
glyphname = X;
kernLeft = KO_X;
kernRight = KO_X;
lastChange = "2025-05-28 12:37:31 +0000";
layers = (
{
anchors = (
{
name = bottom;
pos = (283,0);
},
{
name = top;
pos = (432,700);
}
);
layerId = "73572E25-487C-487F-975F-150A505979A5";
shapes = (
{
closed = 1;
nodes = (
(92,0,l),
(362,329,l),
(349,329,l),
(468,0,l),
(549,0,l),
(408,361,l),
(707,700,l),
(624,700,l),
(361,394,l),
(378,394,l),
(246,700,l),
(162,700,l),
(313,363,l),
(10,0,l)
);
}
);
userData = {
com.hugojourdan.ColorFlow = {
"0" = 0;
"1" = 0;
"10" = 0;
"11" = 0;
"2" = 0;
"3" = 0;
"4" = 0;
"5" = 0;
"6" = 0;
"7" = 0;
"8" = 0;
"9" = 0;
};
};
width = 684;
},
{
anchors = (
{
name = bottom;
pos = (267,0);
},
{
name = top;
pos = (416,700);
}
);
layerId = "66114D67-63CC-4821-8086-0090D571F0A1";
shapes = (
{
closed = 1;
nodes = (
(154,0,l),
(363,290,l),
(342,290,l),
(422,0,l),
(582,0,l),
(458,363,l),
(729,700,l),
(555,700,l),
(357,429,l),
(379,429,l),
(294,700,l),
(133,700,l),
(263,364,l),
(-17,0,l)
);
}
);
userData = {
com.hugojourdan.ColorFlow = {
"0" = 0;
"1" = 0;
"10" = 0;
"11" = 0;
"2" = 0;
"3" = 0;
"4" = 0;
"5" = 0;
"6" = 0;
"7" = 0;
"8" = 0;
"9" = 0;
};
};
width = 684;
}
);
metricRight = "=|";
unicode = 88;
},
{
glyphname = Y;
kernLeft = KO_Y;
kernRight = KO_Y;
lastChange = "2025-05-28 12:37:31 +0000";
layers = (
{
anchors = (
{
name = bottom;
pos = (240,0);
},
{
name = top;
pos = (389,700);
},
{
name = topleft;
pos = (105,700);
}
);
layerId = "73572E25-487C-487F-975F-150A505979A5";
shapes = (
{
closed = 1;
nodes = (
(319,290,l),
(651,700,l),
(572,700,l),
(298,356,l),
(334,358,l),
(205,700,l),
(126,700,l),
(286,290,l)
);
},
{
closed = 1;
nodes = (
(274,0,l),
(355,381,l),
(285,381,l),
(204,0,l)
);
}
);
userData = {
com.hugojourdan.ColorFlow = {
"0" = 0;
"1" = 0;
"10" = 0;
"11" = 0;
"2" = 0;
"3" = 0;
"4" = 0;
"5" = 0;
"6" = 0;
"7" = 0;
"8" = 0;
"9" = 0;
};
};
width = 595;
},
{
anchors = (
{
name = bottom;
pos = (256,0);
},
{
name = top;
pos = (405,700);
},
{
name = topleft;
pos = (118,700);
}
);
layerId = "66114D67-63CC-4821-8086-0090D571F0A1";
shapes = (
{
closed = 1;
nodes = (
(362,275,l),
(701,700,l),
(522,700,l),
(321,424,l),
(351,418,l),
(265,700,l),
(110,700,l),
(268,275,l)
);
},
{
closed = 1;
nodes = (
(329,0,l),
(419,422,l),
(274,422,l),
(184,0,l)
);
}
);
userData = {
com.hugojourdan.ColorFlow = {
"0" = 0;
"1" = 0;
"10" = 0;
"11" = 0;
"2" = 0;
"3" = 0;
"4" = 0;
"5" = 0;
"6" = 0;
"7" = 0;
"8" = 0;
"9" = 0;
};
};
width = 632;
}
);
metricLeft = V;
metricRight = "=|";
unicode = 89;
userData = {
KernOnName = Y;
};
},
{
glyphname = Z;
kernLeft = KO_Z;
kernRight = KO_Z;
lastChange = "2025-05-28 12:37:31 +0000";
layers = (
{
anchors = (
{
name = bottom;
pos = (235,0);
},
{
name = center;
pos = (309,350);
},
{
name = top;
pos = (384,700);
}
);
layerId = "73572E25-487C-487F-975F-150A505979A5";
shapes = (
{
closed = 1;
nodes = (
(469,0,l),
(482,60,l),
(56,60,l),
(60,24,l),
(591,637,l),
(605,700,l),
(172,700,l),
(159,640,l),
(540,640,l),
(533,664,l),
(14,64,l),
(0,0,l)
);
}
);
userData = {
com.hugojourdan.ColorFlow = {
"0" = 0;
"1" = 0;
"10" = 0;
"11" = 0;
"2" = 0;
"3" = 0;
"4" = 0;
"5" = 0;
"6" = 0;
"7" = 0;
"8" = 0;
"9" = 0;
};
};
width = 585;
},
{
anchors = (
{
name = bottom;
pos = (242,0);
},
{
name = center;
pos = (317,350);
},
{
name = top;
pos = (391,700);
}
);
layerId = "66114D67-63CC-4821-8086-0090D571F0A1";
shapes = (
{
closed = 1;
nodes = (
(500,0,l),
(525,116,l),
(135,116,l),
(134,84,l),
(608,566,l),
(636,700,l),
(158,700,l),
(133,585,l),
(473,585,l),
(476,605,l),
(15,136,l),
(-14,0,l)
);
}
);
userData = {
com.hugojourdan.ColorFlow = {
"0" = 0;
"1" = 0;
"10" = 0;
"11" = 0;
"2" = 0;
"3" = 0;
"4" = 0;
"5" = 0;
"6" = 0;
"7" = 0;
"8" = 0;
"9" = 0;
};
};
width = 605;
}
);
metricRight = "=|";
unicode = 90;
},
{
glyphname = M.ss01;
kernLeft = KO_N.ss01;
kernRight = KO_N.ss01;
lastChange = "2025-05-28 12:37:31 +0000";
layers = (
{
anchors = (
{
name = bottom;
pos = (367,0);
},
{
name = top;
pos = (516,700);
}
);
background = {
shapes = (
{
closed = 1;
nodes = (
(155,0,l),
(155,509,ls),
(155,598,o),
(202,645,o),
(275,645,cs),
(348,645,o),
(389,598,o),
(389,509,cs),
(389,0,l),
(459,0,l),
(459,509,ls),
(459,598,o),
(506,645,o),
(579,645,cs),
(652,645,o),
(693,598,o),
(693,509,cs),
(693,0,l),
(763,0,l),
(763,700,l),
(85,700,l),
(85,0,l)
);
}
);
};
layerId = "73572E25-487C-487F-975F-150A505979A5";
shapes = (
{
closed = 1;
nodes = (
(100,0,l),
(236,640,l),
(470,640,l),
(334,0,l),
(401,0,l),
(537,640,l),
(771,640,l),
(635,0,l),
(702,0,l),
(828,591,ls),
(843,664,o),
(819,700,o),
(740,700,cs),
(292,700,ls),
(213,700,o),
(173,664,o),
(158,591,cs),
(32,0,l)
);
}
);
userData = {
com.hugojourdan.ColorFlow = {
"0" = 0;
"1" = 0;
"10" = 0;
"11" = 0;
"2" = 0;
"3" = 0;
"4" = 0;
"5" = 0;
"6" = 0;
"7" = 0;
"8" = 0;
"9" = 0;
};
};
width = 850;
},
{
anchors = (
{
name = bottom;
pos = (367,0);
},
{
name = top;
pos = (516,700);
}
);
layerId = "66114D67-63CC-4821-8086-0090D571F0A1";
shapes = (
{
closed = 1;
nodes = (
(141,0,l),
(265,585,l),
(423,585,l),
(299,0,l),
(435,0,l),
(560,585,l),
(718,585,l),
(593,0,l),
(730,0,l),
(832,483,ls),
(861,621,o),
(818,704,o),
(665,704,cs),
(381,704,ls),
(224,704,o),
(138,626,o),
(107,483,cs),
(5,0,l)
);
}
);
userData = {
com.hugojourdan.ColorFlow = {
"0" = 0;
"1" = 0;
"10" = 0;
"11" = 0;
"2" = 0;
"3" = 0;
"4" = 0;
"5" = 0;
"6" = 0;
"7" = 0;
"8" = 0;
"9" = 0;
};
};
width = 853;
}
);
metricLeft = M;
metricRight = M;
},
{
glyphname = N.ss01;
kernLeft = KO_N.ss01;
kernRight = KO_N.ss01;
lastChange = "2025-05-28 12:37:31 +0000";
layers = (
{
anchors = (
{
name = bottom;
pos = (281,0);
},
{
name = top;
pos = (430,700);
}
);
background = {
shapes = (
{
closed = 1;
nodes = (
(158,0,l),
(158,430,ls),
(158,571,o),
(220,645,o),
(339,645,cs),
(458,645,o),
(520,571,o),
(520,430,cs),
(520,0,l),
(590,0,l),
(590,700,l),
(88,700,l),
(88,0,l)
);
}
);
};
layerId = "73572E25-487C-487F-975F-150A505979A5";
shapes = (
{
closed = 1;
nodes = (
(100,0,l),
(236,640,l),
(599,640,l),
(463,0,l),
(531,0,l),
(657,591,l),
(672,664,o),
(644,700,o),
(558,700,cs),
(303,700,ls),
(217,700,o),
(173,664,o),
(158,591,cs),
(32,0,l)
);
}
);
userData = {
com.hugojourdan.ColorFlow = {
"0" = 0;
"1" = 0;
"10" = 0;
"11" = 0;
"2" = 0;
"3" = 0;
"4" = 0;
"5" = 0;
"6" = 0;
"7" = 0;
"8" = 0;
"9" = 0;
};
};
width = 679;
},
{
anchors = (
{
name = bottom;
pos = (280,0);
},
{
name = top;
pos = (429,700);
}
);
layerId = "66114D67-63CC-4821-8086-0090D571F0A1";
shapes = (
{
closed = 1;
nodes = (
(140,0,l),
(264,585,l),
(542,585,l),
(418,0,l),
(554,0,l),
(644,423,ls),
(683,604,o),
(614,715,o),
(434,715,cs),
(432,715,ls),
(252,715,o),
(133,603,o),
(94,423,cs),
(4,0,l)
);
}
);
userData = {
com.hugojourdan.ColorFlow = {
"0" = 0;
"1" = 0;
"10" = 0;
"11" = 0;
"2" = 0;
"3" = 0;
"4" = 0;
"5" = 0;
"6" = 0;
"7" = 0;
"8" = 0;
"9" = 0;
};
};
width = 679;
}
);
metricLeft = N;
metricRight = N;
},
{
glyphname = M.ss02;
kernLeft = KO_H;
kernRight = KO_H;
lastChange = "2025-05-28 12:37:31 +0000";
layers = (
{
anchors = (
{
name = bottom;
pos = (371,0);
},
{
name = top;
pos = (520,700);
}
);
layerId = "73572E25-487C-487F-975F-150A505979A5";
shapes = (
{
closed = 1;
nodes = (
(102,0,l),
(210,509,ls),
(229,598,o),
(286,645,o),
(359,645,cs),
(432,645,o),
(463,598,o),
(444,509,cs),
(336,0,l),
(406,0,l),
(514,509,ls),
(533,598,o),
(590,645,o),
(663,645,cs),
(736,645,o),
(767,598,o),
(748,509,cs),
(640,0,l),
(710,0,l),
(859,700,l),
(181,700,l),
(32,0,l)
);
}
);
userData = {
com.hugojourdan.ColorFlow = {
"0" = 0;
"1" = 0;
"10" = 0;
"11" = 0;
"2" = 0;
"3" = 0;
"4" = 0;
"5" = 0;
"6" = 0;
"7" = 0;
"8" = 0;
"9" = 0;
};
};
width = 858;
},
{
anchors = (
{
name = bottom;
pos = (368,0);
},
{
name = top;
pos = (517,700);
}
);
layerId = "66114D67-63CC-4821-8086-0090D571F0A1";
shapes = (
{
closed = 1;
nodes = (
(140,0,l),
(246,499,ls),
(260,561,o),
(298,594,o),
(349,594,cs),
(398,594,o),
(419,562,o),
(406,499,cs),
(300,0,l),
(436,0,l),
(542,499,ls),
(556,561,o),
(596,594,o),
(645,594,cs),
(693,594,o),
(716,562,o),
(702,499,cs),
(596,0,l),
(732,0,l),
(880,700,l),
(153,700,l),
(5,0,l)
);
}
);
userData = {
com.hugojourdan.ColorFlow = {
"0" = 0;
"1" = 0;
"10" = 0;
"11" = 0;
"2" = 0;
"3" = 0;
"4" = 0;
"5" = 0;
"6" = 0;
"7" = 0;
"8" = 0;
"9" = 0;
};
};
width = 855;
}
);
metricLeft = M;
metricRight = M;
},
{
glyphname = N.ss02;
kernLeft = KO_H;
kernRight = KO_H;
lastChange = "2025-05-28 12:37:31 +0000";
layers = (
{
anchors = (
{
name = bottom;
pos = (283,0);
},
{
name = top;
pos = (432,700);
}
);
layerId = "73572E25-487C-487F-975F-150A505979A5";
shapes = (
{
closed = 1;
nodes = (
(102,0,l),
(193,430,ls),
(223,571,o),
(301,645,o),
(420,645,cs),
(539,645,o),
(585,571,o),
(555,430,cs),
(464,0,l),
(534,0,l),
(683,700,l),
(181,700,l),
(32,0,l)
);
}
);
userData = {
com.hugojourdan.ColorFlow = {
"0" = 0;
"1" = 0;
"10" = 0;
"11" = 0;
"2" = 0;
"3" = 0;
"4" = 0;
"5" = 0;
"6" = 0;
"7" = 0;
"8" = 0;
"9" = 0;
};
};
width = 682;
},
{
anchors = (
{
name = bottom;
pos = (279,0);
},
{
name = top;
pos = (428,700);
}
);
layerId = "66114D67-63CC-4821-8086-0090D571F0A1";
shapes = (
{
closed = 1;
nodes = (
(139,0,l),
(231,433,ls),
(254,540,o),
(315,600,o),
(407,600,cs),
(497,600,o),
(534,541,o),
(511,433,cs),
(419,0,l),
(556,0,l),
(705,701,l),
(153,701,l),
(4,0,l)
);
}
);
userData = {
com.hugojourdan.ColorFlow = {
"0" = 0;
"1" = 0;
"10" = 0;
"11" = 0;
"2" = 0;
"3" = 0;
"4" = 0;
"5" = 0;
"6" = 0;
"7" = 0;
"8" = 0;
"9" = 0;
};
};
width = 680;
}
);
metricLeft = N;
metricRight = N;
},
{
glyphname = a;
kernLeft = KO_a;
kernRight = KO_a;
lastChange = "2025-05-28 12:37:31 +0000";
layers = (
{
anchors = (
{
name = bottom;
pos = (202,0);
},
{
name = ogonek;
pos = (416,10);
},
{
name = top;
pos = (318,546);
}
);
background = {
shapes = (
{
closed = 1;
nodes = (
(451,0,l),
(451,390,ls),
(451,503,o),
(386,561,o),
(258,561,cs),
(163,561,o),
(84,512,o),
(50,432,c),
(106,398,l),
(135,461,o),
(188,501,o),
(257,501,cs),
(342,501,o),
(383,455,o),
(383,391,cs),
(383,0,l)
);
},
{
closed = 1;
nodes = (
(324,-11,o),
(391,50,o),
(396,146,c),
(383,240,l),
(383,121,o),
(326,49,o),
(232,49,cs),
(154,49,o),
(111,84,o),
(111,148,cs),
(111,208,o),
(151,241,o),
(246,258,cs),
(396,283,l),
(396,344,l),
(239,318,ls),
(106,297,o),
(43,241,o),
(43,144,cs),
(43,49,o),
(110,-11,o),
(225,-11,cs)
);
}
);
};
layerId = "73572E25-487C-487F-975F-150A505979A5";
shapes = (
{
closed = 1;
nodes = (
(396,0,l),
(477,379,ls),
(506,516,o),
(422,561,o),
(316,561,cs),
(217,561,o),
(138,519,o),
(88,432,c),
(141,400,l),
(178,466,o),
(236,501,o),
(312,501,cs),
(380,501,o),
(425,466,o),
(408,386,cs),
(326,0,l)
);
},
{
closed = 1;
nodes = (
(272,-11,o),
(349,53,o),
(376,157,c),
(377,241,l),
(351,118,o),
(276,50,o),
(175,50,cs),
(114,50,o),
(72,80,o),
(86,148,cs),
(100,212,o),
(149,241,o),
(239,258,cs),
(398,280,l),
(411,340,l),
(256,319,ls),
(118,300,o),
(36,247,o),
(16,152,cs),
(-3,60,o),
(44,-11,o),
(152,-11,cs)
);
}
);
userData = {
com.hugojourdan.ColorFlow = {
"0" = 0;
"1" = 0;
"10" = 0;
"11" = 0;
"2" = 0;
"3" = 0;
"4" = 0;
"5" = 0;
"6" = 0;
"7" = 0;
"8" = 0;
"9" = 0;
};
};
width = 522;
},
{
anchors = (
{
name = bottom;
pos = (211,0);
},
{
name = ogonek;
pos = (410,10);
},
{
name = top;
pos = (331,560);
}
);
color = 4;
layerId = "66114D67-63CC-4821-8086-0090D571F0A1";
shapes = (
{
closed = 1;
nodes = (
(429,0,l),
(508,373,ls),
(538,515,o),
(471,575,o),
(324,575,cs),
(242,575,o),
(149,543,o),
(81,473,c),
(149,385,l),
(179,425,o),
(235,461,o),
(292,461,cs),
(350,461,o),
(385,436,o),
(372,378,cs),
(292,0,l)
);
},
{
closed = 1;
nodes = (
(242,-11,o),
(311,51,o),
(330,155,c),
(344,242,l),
(324,147,o),
(272,94,o),
(205,94,cs),
(163,94,o),
(134,113,o),
(143,161,cs),
(152,202,o),
(185,228,o),
(244,240,cs),
(361,262,l),
(382,360,l),
(247,336,ls),
(106,311,o),
(25,257,o),
(5,163,cs),
(-17,58,o),
(31,-11,o),
(139,-11,cs)
);
}
);
userData = {
com.hugojourdan.ColorFlow = {
"0" = 0;
"1" = 0;
"10" = 0;
"11" = 0;
"2" = 0;
"3" = 0;
"4" = 0;
"5" = 0;
"6" = 0;
"7" = 0;
"8" = 0;
"9" = 0;
};
};
width = 544;
}
);
metricLeft = o;
metricRight = n;
unicode = 97;
userData = {
KernOnName = a;
};
},
{
glyphname = aogonek;
kernLeft = KO_a;
kernRight = KO_a;
lastChange = "2025-05-28 12:37:31 +0000";
layers = (
{
anchors = (
{
name = top;
pos = (318,546);
}
);
layerId = "73572E25-487C-487F-975F-150A505979A5";
shapes = (
{
closed = 1;
nodes = (
(325,-205,o),
(346,-202,o),
(371,-191,c),
(384,-130,l),
(359,-142,o),
(345,-145,o),
(331,-145,c),
(302,-145,o),
(286,-129,o),
(291,-103,cs),
(298,-72,o),
(327,-46,o),
(375,-13,cs),
(394,0,l),
(332,7,l),
(311,-9,ls),
(266,-44,o),
(235,-72,o),
(224,-120,cs),
(214,-171,o),
(245,-205,o),
(300,-205,c)
);
},
{
ref = a;
}
);
userData = {
com.hugojourdan.ColorFlow = {
"0" = 0;
"1" = 0;
"10" = 0;
"11" = 0;
"2" = 0;
"3" = 0;
"4" = 0;
"5" = 0;
"6" = 0;
"7" = 0;
"8" = 0;
"9" = 0;
};
};
width = 520;
},
{
anchors = (
{
name = top;
pos = (332,560);
}
);
layerId = "66114D67-63CC-4821-8086-0090D571F0A1";
shapes = (
{
closed = 1;
nodes = (
(365,-205,o),
(386,-201,o),
(410,-192,c),
(427,-115,l),
(401,-127,o),
(388,-129,o),
(374,-129,c),
(350,-129,o),
(334,-117,o),
(338,-95,cs),
(344,-69,o),
(370,-45,o),
(410,-13,cs),
(427,0,l),
(358,10,l),
(336,-4,ls),
(284,-38,o),
(253,-75,o),
(244,-116,cs),
(232,-172,o),
(266,-205,o),
(334,-205,c)
);
},
{
ref = a;
}
);
userData = {
com.hugojourdan.ColorFlow = {
"0" = 0;
"1" = 0;
"10" = 0;
"11" = 0;
"2" = 0;
"3" = 0;
"4" = 0;
"5" = 0;
"6" = 0;
"7" = 0;
"8" = 0;
"9" = 0;
};
};
width = 543;
}
);
metricLeft = a;
unicode = 261;
},
{
color = 0;
glyphname = ae;
kernLeft = KO_a;
kernRight = KO_e;
lastChange = "2025-05-28 12:37:31 +0000";
layers = (
{
anchors = (
{
name = bottom;
pos = (387,0);
},
{
name = top;
pos = (503,546);
}
);
layerId = "73572E25-487C-487F-975F-150A505979A5";
shapes = (
{
closed = 1;
nodes = (
(425,173,l),
(469,379,ls),
(498,516,o),
(424,561,o),
(324,561,cs),
(220,561,o),
(138,518,o),
(82,429,c),
(139,400,l),
(176,466,o),
(234,501,o),
(310,501,cs),
(378,501,o),
(423,466,o),
(406,386,cs),
(361,173,l)
);
},
{
closed = 1;
nodes = (
(279,-11,o),
(357,53,o),
(394,157,c),
(375,241,l),
(349,118,o),
(274,50,o),
(173,50,cs),
(112,50,o),
(70,80,o),
(84,148,cs),
(98,212,o),
(147,241,o),
(237,258,cs),
(396,280,l),
(409,340,l),
(254,319,ls),
(116,300,o),
(35,242,o),
(14,142,cs),
(-4,55,o),
(42,-11,o),
(150,-11,cs)
);
},
{
alignment = -1;
pos = (341,0);
ref = e;
}
);
userData = {
com.hugojourdan.ColorFlow = {
"0" = 0;
"1" = 0;
"10" = 0;
"11" = 0;
"2" = 0;
"3" = 0;
"4" = 0;
"5" = 0;
"6" = 0;
"7" = 0;
"8" = 0;
"9" = 0;
};
};
width = 889;
},
{
anchors = (
{
name = bottom;
pos = (377,0);
},
{
name = top;
pos = (497,560);
}
);
layerId = "66114D67-63CC-4821-8086-0090D571F0A1";
shapes = (
{
closed = 1;
nodes = (
(447,192,l),
(487,381,ls),
(516,513,o),
(454,575,o),
(338,575,cs),
(246,575,o),
(150,541,o),
(78,470,c),
(136,384,l),
(175,430,o),
(231,461,o),
(299,461,cs),
(349,461,o),
(382,436,o),
(370,378,cs),
(331,192,l)
);
},
{
closed = 1;
nodes = (
(274,-11,o),
(357,48,o),
(387,148,c),
(342,247,l),
(320,143,o),
(271,94,o),
(200,94,cs),
(158,94,o),
(130,116,o),
(140,164,cs),
(149,205,o),
(183,230,o),
(239,241,cs),
(359,265,l),
(378,353,l),
(242,331,ls),
(100,306,o),
(22,248,o),
(2,150,cs),
(-19,54,o),
(34,-11,o),
(147,-11,cs)
);
},
{
alignment = -1;
pos = (319,0);
ref = e;
}
);
userData = {
com.hugojourdan.ColorFlow = {
"0" = 0;
"1" = 0;
"10" = 0;
"11" = 0;
"2" = 0;
"3" = 0;
"4" = 0;
"5" = 0;
"6" = 0;
"7" = 0;
"8" = 0;
"9" = 0;
};
};
width = 871;
}
);
metricLeft = a;
metricRight = e;
unicode = 230;
},
{
glyphname = b;
kernLeft = KO_i;
kernRight = KO_b;
lastChange = "2025-05-28 12:37:31 +0000";
layers = (
{
anchors = (
{
name = bottom;
pos = (226,0);
},
{
name = center;
pos = (213,618);
},
{
name = top;
pos = (342,546);
}
);
background = {
shapes = (
{
closed = 1;
nodes = (
(428,-15,o),
(523,86,o),
(523,278,cs),
(523,470,o),
(428,562,o),
(308,562,cs),
(222,562,o),
(143,505,o),
(131,409,c),
(71,275,l),
(128,151,l),
(138,48,o),
(210,-15,o),
(308,-15,cs)
);
},
{
closed = 1;
nodes = (
(192,37,o),
(138,137,o),
(138,275,cs),
(138,405,o),
(192,510,o),
(293,510,cs),
(399,510,o),
(455,424,o),
(455,277,cs),
(455,133,o),
(399,37,o),
(293,37,cs)
);
}
);
};
layerId = "73572E25-487C-487F-975F-150A505979A5";
shapes = (
{
closed = 1;
nodes = (
(382,-15,o),
(511,71,o),
(550,253,cs),
(594,461,o),
(504,561,o),
(379,561,cs),
(283,561,o),
(182,494,o),
(146,385,c),
(73,273,l),
(98,161,l),
(88,52,o),
(161,-15,o),
(257,-15,cs)
);
},
{
closed = 1;
nodes = (
(82,0,l),
(117,164,l),
(163,382,l),
(244,760,l),
(176,760,l),
(14,0,l)
);
},
{
closed = 1;
nodes = (
(150,45,o),
(113,145,o),
(140,273,cs),
(167,401,o),
(245,501,o),
(353,501,cs),
(466,501,o),
(513,418,o),
(482,273,cs),
(451,128,o),
(372,45,o),
(265,45,cs)
);
}
);
userData = {
com.hugojourdan.ColorFlow = {
"0" = 0;
"1" = 0;
"10" = 0;
"11" = 0;
"2" = 0;
"3" = 0;
"4" = 0;
"5" = 0;
"6" = 0;
"7" = 0;
"8" = 0;
"9" = 0;
};
};
width = 592;
},
{
anchors = (
{
name = bottom;
pos = (247,0);
},
{
name = center;
pos = (224,609);
},
{
name = top;
pos = (367,560);
}
);
layerId = "66114D67-63CC-4821-8086-0090D571F0A1";
shapes = (
{
closed = 1;
nodes = (
(425,-15,o),
(540,74,o),
(582,271,cs),
(625,477,o),
(541,574,o),
(417,574,cs),
(317,574,o),
(236,510,o),
(209,402,c),
(129,281,l),
(158,159,l),
(140,52,o),
(200,-15,o),
(301,-15,cs)
);
},
{
closed = 1;
nodes = (
(137,0,l),
(172,167,l),
(219,390,l),
(298,759,l),
(162,759,l),
(1,0,l)
);
},
{
closed = 1;
nodes = (
(196,103,o),
(174,177,o),
(196,281,cs),
(218,383,o),
(271,458,o),
(355,458,cs),
(439,458,o),
(471,391,o),
(447,281,cs),
(424,171,o),
(364,103,o),
(279,103,cs)
);
}
);
userData = {
com.hugojourdan.ColorFlow = {
"0" = 0;
"1" = 0;
"10" = 0;
"11" = 0;
"2" = 0;
"3" = 0;
"4" = 0;
"5" = 0;
"6" = 0;
"7" = 0;
"8" = 0;
"9" = 0;
};
};
width = 611;
}
);
metricLeft = l;
metricRight = "=o*.9";
unicode = 98;
},
{
glyphname = c;
kernLeft = KO_e;
kernRight = KO_c;
lastChange = "2025-05-28 12:37:31 +0000";
layers = (
{
anchors = (
{
name = bottom;
pos = (214,0);
},
{
name = top;
pos = (330,546);
}
);
background = {
shapes = (
{
pos = (1,0);
ref = o;
}
);
};
layerId = "73572E25-487C-487F-975F-150A505979A5";
shapes = (
{
closed = 1;
nodes = (
(319,-13,o),
(422,18,o),
(476,150,c),
(420,172,l),
(384,83,o),
(311,47,o),
(239,47,cs),
(130,47,o),
(81,128,o),
(112,275,cs),
(143,420,o),
(230,501,o),
(338,501,cs),
(412,501,o),
(471,465,o),
(463,388,c),
(529,396,l),
(534,517,o),
(437,561,o),
(348,561,cs),
(192,561,o),
(79,445,o),
(44,282,cs),
(8,111,o),
(73,-13,o),
(237,-13,cs)
);
}
);
userData = {
com.hugojourdan.ColorFlow = {
"0" = 0;
"1" = 0;
"10" = 0;
"11" = 0;
"2" = 0;
"3" = 0;
"4" = 0;
"5" = 0;
"6" = 0;
"7" = 0;
"8" = 0;
"9" = 0;
};
};
width = 543;
},
{
anchors = (
{
name = bottom;
pos = (214,0);
},
{
name = top;
pos = (334,560);
}
);
color = 4;
layerId = "66114D67-63CC-4821-8086-0090D571F0A1";
shapes = (
{
closed = 1;
nodes = (
(345,-13,o),
(448,49,o),
(497,175,c),
(370,204,l),
(345,130,o),
(300,102,o),
(246,102,cs),
(169,102,o),
(140,162,o),
(165,282,cs),
(190,399,o),
(246,460,o),
(322,460,cs),
(377,460,o),
(408,432,o),
(404,358,c),
(542,388,l),
(553,516,o),
(471,575,o),
(348,575,cs),
(189,575,o),
(67,460,o),
(30,282,cs),
(-8,106,o),
(65,-13,o),
(223,-13,cs)
);
}
);
userData = {
com.hugojourdan.ColorFlow = {
"0" = 0;
"1" = 0;
"10" = 0;
"11" = 0;
"2" = 0;
"3" = 0;
"4" = 0;
"5" = 0;
"6" = 0;
"7" = 0;
"8" = 0;
"9" = 0;
};
};
width = 548;
}
);
metricLeft = o;
metricRight = "=|*.95";
unicode = 99;
},
{
glyphname = d;
kernLeft = KO_d;
kernRight = KO_i;
lastChange = "2025-05-28 12:37:31 +0000";
layers = (
{
anchors = (
{
name = bottom;
pos = (236,0);
},
{
name = center;
pos = (512,608);
},
{
name = top;
pos = (352,546);
},
{
name = topright;
pos = (672,760);
}
);
layerId = "73572E25-487C-487F-975F-150A505979A5";
shapes = (
{
closed = 1;
nodes = (
(308,-15,o),
(407,52,o),
(442,161,c),
(515,273,l),
(490,385,l),
(500,494,o),
(427,561,o),
(331,561,cs),
(198,561,o),
(77,475,o),
(36,283,cs),
(-6,85,o),
(86,-15,o),
(215,-15,cs)
);
},
{
closed = 1;
nodes = (
(122,45,o),
(75,128,o),
(106,273,cs),
(137,418,o),
(219,501,o),
(332,501,cs),
(440,501,o),
(475,401,o),
(448,273,cs),
(421,145,o),
(343,45,o),
(235,45,cs)
);
},
{
closed = 1;
nodes = (
(458,0,l),
(620,760,l),
(552,760,l),
(471,382,l),
(425,164,l),
(390,0,l)
);
}
);
userData = {
com.hugojourdan.ColorFlow = {
"0" = 0;
"1" = 0;
"10" = 0;
"11" = 0;
"2" = 0;
"3" = 0;
"4" = 0;
"5" = 0;
"6" = 0;
"7" = 0;
"8" = 0;
"9" = 0;
};
};
width = 588;
},
{
anchors = (
{
name = bottom;
pos = (245,0);
},
{
name = center;
pos = (527,608);
},
{
name = top;
pos = (365,560);
},
{
name = topright;
pos = (692,760);
}
);
layerId = "66114D67-63CC-4821-8086-0090D571F0A1";
shapes = (
{
closed = 1;
nodes = (
(289,-15,o),
(375,52,o),
(402,159,c),
(482,281,l),
(453,402,l),
(472,510,o),
(414,575,o),
(320,575,cs),
(192,575,o),
(71,487,o),
(29,290,cs),
(-13,93,o),
(76,-15,o),
(194,-15,cs)
);
},
{
closed = 1;
nodes = (
(171,103,o),
(141,171,o),
(166,290,cs),
(188,391,o),
(248,458,o),
(332,458,cs),
(416,458,o),
(437,383,o),
(415,281,cs),
(393,177,o),
(339,103,o),
(256,103,cs)
);
},
{
closed = 1;
nodes = (
(491,0,l),
(652,759,l),
(517,759,l),
(438,390,l),
(391,167,l),
(355,0,l)
);
}
);
userData = {
com.hugojourdan.ColorFlow = {
"0" = 0;
"1" = 0;
"10" = 0;
"11" = 0;
"2" = 0;
"3" = 0;
"4" = 0;
"5" = 0;
"6" = 0;
"7" = 0;
"8" = 0;
"9" = 0;
};
};
width = 610;
}
);
unicode = 100;
userData = {
KernOnName = d;
};
},
{
color = 0;
glyphname = dcroat;
kernLeft = KO_d;
lastChange = "2025-05-28 12:37:31 +0000";
layers = (
{
layerId = "73572E25-487C-487F-975F-150A505979A5";
shapes = (
{
ref = d;
},
{
closed = 1;
nodes = (
(412,675,l),
(400,615,l),
(675,615,l),
(687,675,l)
);
}
);
userData = {
com.hugojourdan.ColorFlow = {
"0" = 0;
"1" = 0;
"10" = 0;
"11" = 0;
"2" = 0;
"3" = 0;
"4" = 0;
"5" = 0;
"6" = 0;
"7" = 0;
"8" = 0;
"9" = 0;
};
};
width = 594;
},
{
layerId = "66114D67-63CC-4821-8086-0090D571F0A1";
shapes = (
{
ref = d;
},
{
closed = 1;
nodes = (
(416,699,l),
(393,591,l),
(680,591,l),
(703,699,l)
);
}
);
userData = {
com.hugojourdan.ColorFlow = {
"0" = 0;
"1" = 0;
"10" = 0;
"11" = 0;
"2" = 0;
"3" = 0;
"4" = 0;
"5" = 0;
"6" = 0;
"7" = 0;
"8" = 0;
"9" = 0;
};
};
width = 598;
}
);
unicode = 273;
},
{
color = 0;
glyphname = eth;
kernLeft = KO_eth;
kernRight = KO_eth;
lastChange = "2025-05-28 12:37:31 +0000";
layers = (
{
background = {
shapes = (
{
attr = {
identifier = ID0x149dc2ac0;
};
closed = 1;
nodes = (
(476,-15,o),
(524,162,o),
(523,356,cs),
(520,555,o),
(424,700,o),
(187,754,c),
(163,656,l),
(295,633,o),
(452,539,o),
(452,374,cs),
(452,297,l),
(460,318,l),
(448,388,o),
(362,472,o),
(263,472,cs),
(155,472,o),
(40,390,o),
(40,237,cs),
(40,60,o),
(153,-15,o),
(279,-15,cs)
);
},
{
attr = {
identifier = ID0x149dc2ac0;
};
closed = 1;
nodes = (
(184,38,o),
(105,117,o),
(105,232,cs),
(105,354,o),
(168,421,o),
(265,421,cs),
(338,421,o),
(442,373,o),
(442,232,cs),
(442,117,o),
(383,38,o),
(275,38,cs)
);
},
{
attr = {
strokeHeight = 63.54369;
strokeWidth = 63.54369;
};
closed = 0;
nodes = (
(262,543,l),
(449,743,l)
);
}
);
};
layerId = "73572E25-487C-487F-975F-150A505979A5";
shapes = (
{
attr = {
identifier = ID0x13bef4cb0;
};
closed = 1;
nodes = (
(409,-15,o),
(493,142,o),
(527,320,cs),
(563,515,o),
(543,728,o),
(250,766,c),
(223,698,l),
(476,665,o),
(489,497,o),
(464,374,cs),
(448,297,l),
(469,358,l),
(475,443,o),
(408,512,o),
(293,512,cs),
(183,512,o),
(63,428,o),
(30,275,cs),
(-11,79,o),
(102,-15,o),
(225,-15,cs)
);
},
{
attr = {
identifier = ID0x13bef4cb0;
};
closed = 1;
nodes = (
(132,45,o),
(71,127,o),
(100,265,cs),
(127,391,o),
(218,452,o),
(305,452,cs),
(385,452,o),
(464,404,o),
(432,252,cs),
(405,128,o),
(329,45,o),
(224,45,cs)
);
},
{
closed = 1;
nodes = (
(303,593,l),
(341,555,l),
(534,733,l),
(496,771,l)
);
}
);
userData = {
com.hugojourdan.ColorFlow = {
"0" = 0;
"1" = 0;
"10" = 0;
"11" = 0;
"2" = 0;
"3" = 0;
"4" = 0;
"5" = 0;
"6" = 0;
"7" = 0;
"8" = 0;
"9" = 0;
};
};
width = 565;
},
{
background = {
shapes = (
{
attr = {
identifier = ID0x149dc2ac0;
};
closed = 1;
nodes = (
(428.296,-15,o),
(525.305,145,o),
(565.234,352.767,cs),
(605.091,558,o),
(541.525,720,o),
(286.179,774.874,c),
(218.068,640.34,l),
(416.506,607,o),
(458.487,494,o),
(432.815,374,cs),
(416.448,297,l),
(434.573,344.631,l),
(445.222,441,o),
(395.313,512,o),
(293.041,512,cs),
(183.313,512,o),
(60.396,423,o),
(25.606,257,cs),
(-15.275,67,o),
(90.296,-15,o),
(224.674,-15,cs)
);
},
{
attr = {
identifier = ID0x149dc2ac0;
};
closed = 1;
nodes = (
(182.952,101,o),
(141.068,158,o),
(160.854,252,cs),
(181.666,349,o),
(238.869,397,o),
(307.092,396.816,cs),
(363.869,397,o),
(423.367,357,o),
(401.252,252,cs),
(381.281,159,o),
(318.952,101,o),
(247.596,101.058,cs)
);
},
{
closed = 1;
nodes = (
(316.263,599.282,l),
(362.388,550.447,l),
(517.947,700.563,l),
(471.822,749.398,l)
);
}
);
};
layerId = "66114D67-63CC-4821-8086-0090D571F0A1";
shapes = (
{
attr = {
identifier = ID0x149dc2ac0;
};
closed = 1;
nodes = (
(428,-15,o),
(521,126,o),
(555,305,cs),
(601,539,o),
(532,703,o),
(286,775,c),
(217,660,l),
(418,625,o),
(460,503,o),
(432,374,cs),
(416,297,l),
(434,345,l),
(445,441,o),
(385,512,o),
(282,512,cs),
(163,512,o),
(56,434,o),
(22,277,cs),
(-20,77,o),
(102,-15,o),
(256,-15,cs)
);
},
{
attr = {
identifier = ID0x149dc2ac0;
};
closed = 1;
nodes = (
(177,101,o),
(140,158,o),
(160,252,cs),
(181,349,o),
(238,397,o),
(306,397,cs),
(363,397,o),
(423,357,o),
(400,252,cs),
(381,159,o),
(333,101,o),
(255,101,cs)
);
},
{
closed = 1;
nodes = (
(278,584,l),
(343,525,l),
(533,721,l),
(467,779,l)
);
}
);
userData = {
com.hugojourdan.ColorFlow = {
"0" = 0;
"1" = 0;
"10" = 0;
"11" = 0;
"2" = 0;
"3" = 0;
"4" = 0;
"5" = 0;
"6" = 0;
"7" = 0;
"8" = 0;
"9" = 0;
};
};
width = 586;
}
);
unicode = 240;
},
{
glyphname = e;
kernLeft = KO_e;
kernRight = KO_e;
lastChange = "2025-05-28 12:37:31 +0000";
layers = (
{
anchors = (
{
name = bottom;
pos = (216,0);
},
{
name = ogonek;
pos = (357,10);
},
{
name = top;
pos = (332,546);
}
);
layerId = "73572E25-487C-487F-975F-150A505979A5";
shapes = (
{
closed = 1;
nodes = (
(315,-15,o),
(415,20,o),
(475,152,c),
(419,171,l),
(381,80,o),
(309,45,o),
(237,45,cs),
(111,45,o),
(79,121,o),
(114,285,cs),
(147,441,o),
(225,501,o),
(329,501,cs),
(434,501,o),
(472,437,o),
(451,338,cs),
(450,332,o),
(448,324,o),
(446,318,c),
(463,322,l),
(101,322,l),
(89,262,l),
(504,262,l),
(510,292,ls),
(548,470,o),
(480,561,o),
(336,561,cs),
(196,561,o),
(80,450,o),
(46,290,cs),
(6,102,o),
(67,-15,o),
(228,-15,cs)
);
}
);
userData = {
com.hugojourdan.ColorFlow = {
"0" = 0;
"1" = 0;
"10" = 0;
"11" = 0;
"2" = 0;
"3" = 0;
"4" = 0;
"5" = 0;
"6" = 0;
"7" = 0;
"8" = 0;
"9" = 0;
};
};
width = 548;
},
{
anchors = (
{
name = bottom;
pos = (217,0);
},
{
name = ogonek;
pos = (361,10);
},
{
name = top;
pos = (337,560);
}
);
color = 4;
layerId = "66114D67-63CC-4821-8086-0090D571F0A1";
shapes = (
{
closed = 1;
nodes = (
(318,-14,o),
(430,16,o),
(491,156,c),
(376,190,l),
(347,121,o),
(302,97,o),
(247,97,cs),
(160,97,o),
(141,156,o),
(169,293,cs),
(197,421,o),
(249,464,o),
(318,464,cs),
(386,464,o),
(409,419,o),
(395,354,cs),
(393,345,o),
(390,334,o),
(388,326,c),
(415,342,l),
(119,342,l),
(100,251,l),
(516,251,l),
(525,295,ls),
(565,484,o),
(478,575,o),
(330,575,cs),
(185,575,o),
(73,484,o),
(34,298,cs),
(-5,116,o),
(66,-14,o),
(232,-14,cs)
);
}
);
userData = {
com.hugojourdan.ColorFlow = {
"0" = 0;
"1" = 0;
"10" = 0;
"11" = 0;
"2" = 0;
"3" = 0;
"4" = 0;
"5" = 0;
"6" = 0;
"7" = 0;
"8" = 0;
"9" = 0;
};
};
width = 552;
}
);
metricLeft = o;
metricRight = o;
unicode = 101;
},
{
glyphname = f;
kernLeft = KO_f;
kernRight = KO_f;
lastChange = "2025-05-28 12:37:31 +0000";
layers = (
{
anchors = (
{
name = bottom;
pos = (133,0);
},
{
name = top;
pos = (295,760);
}
);
layerId = "73572E25-487C-487F-975F-150A505979A5";
shapes = (
{
closed = 1;
nodes = (
(163,0,l),
(300,643,ls),
(308,682,o),
(327,700,o),
(365,700,cs),
(453,700,l),
(466,760,l),
(380,760,ls),
(298,760,o),
(249,720,o),
(232,641,cs),
(96,0,l)
);
},
{
closed = 1;
nodes = (
(406,486,l),
(419,546,l),
(107,546,l),
(94,486,l)
);
}
);
userData = {
com.hugojourdan.ColorFlow = {
"0" = 0;
"1" = 0;
"10" = 0;
"11" = 0;
"2" = 0;
"3" = 0;
"4" = 0;
"5" = 0;
"6" = 0;
"7" = 0;
"8" = 0;
"9" = 0;
};
};
width = 382;
},
{
anchors = (
{
name = bottom;
pos = (143,0);
},
{
name = top;
pos = (305,762);
}
);
layerId = "66114D67-63CC-4821-8086-0090D571F0A1";
shapes = (
{
closed = 1;
nodes = (
(201,0,l),
(330,608,ls),
(336,633,o),
(350,646,o),
(377,646,cs),
(462,646,l),
(486,760,l),
(383,760,ls),
(269,760,o),
(217,710,o),
(195,602,cs),
(67,0,l)
);
},
{
closed = 1;
nodes = (
(418,446,l),
(442,560,l),
(96,560,l),
(72,446,l)
);
}
);
userData = {
com.hugojourdan.ColorFlow = {
"0" = 0;
"1" = 0;
"10" = 0;
"11" = 0;
"2" = 0;
"3" = 0;
"4" = 0;
"5" = 0;
"6" = 0;
"7" = 0;
"8" = 0;
"9" = 0;
};
};
width = 405;
}
);
unicode = 102;
},
{
glyphname = g;
kernLeft = KO_d;
kernRight = KO_g;
lastChange = "2025-05-28 12:37:31 +0000";
layers = (
{
anchors = (
{
name = bottom;
pos = (203,-220);
},
{
name = top;
pos = (366,546);
}
);
background = {
shapes = (
{
closed = 1;
nodes = (
(343,-220,ls),
(476,-220,o),
(512,-159,o),
(512,-52,cs),
(512,547,l),
(444,547,l),
(444,-57,ls),
(444,-136,o),
(409,-167,o),
(345,-167,cs),
(135,-167,l),
(135,-220,l)
);
},
{
closed = 1;
nodes = (
(367,-15,o),
(450,52,o),
(462,161,c),
(511,273,l),
(462,385,l),
(450,494,o),
(367,561,o),
(276,561,cs),
(156,561,o),
(59,468,o),
(59,273,cs),
(59,78,o),
(156,-15,o),
(276,-15,cs)
);
},
{
closed = 1;
nodes = (
(183,45,o),
(127,128,o),
(127,273,cs),
(127,418,o),
(183,501,o),
(289,501,cs),
(390,501,o),
(444,401,o),
(444,273,cs),
(444,145,o),
(390,45,o),
(289,45,cs)
);
}
);
};
layerId = "73572E25-487C-487F-975F-150A505979A5";
shapes = (
{
closed = 1;
nodes = (
(241,-215,ls),
(374,-215,o),
(423,-154,o),
(446,-47,cs),
(572,547,l),
(504,547,l),
(378,-45,ls),
(362,-124,o),
(320,-155,o),
(256,-155,cs),
(28,-155,l),
(15,-215,l)
);
},
{
closed = 1;
nodes = (
(302,-15,o),
(403,52,o),
(439,161,c),
(512,273,l),
(487,385,l),
(497,494,o),
(424,561,o),
(328,561,cs),
(203,561,o),
(75,470,o),
(35,280,cs),
(-7,80,o),
(81,-15,o),
(206,-15,cs)
);
},
{
closed = 1;
nodes = (
(119,45,o),
(72,128,o),
(103,273,cs),
(134,418,o),
(215,501,o),
(328,501,cs),
(436,501,o),
(472,401,o),
(445,273,cs),
(418,145,o),
(340,45,o),
(232,45,cs)
);
}
);
userData = {
com.hugojourdan.ColorFlow = {
"0" = 0;
"1" = 0;
"10" = 0;
"11" = 0;
"2" = 0;
"3" = 0;
"4" = 0;
"5" = 0;
"6" = 0;
"7" = 0;
"8" = 0;
"9" = 0;
};
};
width = 586;
},
{
anchors = (
{
name = bottom;
pos = (217,-220);
},
{
name = top;
pos = (383,560);
}
);
background = {
shapes = (
{
closed = 1;
nodes = (
(242.28,-215,ls),
(401.785,-215,o),
(460.514,-141,o),
(488.276,-9.34,cs),
(609.348,560.262,l),
(474.785,560.262,l),
(352.701,-14.097,ls),
(339.755,-74,o),
(306.229,-100,o),
(255.525,-99.699,cs),
(32.03,-99.699,l),
(7.522,-215,l)
);
},
{
closed = 1;
nodes = (
(287.296,-15,o),
(373.325,51,o),
(401.089,158.874,c),
(481.474,280.631,l),
(452.664,401.515,l),
(471.101,511,o),
(412.704,575,o),
(319.02,575.388,cs),
(191.704,575,o),
(70.086,478,o),
(27.746,280.631,cs),
(-13.661,84,o),
(65.296,-15,o),
(193.529,-15,cs)
);
},
{
closed = 1;
nodes = (
(171.377,103,o),
(139.619,170,o),
(163.183,280.631,cs),
(186.381,390,o),
(245.835,458,o),
(331.305,457.835,cs),
(413.835,458,o),
(436.106,384,o),
(414.474,280.631,cs),
(392.319,178,o),
(339.377,103,o),
(255.787,102.553,cs)
);
}
);
};
color = 4;
layerId = "66114D67-63CC-4821-8086-0090D571F0A1";
shapes = (
{
closed = 1;
nodes = (
(242,-215,ls),
(402,-215,o),
(461,-141,o),
(488,-9,cs),
(609,560,l),
(475,560,l),
(353,-14,ls),
(340,-74,o),
(306,-100,o),
(256,-100,cs),
(32,-100,l),
(8,-215,l)
);
},
{
closed = 1;
nodes = (
(293,-15,o),
(375,50,o),
(401,159,c),
(481,279,l),
(453,401,l),
(471,508,o),
(410,574,o),
(309,574,cs),
(185,574,o),
(70,486,o),
(29,289,cs),
(-15,83,o),
(70,-15,o),
(193,-15,cs)
);
},
{
closed = 1;
nodes = (
(172,102,o),
(140,169,o),
(163,279,cs),
(187,389,o),
(246,457,o),
(331,457,cs),
(414,457,o),
(436,383,o),
(414,279,cs),
(392,177,o),
(340,102,o),
(256,102,cs)
);
}
);
userData = {
com.hugojourdan.ColorFlow = {
"0" = 0;
"1" = 0;
"10" = 0;
"11" = 0;
"2" = 0;
"3" = 0;
"4" = 0;
"5" = 0;
"6" = 0;
"7" = 0;
"8" = 0;
"9" = 0;
};
};
width = 608;
}
);
metricLeft = q;
metricRight = q;
unicode = 103;
},
{
glyphname = h;
kernLeft = KO_i;
kernRight = KO_n;
lastChange = "2025-05-28 12:37:31 +0000";
layers = (
{
anchors = (
{
name = bottom;
pos = (236,0);
},
{
name = center;
pos = (219,608);
},
{
name = top;
pos = (398,760);
}
);
layerId = "73572E25-487C-487F-975F-150A505979A5";
shapes = (
{
closed = 1;
nodes = (
(460,0,l),
(531,332,ls),
(561,475,o),
(518,561,o),
(369,561,cs),
(268,561,o),
(183,504,o),
(157,401,c),
(144,292,l),
(173,430,o),
(251,501,o),
(355,501,cs),
(450,501,o),
(485,439,o),
(460,321,cs),
(392,0,l)
);
},
{
closed = 1;
nodes = (
(82,0,l),
(244,760,l),
(176,760,l),
(14,0,l)
);
}
);
userData = {
com.hugojourdan.ColorFlow = {
"0" = 0;
"1" = 0;
"10" = 0;
"11" = 0;
"2" = 0;
"3" = 0;
"4" = 0;
"5" = 0;
"6" = 0;
"7" = 0;
"8" = 0;
"9" = 0;
};
};
width = 586;
},
{
anchors = (
{
name = bottom;
pos = (244,0);
},
{
name = center;
pos = (223,609);
},
{
name = top;
pos = (252,762);
}
);
layerId = "66114D67-63CC-4821-8086-0090D571F0A1";
shapes = (
{
closed = 1;
nodes = (
(493,0,l),
(569,359,ls),
(597,491,o),
(554,572,o),
(424,572,cs),
(326,572,o),
(246,518,o),
(221,428,c),
(203,317,l),
(222,408,o),
(276,457,o),
(349,457,cs),
(419,457,o),
(446,415,o),
(428,333,cs),
(357,0,l)
);
},
{
closed = 1;
nodes = (
(136,0,l),
(297,760,l),
(162,760,l),
(0,0,l)
);
}
);
userData = {
com.hugojourdan.ColorFlow = {
"0" = 0;
"1" = 0;
"10" = 0;
"11" = 0;
"2" = 0;
"3" = 0;
"4" = 0;
"5" = 0;
"6" = 0;
"7" = 0;
"8" = 0;
"9" = 0;
};
};
width = 609;
}
);
metricLeft = l;
metricRight = n;
unicode = 104;
userData = {
KernOnName = h;
};
},
{
color = 0;
glyphname = hbar;
kernRight = KO_hbar;
lastChange = "2025-05-28 12:37:31 +0000";
layers = (
{
layerId = "73572E25-487C-487F-975F-150A505979A5";
shapes = (
{
ref = h;
},
{
closed = 1;
nodes = (
(77,675,l),
(65,615,l),
(350,615,l),
(362,675,l)
);
}
);
userData = {
com.hugojourdan.ColorFlow = {
"0" = 0;
"1" = 0;
"10" = 0;
"11" = 0;
"2" = 0;
"3" = 0;
"4" = 0;
"5" = 0;
"6" = 0;
"7" = 0;
"8" = 0;
"9" = 0;
};
};
width = 604;
},
{
layerId = "66114D67-63CC-4821-8086-0090D571F0A1";
shapes = (
{
ref = h;
},
{
closed = 1;
nodes = (
(81,699,l),
(58,591,l),
(355,591,l),
(378,699,l)
);
}
);
userData = {
com.hugojourdan.ColorFlow = {
"0" = 0;
"1" = 0;
"10" = 0;
"11" = 0;
"2" = 0;
"3" = 0;
"4" = 0;
"5" = 0;
"6" = 0;
"7" = 0;
"8" = 0;
"9" = 0;
};
};
width = 615;
}
);
unicode = 295;
},
{
glyphname = idotless;
kernLeft = KO_r;
kernRight = KO_g;
lastChange = "2025-05-28 12:37:31 +0000";
layers = (
{
anchors = (
{
name = bottom;
pos = (48,0);
},
{
name = ogonek;
pos = (95,0);
},
{
name = top;
pos = (164,546);
}
);
layerId = "73572E25-487C-487F-975F-150A505979A5";
shapes = (
{
closed = 1;
nodes = (
(82,0,l),
(198,546,l),
(130,546,l),
(14,0,l)
);
}
);
userData = {
com.hugojourdan.ColorFlow = {
"0" = 0;
"1" = 0;
"10" = 0;
"11" = 0;
"2" = 0;
"3" = 0;
"4" = 0;
"5" = 0;
"6" = 0;
"7" = 0;
"8" = 0;
"9" = 0;
};
};
width = 212;
},
{
anchors = (
{
name = bottom;
pos = (68,0);
},
{
name = ogonek;
pos = (147,0);
},
{
name = top;
pos = (188,560);
}
);
layerId = "66114D67-63CC-4821-8086-0090D571F0A1";
shapes = (
{
closed = 1;
nodes = (
(137,0,l),
(256,560,l),
(120,560,l),
(1,0,l)
);
}
);
userData = {
com.hugojourdan.ColorFlow = {
"0" = 0;
"1" = 0;
"10" = 0;
"11" = 0;
"2" = 0;
"3" = 0;
"4" = 0;
"5" = 0;
"6" = 0;
"7" = 0;
"8" = 0;
"9" = 0;
};
};
width = 257;
}
);
metricLeft = l;
metricRight = "=|";
unicode = 305;
},
{
glyphname = iogonek;
kernLeft = KO_i;
kernRight = KO_i;
lastChange = "2025-05-28 12:37:31 +0000";
layers = (
{
background = {
anchors = (
{
name = _ogonek;
pos = (153,0);
}
);
};
layerId = "73572E25-487C-487F-975F-150A505979A5";
shapes = (
{
ref = idotless;
},
{
pos = (-195,0);
ref = dotaccentcomb;
},
{
closed = 1;
nodes = (
(6,-215,o),
(27,-212,o),
(52,-201,c),
(65,-140,l),
(40,-152,o),
(26,-155,o),
(12,-155,c),
(-17,-155,o),
(-34,-139,o),
(-28,-113,cs),
(-21,-82,o),
(6,-58,o),
(52,-23,cs),
(82,0,l),
(14,0,l),
(-7,-16,ls),
(-54,-50,o),
(-84,-82,o),
(-95,-130,cs),
(-106,-181,o),
(-74,-215,o),
(-19,-215,c)
);
}
);
userData = {
com.hugojourdan.ColorFlow = {
"0" = 0;
"1" = 0;
"10" = 0;
"11" = 0;
"2" = 0;
"3" = 0;
"4" = 0;
"5" = 0;
"6" = 0;
"7" = 0;
"8" = 0;
"9" = 0;
};
};
width = 212;
},
{
layerId = "66114D67-63CC-4821-8086-0090D571F0A1";
shapes = (
{
ref = idotless;
},
{
pos = (-174,0);
ref = dotaccentcomb;
},
{
closed = 1;
nodes = (
(59,-215,o),
(80,-211,o),
(105,-202,c),
(121,-125,l),
(95,-137,o),
(82,-139,o),
(68,-139,c),
(45,-139,o),
(29,-126,o),
(33,-104,cs),
(39,-77,o),
(63,-54,o),
(105,-23,cs),
(136,0,l),
(50,0,l),
(31,-14,ls),
(-19,-49,o),
(-51,-85,o),
(-59,-129,cs),
(-71,-182,o),
(-39,-215,o),
(29,-215,c)
);
}
);
userData = {
com.hugojourdan.ColorFlow = {
"0" = 0;
"1" = 0;
"10" = 0;
"11" = 0;
"2" = 0;
"3" = 0;
"4" = 0;
"5" = 0;
"6" = 0;
"7" = 0;
"8" = 0;
"9" = 0;
};
};
width = 255;
}
);
unicode = 303;
},
{
glyphname = jdotless;
kernLeft = KO_j;
lastChange = "2025-05-28 12:37:31 +0000";
layers = (
{
anchors = (
{
name = bottom;
pos = (4,-220);
},
{
name = top;
pos = (167,546);
}
);
layerId = "73572E25-487C-487F-975F-150A505979A5";
shapes = (
{
closed = 1;
nodes = (
(-75,-215,ls),
(5,-215,o),
(45,-178,o),
(60,-106,cs),
(199,546,l),
(131,546,l),
(-7,-102,ls),
(-15,-141,o),
(-37,-155,o),
(-85,-155,cs),
(-133,-155,l),
(-146,-215,l)
);
}
);
userData = {
com.hugojourdan.ColorFlow = {
"0" = 0;
"1" = 0;
"10" = 0;
"11" = 0;
"2" = 0;
"3" = 0;
"4" = 0;
"5" = 0;
"6" = 0;
"7" = 0;
"8" = 0;
"9" = 0;
};
};
width = 213;
},
{
anchors = (
{
name = bottom;
pos = (27,-220);
},
{
name = top;
pos = (191,552);
}
);
layerId = "66114D67-63CC-4821-8086-0090D571F0A1";
shapes = (
{
closed = 1;
nodes = (
(-60,-215,ls),
(56,-215,o),
(107,-164,o),
(128,-63,cs),
(260,560,l),
(126,560,l),
(-3,-46,ls),
(-11,-84,o),
(-31,-100,o),
(-72,-100,cs),
(-114,-100,l),
(-139,-215,l)
);
}
);
userData = {
com.hugojourdan.ColorFlow = {
"0" = 0;
"1" = 0;
"10" = 0;
"11" = 0;
"2" = 0;
"3" = 0;
"4" = 0;
"5" = 0;
"6" = 0;
"7" = 0;
"8" = 0;
"9" = 0;
};
};
width = 261;
}
);
metricRight = idotless;
unicode = 567;
},
{
glyphname = k;
kernLeft = KO_i;
kernRight = KO_k;
lastChange = "2025-05-28 12:37:31 +0000";
layers = (
{
anchors = (
{
name = bottom;
pos = (206,0);
},
{
name = top;
pos = (211,760);
}
);
layerId = "73572E25-487C-487F-975F-150A505979A5";
shapes = (
{
closed = 1;
nodes = (
(428,0,l),
(206,300,l),
(211,286,l),
(523,546,l),
(429,546,l),
(118,284,l),
(125,295,l),
(344,0,l)
);
},
{
closed = 1;
nodes = (
(82,0,l),
(244,760,l),
(176,760,l),
(14,0,l)
);
}
);
userData = {
com.hugojourdan.ColorFlow = {
"0" = 0;
"1" = 0;
"10" = 0;
"11" = 0;
"2" = 0;
"3" = 0;
"4" = 0;
"5" = 0;
"6" = 0;
"7" = 0;
"8" = 0;
"9" = 0;
};
};
width = 521;
},
{
anchors = (
{
name = bottom;
pos = (229,0);
},
{
name = top;
pos = (247,762);
}
);
layerId = "66114D67-63CC-4821-8086-0090D571F0A1";
shapes = (
{
closed = 1;
nodes = (
(493,0,l),
(315,319,l),
(312,301,l),
(586,560,l),
(422,560,l),
(162,300,l),
(168,311,l),
(326,0,l)
);
},
{
closed = 1;
nodes = (
(136,0,l),
(297,760,l),
(162,760,l),
(0,0,l)
);
}
);
userData = {
com.hugojourdan.ColorFlow = {
"0" = 0;
"1" = 0;
"10" = 0;
"11" = 0;
"2" = 0;
"3" = 0;
"4" = 0;
"5" = 0;
"6" = 0;
"7" = 0;
"8" = 0;
"9" = 0;
};
};
width = 570;
}
);
metricLeft = l;
unicode = 107;
userData = {
KernOnName = k;
};
},
{
color = 2;
glyphname = l;
kernLeft = KO_l;
kernRight = KO_l;
lastChange = "2025-05-28 12:37:31 +0000";
layers = (
{
anchors = (
{
name = bottom;
pos = (72,0);
},
{
name = center;
pos = (130,273);
},
{
name = top;
pos = (234,760);
},
{
name = topright;
pos = (342,760);
}
);
layerId = "73572E25-487C-487F-975F-150A505979A5";
shapes = (
{
closed = 1;
nodes = (
(170,0,l),
(181,53,l),
(137,53,ls),
(108,53,o),
(96,69,o),
(102,98,cs),
(243,760,l),
(176,760,l),
(37,108,ls),
(22,39,o),
(53,0,o),
(123,0,cs)
);
}
);
userData = {
com.hugojourdan.ColorFlow = {
"0" = 0;
"1" = 0;
"10" = 0;
"11" = 0;
"2" = 0;
"3" = 0;
"4" = 0;
"5" = 0;
"6" = 0;
"7" = 0;
"8" = 0;
"9" = 0;
};
};
width = 260;
},
{
anchors = (
{
name = bottom;
pos = (90,0);
},
{
name = center;
pos = (150,281);
},
{
name = top;
pos = (231,759);
},
{
name = topright;
pos = (385,759);
}
);
layerId = "66114D67-63CC-4821-8086-0090D571F0A1";
shapes = (
{
closed = 1;
nodes = (
(224,0,l),
(248,110,l),
(205,110,ls),
(177,110,o),
(163,126,o),
(169,155,cs),
(298,760,l),
(162,760,l),
(30,140,ls),
(11,51,o),
(49,0,o),
(140,0,cs)
);
}
);
userData = {
com.hugojourdan.ColorFlow = {
"0" = 0;
"1" = 0;
"10" = 0;
"11" = 0;
"2" = 0;
"3" = 0;
"4" = 0;
"5" = 0;
"6" = 0;
"7" = 0;
"8" = 0;
"9" = 0;
};
};
width = 306;
}
);
unicode = 108;
userData = {
KernOnName = l;
};
},
{
color = 2;
glyphname = lslash;
kernLeft = KO_lslash;
kernRight = KO_lslash;
lastChange = "2025-05-28 12:37:31 +0000";
layers = (
{
anchors = (
{
name = bottom;
pos = (66,0);
},
{
name = center;
pos = (124,273);
},
{
name = top;
pos = (225,750);
},
{
name = topright;
pos = (327,750);
}
);
layerId = "73572E25-487C-487F-975F-150A505979A5";
shapes = (
{
closed = 1;
nodes = (
(176,0,l),
(187,53,l),
(143,53,ls),
(114,53,o),
(102,69,o),
(108,98,cs),
(251,772,l),
(184,772,l),
(43,108,ls),
(28,39,o),
(59,0,o),
(129,0,cs)
);
},
{
closed = 1;
nodes = (
(284,436,l),
(260,496,l),
(-7,353,l),
(16,293,l)
);
}
);
userData = {
com.hugojourdan.ColorFlow = {
"0" = 0;
"1" = 0;
"10" = 0;
"11" = 0;
"2" = 0;
"3" = 0;
"4" = 0;
"5" = 0;
"6" = 0;
"7" = 0;
"8" = 0;
"9" = 0;
};
};
width = 248;
},
{
anchors = (
{
name = bottom;
pos = (113,0);
},
{
name = center;
pos = (173,281);
},
{
name = top;
pos = (273,750);
},
{
name = topright;
pos = (424,750);
}
);
layerId = "66114D67-63CC-4821-8086-0090D571F0A1";
shapes = (
{
closed = 1;
nodes = (
(244,0,l),
(268,110,l),
(207,110,ls),
(180,110,o),
(166,126,o),
(172,155,cs),
(299,754,l),
(163,754,l),
(32,139,ls),
(13,51,o),
(52,0,o),
(142,0,cs)
);
},
{
closed = 1;
nodes = (
(358,447,l),
(321,549,l),
(-36,364,l),
(2,261,l)
);
}
);
userData = {
com.hugojourdan.ColorFlow = {
"0" = 0;
"1" = 0;
"10" = 0;
"11" = 0;
"2" = 0;
"3" = 0;
"4" = 0;
"5" = 0;
"6" = 0;
"7" = 0;
"8" = 0;
"9" = 0;
};
};
width = 345;
}
);
unicode = 322;
},
{
glyphname = m;
kernLeft = KO_r;
kernRight = KO_a;
lastChange = "2025-05-28 12:37:31 +0000";
layers = (
{
anchors = (
{
name = bottom;
pos = (354,0);
},
{
name = top;
pos = (470,546);
}
);
background = {
shapes = (
{
closed = 1;
nodes = (
(441,0,l),
(441,397,ls),
(441,506,o),
(385,561,o),
(276,561,cs),
(198,561,o),
(137,515,o),
(124,445,c),
(141,376,l),
(141,457,o),
(189,508,o),
(266,508,cs),
(336,508,o),
(374,465,o),
(374,386,cs),
(374,0,l)
);
}
);
};
layerId = "73572E25-487C-487F-975F-150A505979A5";
shapes = (
{
closed = 1;
nodes = (
(688,0,l),
(770,387,ls),
(795,502,o),
(748,561,o),
(632,561,cs),
(545,561,o),
(479,510,o),
(450,428,c),
(463,366,l),
(482,458,o),
(539,508,o),
(618,508,cs),
(690,508,o),
(719,462,o),
(701,376,cs),
(621,0,l)
);
},
{
closed = 1;
nodes = (
(82,0,l),
(198,547,l),
(130,547,l),
(14,0,l)
);
},
{
closed = 1;
nodes = (
(385,0,l),
(467,387,ls),
(492,502,o),
(445,561,o),
(329,561,cs),
(239,561,o),
(175,507,o),
(159,428,c),
(160,366,l),
(179,458,o),
(236,508,o),
(315,508,cs),
(387,508,o),
(416,462,o),
(398,376,cs),
(318,0,l)
);
}
);
userData = {
com.hugojourdan.ColorFlow = {
"0" = 0;
"1" = 0;
"10" = 0;
"11" = 0;
"2" = 0;
"3" = 0;
"4" = 0;
"5" = 0;
"6" = 0;
"7" = 0;
"8" = 0;
"9" = 0;
};
};
width = 814;
},
{
anchors = (
{
name = bottom;
pos = (384,0);
},
{
name = top;
pos = (504,560);
}
);
layerId = "66114D67-63CC-4821-8086-0090D571F0A1";
shapes = (
{
closed = 1;
nodes = (
(761,0,l),
(841,376,ls),
(870,511,o),
(821,575,o),
(712,575,cs),
(625,575,o),
(555,523,o),
(527,450,c),
(524,357,l),
(538,423,o),
(582,460,o),
(638,460,cs),
(693,460,o),
(717,425,o),
(702,354,cs),
(627,0,l)
);
},
{
closed = 1;
nodes = (
(137,0,l),
(256,560,l),
(120,560,l),
(1,0,l)
);
},
{
closed = 1;
nodes = (
(449,0,l),
(528,376,ls),
(557,511,o),
(512,575,o),
(407,575,cs),
(316,575,o),
(244,519,o),
(226,448,c),
(212,357,l),
(226,423,o),
(269,460,o),
(325,460,cs),
(381,460,o),
(404,425,o),
(389,354,cs),
(314,0,l)
);
}
);
userData = {
com.hugojourdan.ColorFlow = {
"0" = 0;
"1" = 0;
"10" = 0;
"11" = 0;
"2" = 0;
"3" = 0;
"4" = 0;
"5" = 0;
"6" = 0;
"7" = 0;
"8" = 0;
"9" = 0;
};
};
width = 877;
}
);
metricLeft = l;
metricRight = n;
unicode = 109;
userData = {
KernOnName = m;
};
},
{
glyphname = n;
kernLeft = KO_r;
kernRight = KO_n;
lastChange = "2025-05-28 12:37:31 +0000";
layers = (
{
anchors = (
{
name = bottom;
pos = (225,0);
},
{
name = top;
pos = (341,546);
}
);
layerId = "73572E25-487C-487F-975F-150A505979A5";
shapes = (
{
closed = 1;
nodes = (
(460,0,l),
(530,330,ls),
(559,465,o),
(517,561,o),
(361,561,cs),
(268,561,o),
(183,504,o),
(157,401,c),
(144,292,l),
(173,430,o),
(251,501,o),
(355,501,cs),
(450,501,o),
(485,439,o),
(460,321,cs),
(392,0,l)
);
},
{
closed = 1;
nodes = (
(82,0,l),
(198,547,l),
(130,547,l),
(14,0,l)
);
}
);
userData = {
com.hugojourdan.ColorFlow = {
"0" = 0;
"1" = 0;
"10" = 0;
"11" = 0;
"2" = 0;
"3" = 0;
"4" = 0;
"5" = 0;
"6" = 0;
"7" = 0;
"8" = 0;
"9" = 0;
};
};
width = 586;
},
{
anchors = (
{
name = bottom;
pos = (236,0);
},
{
name = top;
pos = (356,560);
}
);
layerId = "66114D67-63CC-4821-8086-0090D571F0A1";
shapes = (
{
closed = 1;
nodes = (
(494,0,l),
(570,359,ls),
(598,491,o),
(555,572,o),
(425,572,cs),
(327,572,o),
(247,518,o),
(222,428,c),
(204,317,l),
(223,408,o),
(277,457,o),
(350,457,cs),
(420,457,o),
(447,415,o),
(429,333,cs),
(358,0,l)
);
},
{
closed = 1;
nodes = (
(137,0,l),
(256,560,l),
(120,560,l),
(1,0,l)
);
}
);
userData = {
com.hugojourdan.ColorFlow = {
"0" = 0;
"1" = 0;
"10" = 0;
"11" = 0;
"2" = 0;
"3" = 0;
"4" = 0;
"5" = 0;
"6" = 0;
"7" = 0;
"8" = 0;
"9" = 0;
};
};
width = 609;
}
);
metricLeft = l;
metricRight = "=|*.95";
unicode = 110;
userData = {
KernOnName = n;
};
},
{
color = 0;
glyphname = eng;
kernLeft = KO_r;
kernRight = KO_n;
lastChange = "2025-05-28 12:37:31 +0000";
layers = (
{
anchors = (
{
name = bottom;
pos = (201,-200);
},
{
name = top;
pos = (360,546);
}
);
layerId = "73572E25-487C-487F-975F-150A505979A5";
shapes = (
{
closed = 1;
nodes = (
(302,-215,ls),
(382,-215,o),
(422,-178,o),
(437,-106,cs),
(512,246,l),
(444,246,l),
(370,-102,ls),
(362,-141,o),
(340,-155,o),
(292,-155,cs),
(244,-155,l),
(231,-215,l)
);
},
{
ref = n;
}
);
userData = {
com.hugojourdan.ColorFlow = {
"0" = 0;
"1" = 0;
"10" = 0;
"11" = 0;
"2" = 0;
"3" = 0;
"4" = 0;
"5" = 0;
"6" = 0;
"7" = 0;
"8" = 0;
"9" = 0;
};
};
width = 586;
},
{
anchors = (
{
name = bottom;
pos = (261,-213);
},
{
name = top;
pos = (426,560);
}
);
layerId = "66114D67-63CC-4821-8086-0090D571F0A1";
shapes = (
{
closed = 1;
nodes = (
(291,-215,ls),
(406,-215,o),
(458,-164,o),
(479,-64,cs),
(535,201,l),
(400,201,l),
(347,-46,ls),
(339,-85,o),
(320,-100,o),
(279,-100,cs),
(235,-100,l),
(211,-215,l)
);
},
{
alignment = -1;
ref = n;
}
);
userData = {
com.hugojourdan.ColorFlow = {
"0" = 0;
"1" = 0;
"10" = 0;
"11" = 0;
"2" = 0;
"3" = 0;
"4" = 0;
"5" = 0;
"6" = 0;
"7" = 0;
"8" = 0;
"9" = 0;
};
};
width = 609;
}
);
metricLeft = n;
metricRight = n;
unicode = 331;
},
{
glyphname = o;
kernLeft = KO_e;
kernRight = KO_o;
lastChange = "2025-05-28 12:37:31 +0000";
layers = (
{
anchors = (
{
name = bottom;
pos = (227,0);
},
{
name = center;
pos = (285,273);
},
{
name = ogonek;
pos = (455,10);
},
{
name = top;
pos = (343,546);
},
{
name = topright;
pos = (605,546);
}
);
background = {
shapes = (
{
closed = 1;
nodes = (
(426,-15,o),
(516,97,o),
(516,273,cs),
(516,449,o),
(426,561,o),
(283,561,cs),
(141,561,o),
(49,449,o),
(49,273,cs),
(49,97,o),
(141,-15,o),
(283,-15,c)
);
},
{
closed = 1;
nodes = (
(179,45,o),
(119,137,o),
(119,273,cs),
(119,409,o),
(173,501,o),
(283,501,cs),
(393,501,o),
(446,409,o),
(446,273,cs),
(446,137,o),
(393,45,o),
(283,45,c)
);
}
);
};
layerId = "73572E25-487C-487F-975F-150A505979A5";
shapes = (
{
closed = 1;
nodes = (
(388,-15,o),
(490,97,o),
(525,263,cs),
(564,449,o),
(496,561,o),
(344,561,cs),
(189,561,o),
(79,449,o),
(44,283,cs),
(5,97,o),
(79,-15,o),
(237,-15,c)
);
},
{
closed = 1;
nodes = (
(127,45,o),
(83,137,o),
(112,273,cs),
(141,409,o),
(217,501,o),
(333,501,cs),
(449,501,o),
(486,409,o),
(457,273,cs),
(428,137,o),
(353,45,o),
(237,45,c)
);
}
);
userData = {
com.hugojourdan.ColorFlow = {
"0" = 0;
"1" = 0;
"10" = 0;
"11" = 0;
"2" = 0;
"3" = 0;
"4" = 0;
"5" = 0;
"6" = 0;
"7" = 0;
"8" = 0;
"9" = 0;
};
};
width = 569;
},
{
anchors = (
{
name = bottom;
pos = (230,0);
},
{
name = center;
pos = (289,276);
},
{
name = ogonek;
pos = (463,10);
},
{
name = top;
pos = (348,552);
},
{
name = topright;
pos = (616,552);
}
);
layerId = "66114D67-63CC-4821-8086-0090D571F0A1";
shapes = (
{
closed = 1;
nodes = (
(397,-15,o),
(510,97,o),
(547,271,cs),
(584,446,o),
(515,575,o),
(343,575,cs),
(184,575,o),
(70,466,o),
(32,290,cs),
(-5,117,o),
(65,-15,o),
(237,-15,c)
);
},
{
closed = 1;
nodes = (
(176,100,o),
(141,160,o),
(167,281,cs),
(193,400,o),
(246,460,o),
(328,460,cs),
(408,460,o),
(438,401,o),
(412,281,cs),
(387,161,o),
(333,100,o),
(252,100,c)
);
}
);
userData = {
com.hugojourdan.ColorFlow = {
"0" = 0;
"1" = 0;
"10" = 0;
"11" = 0;
"2" = 0;
"3" = 0;
"4" = 0;
"5" = 0;
"6" = 0;
"7" = 0;
"8" = 0;
"9" = 0;
};
};
width = 579;
}
);
metricRight = "=|";
unicode = 111;
userData = {
KernOnName = o;
};
},
{
color = 0;
glyphname = oslash;
kernLeft = KO_oslash;
kernRight = KO_oslash;
lastChange = "2025-05-28 12:37:31 +0000";
layers = (
{
background = {
shapes = (
{
attr = {
strokeHeight = 65;
strokeWidth = 65;
};
closed = 1;
nodes = (
(484,538,l),
(24,18,l)
);
},
{
pos = (-29,0);
ref = o;
}
);
};
layerId = "73572E25-487C-487F-975F-150A505979A5";
shapes = (
{
closed = 1;
nodes = (
(591,516,l),
(552,560,l),
(-19,40,l),
(20,-4,l)
);
},
{
ref = o;
}
);
userData = {
com.hugojourdan.ColorFlow = {
"0" = 0;
"1" = 0;
"10" = 0;
"11" = 0;
"2" = 0;
"3" = 0;
"4" = 0;
"5" = 0;
"6" = 0;
"7" = 0;
"8" = 0;
"9" = 0;
};
};
width = 482;
},
{
layerId = "66114D67-63CC-4821-8086-0090D571F0A1";
shapes = (
{
closed = 1;
nodes = (
(607,505,l),
(544,574,l),
(-26,55,l),
(36,-13,l)
);
},
{
ref = o;
}
);
userData = {
com.hugojourdan.ColorFlow = {
"0" = 0;
"1" = 0;
"10" = 0;
"11" = 0;
"2" = 0;
"3" = 0;
"4" = 0;
"5" = 0;
"6" = 0;
"7" = 0;
"8" = 0;
"9" = 0;
};
};
width = 579;
}
);
unicode = 248;
},
{
color = 0;
glyphname = oe;
kernLeft = KO_e;
kernRight = KO_e;
lastChange = "2025-05-28 12:37:31 +0000";
layers = (
{
anchors = (
{
name = bottom;
pos = (424,0);
},
{
name = top;
pos = (540,546);
}
);
background = {
shapes = (
{
ref = o;
},
{
alignment = -1;
pos = (415,0);
ref = e;
}
);
};
layerId = "73572E25-487C-487F-975F-150A505979A5";
shapes = (
{
closed = 1;
nodes = (
(378,-15,o),
(484,97,o),
(521,273,cs),
(558,449,o),
(492,561,o),
(346,561,cs),
(193,561,o),
(81,455,o),
(45,285,cs),
(6,103,o),
(79,-15,o),
(226,-15,c)
);
},
{
closed = 1;
nodes = (
(127,45,o),
(83,137,o),
(112,273,cs),
(141,409,o),
(217,501,o),
(333,501,cs),
(449,501,o),
(486,409,o),
(457,273,cs),
(428,137,o),
(353,45,o),
(237,45,c)
);
},
{
closed = 1;
nodes = (
(724,-15,o),
(824,12,o),
(890,152,c),
(834,169,l),
(796,80,o),
(724,45,o),
(652,45,cs),
(526,45,o),
(494,121,o),
(529,285,cs),
(562,441,o),
(640,501,o),
(744,501,cs),
(849,501,o),
(887,437,o),
(866,338,cs),
(865,332,o),
(863,324,o),
(861,318,c),
(878,322,l),
(516,322,l),
(504,262,l),
(919,262,l),
(925,292,ls),
(963,470,o),
(894,561,o),
(757,561,cs),
(609,561,o),
(501,450,o),
(464,280,cs),
(427,102,o),
(480,-15,o),
(640,-15,cs)
);
}
);
userData = {
com.hugojourdan.ColorFlow = {
"0" = 0;
"1" = 0;
"10" = 0;
"11" = 0;
"2" = 0;
"3" = 0;
"4" = 0;
"5" = 0;
"6" = 0;
"7" = 0;
"8" = 0;
"9" = 0;
};
};
width = 963;
},
{
anchors = (
{
name = bottom;
pos = (409,0);
},
{
name = top;
pos = (529,560);
}
);
layerId = "66114D67-63CC-4821-8086-0090D571F0A1";
shapes = (
{
closed = 1;
nodes = (
(406,-15,o),
(501,107,o),
(538,281,cs),
(575,456,o),
(518,575,o),
(334,575,cs),
(180,575,o),
(70,465,o),
(33,292,cs),
(-4,116,o),
(69,-15,o),
(248,-15,c)
);
},
{
closed = 1;
nodes = (
(177,100,o),
(142,160,o),
(168,281,cs),
(194,400,o),
(247,460,o),
(329,460,cs),
(409,460,o),
(439,401,o),
(413,281,cs),
(388,161,o),
(334,100,o),
(253,100,c)
);
},
{
closed = 1;
nodes = (
(709,-14,o),
(816,16,o),
(874,156,c),
(759,190,l),
(730,119,o),
(686,97,o),
(630,97,cs),
(544,97,o),
(524,156,o),
(553,293,cs),
(580,421,o),
(632,464,o),
(701,464,cs),
(769,464,o),
(793,419,o),
(778,354,cs),
(777,345,o),
(774,334,o),
(771,326,c),
(798,342,l),
(503,342,l),
(483,251,l),
(900,251,l),
(909,295,ls),
(949,484,o),
(860,575,o),
(720,575,cs),
(563,575,o),
(464,464,o),
(427,287,cs),
(388,106,o),
(447,-14,o),
(625,-14,cs)
);
}
);
userData = {
com.hugojourdan.ColorFlow = {
"0" = 0;
"1" = 0;
"10" = 0;
"11" = 0;
"2" = 0;
"3" = 0;
"4" = 0;
"5" = 0;
"6" = 0;
"7" = 0;
"8" = 0;
"9" = 0;
};
};
width = 936;
}
);
metricLeft = o;
metricRight = e;
unicode = 339;
},
{
glyphname = p;
kernLeft = KO_r;
kernRight = KO_o;
lastChange = "2025-05-28 12:37:31 +0000";
layers = (
{
anchors = (
{
name = bottom;
pos = (236,0);
},
{
name = top;
pos = (352,546);
}
);
layerId = "73572E25-487C-487F-975F-150A505979A5";
shapes = (
{
closed = 1;
nodes = (
(388,-15,o),
(510,75,o),
(550,263,cs),
(593,464,o),
(500,561,o),
(369,561,cs),
(277,561,o),
(180,494,o),
(146,385,c),
(73,273,l),
(98,161,l),
(88,52,o),
(165,-15,o),
(267,-15,cs)
);
},
{
closed = 1;
nodes = (
(35,-215,l),
(116,165,l),
(162,382,l),
(197,547,l),
(130,547,l),
(-32,-215,l)
);
},
{
closed = 1;
nodes = (
(150,45,o),
(114,150,o),
(142,283,cs),
(168,406,o),
(247,501,o),
(354,501,cs),
(467,501,o),
(513,418,o),
(482,273,cs),
(451,128,o),
(370,45,o),
(257,45,cs)
);
}
);
userData = {
com.hugojourdan.ColorFlow = {
"0" = 0;
"1" = 0;
"10" = 0;
"11" = 0;
"2" = 0;
"3" = 0;
"4" = 0;
"5" = 0;
"6" = 0;
"7" = 0;
"8" = 0;
"9" = 0;
};
};
width = 594;
},
{
anchors = (
{
name = bottom;
pos = (246,0);
},
{
name = top;
pos = (366,560);
}
);
layerId = "66114D67-63CC-4821-8086-0090D571F0A1";
shapes = (
{
closed = 1;
nodes = (
(418,-15,o),
(541,84,o),
(584,281,cs),
(625,478,o),
(543,575,o),
(417,575,cs),
(322,575,o),
(237,512,o),
(208,402,c),
(129,281,l),
(157,159,l),
(139,49,o),
(196,-15,o),
(291,-15,cs)
);
},
{
closed = 1;
nodes = (
(90,-215,l),
(171,169,l),
(219,392,l),
(255,560,l),
(120,560,l),
(-45,-215,l)
);
},
{
closed = 1;
nodes = (
(195,103,o),
(174,178,o),
(196,281,cs),
(218,384,o),
(272,458,o),
(354,458,cs),
(440,458,o),
(470,390,o),
(447,281,cs),
(424,170,o),
(363,103,o),
(279,103,cs)
);
}
);
userData = {
com.hugojourdan.ColorFlow = {
"0" = 0;
"1" = 0;
"10" = 0;
"11" = 0;
"2" = 0;
"3" = 0;
"4" = 0;
"5" = 0;
"6" = 0;
"7" = 0;
"8" = 0;
"9" = 0;
};
};
width = 614;
}
);
metricLeft = l;
metricRight = o;
unicode = 112;
},
{
color = 0;
glyphname = thorn;
kernLeft = KO_i;
kernRight = KO_o;
lastChange = "2025-05-28 12:37:31 +0000";
layers = (
{
anchors = (
{
name = bottom;
pos = (-91,0);
},
{
name = top;
pos = (25,546);
}
);
layerId = "73572E25-487C-487F-975F-150A505979A5";
shapes = (
{
closed = 1;
nodes = (
(388,-15,o),
(510,75,o),
(550,263,cs),
(593,464,o),
(500,561,o),
(369,561,cs),
(277,561,o),
(180,494,o),
(146,385,c),
(73,273,l),
(98,161,l),
(88,52,o),
(165,-15,o),
(267,-15,cs)
);
},
{
closed = 1;
nodes = (
(35,-215,l),
(116,165,l),
(162,382,l),
(243,760,l),
(176,760,l),
(-32,-215,l)
);
},
{
closed = 1;
nodes = (
(150,45,o),
(114,150,o),
(142,283,cs),
(168,406,o),
(247,501,o),
(354,501,cs),
(467,501,o),
(513,418,o),
(482,273,cs),
(451,128,o),
(370,45,o),
(257,45,cs)
);
}
);
userData = {
com.hugojourdan.ColorFlow = {
"0" = 0;
"1" = 0;
"10" = 0;
"11" = 0;
"2" = 0;
"3" = 0;
"4" = 0;
"5" = 0;
"6" = 0;
"7" = 0;
"8" = 0;
"9" = 0;
};
};
width = 594;
},
{
anchors = (
{
name = bottom;
pos = (134,0);
},
{
name = top;
pos = (254,560);
}
);
layerId = "66114D67-63CC-4821-8086-0090D571F0A1";
shapes = (
{
closed = 1;
nodes = (
(418,-15,o),
(541,84,o),
(584,281,cs),
(625,478,o),
(543,575,o),
(417,575,cs),
(322,575,o),
(237,512,o),
(208,402,c),
(129,281,l),
(157,159,l),
(139,49,o),
(196,-15,o),
(291,-15,cs)
);
},
{
closed = 1;
nodes = (
(90,-215,l),
(172,169,l),
(219,392,l),
(297,760,l),
(163,760,l),
(-45,-215,l)
);
},
{
closed = 1;
nodes = (
(195,103,o),
(174,178,o),
(196,281,cs),
(218,384,o),
(272,458,o),
(354,458,cs),
(440,458,o),
(470,390,o),
(447,281,cs),
(424,170,o),
(363,103,o),
(279,103,cs)
);
}
);
userData = {
com.hugojourdan.ColorFlow = {
"0" = 0;
"1" = 0;
"10" = 0;
"11" = 0;
"2" = 0;
"3" = 0;
"4" = 0;
"5" = 0;
"6" = 0;
"7" = 0;
"8" = 0;
"9" = 0;
};
};
width = 614;
}
);
metricLeft = p;
metricRight = p;
unicode = 254;
},
{
glyphname = q;
kernLeft = KO_d;
kernRight = KO_g;
lastChange = "2025-05-28 12:37:31 +0000";
layers = (
{
anchors = (
{
name = bottom;
pos = (243,0);
},
{
name = top;
pos = (359,546);
}
);
background = {
shapes = (
{
closed = 1;
nodes = (
(366,-15,o),
(449,52,o),
(461,161,c),
(510,273,l),
(461,385,l),
(449,494,o),
(366,561,o),
(275,561,cs),
(155,561,o),
(58,468,o),
(58,273,cs),
(58,78,o),
(155,-15,o),
(275,-15,cs)
);
},
{
closed = 1;
nodes = (
(182,45,o),
(126,128,o),
(126,273,cs),
(126,418,o),
(182,501,o),
(288,501,cs),
(389,501,o),
(443,401,o),
(443,273,cs),
(443,145,o),
(389,45,o),
(288,45,cs)
);
},
{
closed = 1;
nodes = (
(510,-220,l),
(510,547,l),
(443,547,l),
(443,382,l),
(443,165,l),
(443,-220,l)
);
}
);
};
layerId = "73572E25-487C-487F-975F-150A505979A5";
shapes = (
{
closed = 1;
nodes = (
(305,-15,o),
(403,52,o),
(438,161,c),
(511,273,l),
(486,385,l),
(496,494,o),
(419,561,o),
(317,561,cs),
(197,561,o),
(77,475,o),
(38,293,cs),
(-6,85,o),
(83,-15,o),
(212,-15,cs)
);
},
{
closed = 1;
nodes = (
(118,45,o),
(71,128,o),
(104,283,cs),
(133,418,o),
(214,501,o),
(327,501,cs),
(435,501,o),
(471,401,o),
(440,254,cs),
(417,145,o),
(339,45,o),
(231,45,cs)
);
},
{
closed = 1;
nodes = (
(408,-215,l),
(570,547,l),
(503,547,l),
(468,382,l),
(422,165,l),
(341,-215,l)
);
}
);
userData = {
com.hugojourdan.ColorFlow = {
"0" = 0;
"1" = 0;
"10" = 0;
"11" = 0;
"2" = 0;
"3" = 0;
"4" = 0;
"5" = 0;
"6" = 0;
"7" = 0;
"8" = 0;
"9" = 0;
};
};
width = 584;
},
{
anchors = (
{
name = bottom;
pos = (262,0);
},
{
name = top;
pos = (382,560);
}
);
layerId = "66114D67-63CC-4821-8086-0090D571F0A1";
shapes = (
{
closed = 1;
nodes = (
(293,-15,o),
(375,50,o),
(401,159,c),
(481,279,l),
(453,401,l),
(471,508,o),
(410,574,o),
(309,574,cs),
(185,574,o),
(70,486,o),
(29,289,cs),
(-15,83,o),
(70,-15,o),
(193,-15,cs)
);
},
{
closed = 1;
nodes = (
(172,102,o),
(140,169,o),
(163,279,cs),
(187,389,o),
(246,457,o),
(331,457,cs),
(414,457,o),
(436,383,o),
(414,279,cs),
(392,177,o),
(340,102,o),
(256,102,cs)
);
},
{
closed = 1;
nodes = (
(446,-215,l),
(611,560,l),
(477,560,l),
(441,392,l),
(394,169,l),
(312,-215,l)
);
}
);
userData = {
com.hugojourdan.ColorFlow = {
"0" = 0;
"1" = 0;
"10" = 0;
"11" = 0;
"2" = 0;
"3" = 0;
"4" = 0;
"5" = 0;
"6" = 0;
"7" = 0;
"8" = 0;
"9" = 0;
};
};
width = 610;
}
);
metricLeft = d;
metricRight = d;
unicode = 113;
},
{
glyphname = r;
kernLeft = KO_r;
kernRight = KO_r;
lastChange = "2025-05-28 12:37:31 +0000";
layers = (
{
anchors = (
{
name = bottom;
pos = (111,0);
},
{
name = top;
pos = (227,546);
}
);
layerId = "73572E25-487C-487F-975F-150A505979A5";
shapes = (
{
attr = {
identifier = ID0x7f82b2a65eb0;
};
closed = 1;
nodes = (
(82,0,l),
(198,546,l),
(130,546,l),
(14,0,l)
);
},
{
attr = {
identifier = ID0x7f82b2a65eb0;
};
closed = 1;
nodes = (
(177,447,o),
(216,483,o),
(312,483,cs),
(359,483,l),
(372,548,l),
(325,548,ls),
(236,548,o),
(184,508,o),
(159,416,c),
(156,346,l)
);
}
);
userData = {
com.hugojourdan.ColorFlow = {
"0" = 0;
"1" = 0;
"10" = 0;
"11" = 0;
"2" = 0;
"3" = 0;
"4" = 0;
"5" = 0;
"6" = 0;
"7" = 0;
"8" = 0;
"9" = 0;
};
};
width = 344;
},
{
anchors = (
{
name = bottom;
pos = (139,0);
},
{
name = top;
pos = (259,560);
}
);
layerId = "66114D67-63CC-4821-8086-0090D571F0A1";
shapes = (
{
attr = {
identifier = ID0x7f82b2a65eb0;
};
closed = 1;
nodes = (
(137,0,l),
(256,560,l),
(120,560,l),
(1,0,l)
);
},
{
attr = {
identifier = ID0x7f82b2a65eb0;
};
closed = 1;
nodes = (
(220,392,o),
(259,432,o),
(345,432,cs),
(407,432,l),
(434,563,l),
(384,563,ls),
(301,563,o),
(253,522,o),
(225,436,c),
(196,279,l)
);
}
);
userData = {
com.hugojourdan.ColorFlow = {
"0" = 0;
"1" = 0;
"10" = 0;
"11" = 0;
"2" = 0;
"3" = 0;
"4" = 0;
"5" = 0;
"6" = 0;
"7" = 0;
"8" = 0;
"9" = 0;
};
};
width = 393;
}
);
metricLeft = n;
unicode = 114;
userData = {
KernOnName = r;
};
},
{
glyphname = s;
kernLeft = KO_s;
kernRight = KO_s;
lastChange = "2025-05-28 12:37:31 +0000";
layers = (
{
anchors = (
{
name = bottom;
pos = (179,0);
},
{
name = top;
pos = (295,546);
}
);
layerId = "73572E25-487C-487F-975F-150A505979A5";
shapes = (
{
attr = {
identifier = ID0x7faff9e44910;
};
closed = 1;
nodes = (
(317,-15,o),
(397,34,o),
(416,122,cs),
(436,217,o),
(376,278,o),
(266,308,cs),
(174,333,o),
(149,372,o),
(161,429,cs),
(171,475,o),
(220,501,o),
(278,501,cs),
(348,501,o),
(400,477,o),
(399,393,c),
(464,409,l),
(467,520,o),
(393,561,o),
(286,561,cs),
(187,561,o),
(111,511,o),
(94,435,cs),
(77,351,o),
(118,284,o),
(217,257,cs),
(325,228,o),
(364,192,o),
(350,125,cs),
(340,78,o),
(278,45,o),
(203,45,cs),
(124,45,o),
(69,86,o),
(72,152,c),
(7,140,l),
(6,41,o),
(76,-15,o),
(205,-15,cs)
);
}
);
userData = {
com.hugojourdan.ColorFlow = {
"0" = 0;
"1" = 0;
"10" = 0;
"11" = 0;
"2" = 0;
"3" = 0;
"4" = 0;
"5" = 0;
"6" = 0;
"7" = 0;
"8" = 0;
"9" = 0;
};
};
width = 483;
},
{
anchors = (
{
name = bottom;
pos = (185,0);
},
{
name = top;
pos = (305,560);
}
);
layerId = "66114D67-63CC-4821-8086-0090D571F0A1";
shapes = (
{
attr = {
identifier = ID0x7faff9e44910;
};
closed = 1;
nodes = (
(339,-15,o),
(428,47,o),
(451,156,cs),
(472,258,o),
(420,319,o),
(293,345,cs),
(215,361,o),
(195,384,o),
(203,423,cs),
(210,456,o),
(246,475,o),
(289,475,cs),
(340,475,o),
(371,458,o),
(374,398,c),
(502,431,l),
(492,531,o),
(421,575,o),
(301,575,cs),
(175,575,o),
(83,511,o),
(63,415,cs),
(43,323,o),
(94,254,o),
(214,233,cs),
(300,217,o),
(322,195,o),
(312,147,cs),
(305,113,o),
(263,85,o),
(214,85,cs),
(156,85,o),
(120,110,o),
(122,171,c),
(-7,147,l),
(-4,41,o),
(74,-15,o),
(202,-15,cs)
);
}
);
userData = {
com.hugojourdan.ColorFlow = {
"0" = 0;
"1" = 0;
"10" = 0;
"11" = 0;
"2" = 0;
"3" = 0;
"4" = 0;
"5" = 0;
"6" = 0;
"7" = 0;
"8" = 0;
"9" = 0;
};
};
width = 498;
}
);
metricRight = "=|";
unicode = 115;
},
{
color = 0;
glyphname = germandbls;
kernRight = KO_germandbls;
lastChange = "2025-05-28 12:37:31 +0000";
layers = (
{
layerId = "73572E25-487C-487F-975F-150A505979A5";
shapes = (
{
attr = {
identifier = ID0x159985ed0;
};
closed = 1;
nodes = (
(457,-4,o),
(539,100,o),
(560,196,cs),
(590,339,o),
(521,421,o),
(426,423,c),
(432,417,l),
(505,429,o),
(564,492,o),
(582,572,cs),
(609,693,o),
(540,775,o),
(408,775,cs),
(287,775,o),
(183,709,o),
(148,544,cs),
(32,0,l),
(100,0,l),
(214,538,ls),
(242,668,o),
(318,715,o),
(406,715,cs),
(492,715,o),
(533,657,o),
(514,574,cs),
(496,496,o),
(443,447,o),
(354,447,cs),
(309,447,l),
(296,387,l),
(336,387,ls),
(464,387,o),
(521,334,o),
(495,213,cs),
(478,130,o),
(420,56,o),
(307,56,cs),
(266,56,o),
(228,62,o),
(181,94,c),
(166,25,l),
(212,3,o),
(260,-4,o),
(302,-4,cs)
);
}
);
userData = {
com.hugojourdan.ColorFlow = {
"0" = 0;
"1" = 0;
"10" = 0;
"11" = 0;
"2" = 0;
"3" = 0;
"4" = 0;
"5" = 0;
"6" = 0;
"7" = 0;
"8" = 0;
"9" = 0;
};
};
width = 621;
},
{
layerId = "66114D67-63CC-4821-8086-0090D571F0A1";
shapes = (
{
attr = {
identifier = ID0x159985ed0;
};
closed = 1;
nodes = (
(460,-3,o),
(553,75,o),
(577,194,cs),
(602,316,o),
(548,392,o),
(467,404,c),
(462,399,l),
(542,416,o),
(596,473,o),
(613,553,cs),
(640,683,o),
(555,775,o),
(414,775,cs),
(269,775,o),
(157,719,o),
(117,528,cs),
(5,0,l),
(141,0,l),
(254,531,ls),
(273,617,o),
(320,660,o),
(394,660,cs),
(456,660,o),
(489,625,o),
(476,559,cs),
(461,494,o),
(425,456,o),
(353,456,cs),
(307,456,l),
(282,341,l),
(343,341,ls),
(430,341,o),
(462,301,o),
(445,220,cs),
(432,157,o),
(385,111,o),
(313,111,cs),
(275,111,o),
(239,123,o),
(217,138,c),
(192,19,l),
(223,5,o),
(260,-3,o),
(314,-3,cs)
);
}
);
userData = {
com.hugojourdan.ColorFlow = {
"0" = 0;
"1" = 0;
"10" = 0;
"11" = 0;
"2" = 0;
"3" = 0;
"4" = 0;
"5" = 0;
"6" = 0;
"7" = 0;
"8" = 0;
"9" = 0;
};
};
width = 626;
}
);
metricLeft = H;
metricRight = B;
unicode = 223;
},
{
glyphname = t;
kernLeft = KO_t;
kernRight = KO_t;
lastChange = "2025-05-28 12:37:31 +0000";
layers = (
{
anchors = (
{
name = bottom;
pos = (141,0);
},
{
name = center;
pos = (199,273);
},
{
name = top;
pos = (288,692);
},
{
name = topright;
pos = (478,772);
}
);
layerId = "73572E25-487C-487F-975F-150A505979A5";
shapes = (
{
closed = 1;
nodes = (
(281,0,l),
(294,60,l),
(211,60,ls),
(170,60,o),
(156,72,o),
(165,113,cs),
(288,692,l),
(221,692,l),
(99,120,ls),
(80,28,o),
(105,0,o),
(194,0,cs)
);
},
{
closed = 1;
nodes = (
(384,486,l),
(397,546,l),
(85,546,l),
(72,486,l)
);
}
);
userData = {
com.hugojourdan.ColorFlow = {
"0" = 0;
"1" = 0;
"10" = 0;
"11" = 0;
"2" = 0;
"3" = 0;
"4" = 0;
"5" = 0;
"6" = 0;
"7" = 0;
"8" = 0;
"9" = 0;
};
};
width = 391;
},
{
anchors = (
{
name = bottom;
pos = (144,0);
},
{
name = center;
pos = (204,281);
},
{
name = top;
pos = (294,704);
},
{
name = topright;
pos = (491,772);
}
);
layerId = "66114D67-63CC-4821-8086-0090D571F0A1";
shapes = (
{
closed = 1;
nodes = (
(307,0,l),
(332,115,l),
(259,115,ls),
(225,115,o),
(213,129,o),
(221,168,cs),
(335,704,l),
(200,704,l),
(83,154,ls),
(59,42,o),
(83,0,o),
(209,0,cs)
);
},
{
closed = 1;
nodes = (
(402,445,l),
(427,560,l),
(81,560,l),
(57,445,l)
);
}
);
userData = {
com.hugojourdan.ColorFlow = {
"0" = 0;
"1" = 0;
"10" = 0;
"11" = 0;
"2" = 0;
"3" = 0;
"4" = 0;
"5" = 0;
"6" = 0;
"7" = 0;
"8" = 0;
"9" = 0;
};
};
width = 407;
}
);
unicode = 116;
userData = {
KernOnName = t;
};
},
{
glyphname = u;
kernLeft = KO_u;
kernRight = KO_u;
lastChange = "2025-05-28 12:37:31 +0000";
layers = (
{
anchors = (
{
name = bottom;
pos = (216,0);
},
{
name = ogonek;
pos = (341,10);
},
{
name = top;
pos = (332,546);
},
{
name = topright;
pos = (581,546);
}
);
layerId = "73572E25-487C-487F-975F-150A505979A5";
shapes = (
{
closed = 1;
nodes = (
(348,-15,o),
(445,59,o),
(480,228,cs),
(548,546,l),
(480,546,l),
(411,219,ls),
(384,93,o),
(316,45,o),
(236,45,cs),
(143,45,o),
(86,93,o),
(113,219,cs),
(182,546,l),
(115,546,l),
(47,228,ls),
(12,59,o),
(90,-15,o),
(228,-15,cs)
);
}
);
userData = {
com.hugojourdan.ColorFlow = {
"0" = 0;
"1" = 0;
"10" = 0;
"11" = 0;
"2" = 0;
"3" = 0;
"4" = 0;
"5" = 0;
"6" = 0;
"7" = 0;
"8" = 0;
"9" = 0;
};
};
width = 547;
},
{
anchors = (
{
name = bottom;
pos = (216,0);
},
{
name = ogonek;
pos = (351,10);
},
{
name = top;
pos = (336,560);
},
{
name = topright;
pos = (594,560);
}
);
layerId = "66114D67-63CC-4821-8086-0090D571F0A1";
shapes = (
{
closed = 1;
nodes = (
(378,-15,o),
(469,62,o),
(506,237,cs),
(574,560,l),
(439,560,l),
(366,218,ls),
(349,139,o),
(299,100,o),
(238,100,cs),
(178,100,o),
(141,137,o),
(158,218,cs),
(231,560,l),
(96,560,l),
(27,237,ls),
(-10,64,o),
(75,-15,o),
(225,-15,cs)
);
}
);
userData = {
com.hugojourdan.ColorFlow = {
"0" = 0;
"1" = 0;
"10" = 0;
"11" = 0;
"2" = 0;
"3" = 0;
"4" = 0;
"5" = 0;
"6" = 0;
"7" = 0;
"8" = 0;
"9" = 0;
};
};
width = 551;
}
);
metricRight = "=|";
unicode = 117;
userData = {
KernOnName = u;
};
},
{
glyphname = v;
kernLeft = KO_y;
kernRight = KO_y;
lastChange = "2025-05-28 12:37:31 +0000";
layers = (
{
anchors = (
{
name = bottom;
pos = (193,0);
},
{
name = top;
pos = (309,546);
}
);
layerId = "73572E25-487C-487F-975F-150A505979A5";
shapes = (
{
closed = 1;
nodes = (
(230,0,l),
(539,546,l),
(461,546,l),
(202,80,l),
(209,80,l),
(147,546,l),
(78,546,l),
(158,0,l)
);
}
);
userData = {
com.hugojourdan.ColorFlow = {
"0" = 0;
"1" = 0;
"10" = 0;
"11" = 0;
"2" = 0;
"3" = 0;
"4" = 0;
"5" = 0;
"6" = 0;
"7" = 0;
"8" = 0;
"9" = 0;
};
};
width = 501;
},
{
anchors = (
{
name = bottom;
pos = (233,0);
},
{
name = top;
pos = (353,560);
}
);
layerId = "66114D67-63CC-4821-8086-0090D571F0A1";
shapes = (
{
closed = 1;
nodes = (
(320,0,l),
(619,560,l),
(474,560,l),
(234,86,l),
(265,86,l),
(226,560,l),
(86,560,l),
(149,0,l)
);
}
);
userData = {
com.hugojourdan.ColorFlow = {
"0" = 0;
"1" = 0;
"10" = 0;
"11" = 0;
"2" = 0;
"3" = 0;
"4" = 0;
"5" = 0;
"6" = 0;
"7" = 0;
"8" = 0;
"9" = 0;
};
};
width = 587;
}
);
metricRight = "=|";
unicode = 118;
userData = {
KernOnName = v;
};
},
{
glyphname = w;
kernLeft = KO_w;
kernRight = KO_w;
lastChange = "2025-05-28 12:37:31 +0000";
layers = (
{
anchors = (
{
name = bottom;
pos = (270,0);
},
{
name = top;
pos = (386,546);
}
);
layerId = "73572E25-487C-487F-975F-150A505979A5";
shapes = (
{
closed = 1;
nodes = (
(157,0,l),
(387,464,l),
(361,464,l),
(402,0,l),
(471,0,l),
(694,546,l),
(626,546,l),
(448,91,l),
(450,91,l),
(416,546,l),
(361,546,l),
(129,91,l),
(138,91,l),
(146,546,l),
(78,546,l),
(78,0,l)
);
}
);
userData = {
com.hugojourdan.ColorFlow = {
"0" = 0;
"1" = 0;
"10" = 0;
"11" = 0;
"2" = 0;
"3" = 0;
"4" = 0;
"5" = 0;
"6" = 0;
"7" = 0;
"8" = 0;
"9" = 0;
};
};
width = 656;
},
{
anchors = (
{
name = bottom;
pos = (329,0);
},
{
name = top;
pos = (449,560);
}
);
layerId = "66114D67-63CC-4821-8086-0090D571F0A1";
shapes = (
{
closed = 1;
nodes = (
(249,0,l),
(458,463,l),
(405,463,l),
(420,0,l),
(578,0,l),
(810,560,l),
(674,560,l),
(496,93,l),
(525,93,l),
(516,560,l),
(383,560,l),
(166,93,l),
(196,93,l),
(215,560,l),
(86,560,l),
(79,0,l)
);
}
);
userData = {
com.hugojourdan.ColorFlow = {
"0" = 0;
"1" = 0;
"10" = 0;
"11" = 0;
"2" = 0;
"3" = 0;
"4" = 0;
"5" = 0;
"6" = 0;
"7" = 0;
"8" = 0;
"9" = 0;
};
};
width = 777;
}
);
metricLeft = v;
metricRight = v;
unicode = 119;
userData = {
KernOnName = w;
};
},
{
glyphname = x;
kernLeft = KO_x;
kernRight = KO_x;
lastChange = "2025-05-28 12:37:31 +0000";
layers = (
{
anchors = (
{
name = bottom;
pos = (211,0);
},
{
name = top;
pos = (327,546);
}
);
layerId = "73572E25-487C-487F-975F-150A505979A5";
shapes = (
{
closed = 1;
nodes = (
(69,0,l),
(272,245,l),
(262,245,l),
(365,0,l),
(441,0,l),
(310,291,l),
(308,282,l),
(537,546,l),
(452,546,l),
(273,331,l),
(280,331,l),
(184,546,l),
(109,546,l),
(233,280,l),
(237,295,l),
(-16,0,l)
);
}
);
userData = {
com.hugojourdan.ColorFlow = {
"0" = 0;
"1" = 0;
"10" = 0;
"11" = 0;
"2" = 0;
"3" = 0;
"4" = 0;
"5" = 0;
"6" = 0;
"7" = 0;
"8" = 0;
"9" = 0;
};
};
width = 541;
},
{
anchors = (
{
name = bottom;
pos = (228,0);
},
{
name = top;
pos = (348,560);
}
);
layerId = "66114D67-63CC-4821-8086-0090D571F0A1";
shapes = (
{
closed = 1;
nodes = (
(130,0,l),
(314,256,l),
(267,256,l),
(337,0,l),
(488,0,l),
(379,321,l),
(373,262,l),
(605,560,l),
(443,560,l),
(279,325,l),
(312,325,l),
(238,560,l),
(87,560,l),
(200,261,l),
(220,327,l),
(-31,0,l)
);
}
);
userData = {
com.hugojourdan.ColorFlow = {
"0" = 0;
"1" = 0;
"10" = 0;
"11" = 0;
"2" = 0;
"3" = 0;
"4" = 0;
"5" = 0;
"6" = 0;
"7" = 0;
"8" = 0;
"9" = 0;
};
};
width = 575;
}
);
metricRight = "=|";
unicode = 120;
userData = {
KernOnName = x;
};
},
{
glyphname = y;
kernLeft = KO_y;
kernRight = KO_y;
lastChange = "2025-05-28 12:37:31 +0000";
layers = (
{
anchors = (
{
name = bottom;
pos = (193,0);
},
{
name = top;
pos = (309,546);
}
);
layerId = "73572E25-487C-487F-975F-150A505979A5";
shapes = (
{
closed = 1;
nodes = (
(10,-215,ls),
(89,-215,o),
(136,-187,o),
(170,-125,cs),
(539,546,l),
(463,546,l),
(119,-89,ls),
(94,-136,o),
(74,-155,o),
(26,-155,cs),
(-47,-155,l),
(-60,-215,l)
);
},
{
closed = 1;
nodes = (
(196,0,l),
(226,90,l),
(149,546,l),
(78,546,l),
(176,0,l)
);
}
);
userData = {
com.hugojourdan.ColorFlow = {
"0" = 0;
"1" = 0;
"10" = 0;
"11" = 0;
"2" = 0;
"3" = 0;
"4" = 0;
"5" = 0;
"6" = 0;
"7" = 0;
"8" = 0;
"9" = 0;
};
};
width = 501;
},
{
anchors = (
{
name = bottom;
pos = (233,0);
},
{
name = top;
pos = (353,560);
}
);
layerId = "66114D67-63CC-4821-8086-0090D571F0A1";
shapes = (
{
closed = 1;
nodes = (
(43,-215,ls),
(152,-215,o),
(197,-187,o),
(248,-95,cs),
(619,560,l),
(470,560,l),
(145,-41,ls),
(122,-83,o),
(104,-101,o),
(61,-101,cs),
(-36,-101,l),
(-60,-215,l)
);
},
{
closed = 1;
nodes = (
(269,-37,l),
(282,50,l),
(222,560,l),
(86,560,l),
(171,-37,l)
);
}
);
userData = {
com.hugojourdan.ColorFlow = {
"0" = 0;
"1" = 0;
"10" = 0;
"11" = 0;
"2" = 0;
"3" = 0;
"4" = 0;
"5" = 0;
"6" = 0;
"7" = 0;
"8" = 0;
"9" = 0;
};
};
width = 587;
}
);
metricLeft = v;
metricRight = v;
unicode = 121;
userData = {
KernOnName = y;
};
},
{
glyphname = z;
kernLeft = KO_z;
kernRight = KO_z;
lastChange = "2025-05-28 12:37:31 +0000";
layers = (
{
anchors = (
{
name = bottom;
pos = (181,0);
},
{
name = center;
pos = (239,273);
},
{
name = top;
pos = (297,546);
}
);
layerId = "73572E25-487C-487F-975F-150A505979A5";
shapes = (
{
closed = 1;
nodes = (
(362,0,l),
(375,60,l),
(36,60,l),
(45,31,l),
(463,470,l),
(479,546,l),
(109,546,l),
(96,486,l),
(417,486,l),
(402,495,l),
(-2,69,l),
(-17,0,l)
);
}
);
userData = {
com.hugojourdan.ColorFlow = {
"0" = 0;
"1" = 0;
"10" = 0;
"11" = 0;
"2" = 0;
"3" = 0;
"4" = 0;
"5" = 0;
"6" = 0;
"7" = 0;
"8" = 0;
"9" = 0;
};
};
width = 462;
},
{
anchors = (
{
name = bottom;
pos = (203,0);
},
{
name = center;
pos = (263,281);
},
{
name = top;
pos = (323,560);
}
);
layerId = "66114D67-63CC-4821-8086-0090D571F0A1";
shapes = (
{
closed = 1;
nodes = (
(412,0,l),
(437,115,l),
(96,115,l),
(93,38,l),
(504,428,l),
(532,560,l),
(116,560,l),
(91,445,l),
(414,445,l),
(411,502,l),
(13,124,l),
(-13,0,l)
);
}
);
userData = {
com.hugojourdan.ColorFlow = {
"0" = 0;
"1" = 0;
"10" = 0;
"11" = 0;
"2" = 0;
"3" = 0;
"4" = 0;
"5" = 0;
"6" = 0;
"7" = 0;
"8" = 0;
"9" = 0;
};
};
width = 519;
}
);
metricRight = "=|";
unicode = 122;
userData = {
KernOnName = z;
};
},
{
color = 1;
glyphname = jdotless.ss01;
kernLeft = KO_i;
lastChange = "2025-05-28 12:37:31 +0000";
layers = (
{
anchors = (
{
name = bottom;
pos = (4,-200);
},
{
name = top;
pos = (163,546);
}
);
layerId = "73572E25-487C-487F-975F-150A505979A5";
shapes = (
{
closed = 1;
nodes = (
(-81,-215,ls),
(7,-215,o),
(43,-180,o),
(57,-112,cs),
(197,546,l),
(129,546,l),
(-21,-159,l),
(-134,-159,l),
(-146,-215,l)
);
}
);
userData = {
com.hugojourdan.ColorFlow = {
"0" = 0;
"1" = 0;
"10" = 0;
"11" = 0;
"2" = 0;
"3" = 0;
"4" = 0;
"5" = 0;
"6" = 0;
"7" = 0;
"8" = 0;
"9" = 0;
};
};
width = 211;
},
{
anchors = (
{
name = bottom;
pos = (25,-213);
},
{
name = top;
pos = (190,560);
}
);
layerId = "66114D67-63CC-4821-8086-0090D571F0A1";
shapes = (
{
closed = 1;
nodes = (
(-17,-215,ls),
(55,-215,o),
(102,-176,o),
(118,-104,cs),
(259,560,l),
(123,560,l),
(-19,-105,l),
(-115,-105,l),
(-139,-215,l)
);
}
);
userData = {
com.hugojourdan.ColorFlow = {
"0" = 0;
"1" = 0;
"10" = 0;
"11" = 0;
"2" = 0;
"3" = 0;
"4" = 0;
"5" = 0;
"6" = 0;
"7" = 0;
"8" = 0;
"9" = 0;
};
};
width = 258;
}
);
metricLeft = jdotless;
metricRight = idotless;
},
{
color = 1;
glyphname = l.ss01;
kernLeft = KO_l;
kernRight = KO_l;
lastChange = "2025-05-28 12:37:31 +0000";
layers = (
{
anchors = (
{
name = bottom;
pos = (64,0);
},
{
name = center;
pos = (122,273);
},
{
name = top;
pos = (226,760);
},
{
name = topright;
pos = (325,760);
}
);
layerId = "73572E25-487C-487F-975F-150A505979A5";
shapes = (
{
closed = 1;
nodes = (
(170,0,l),
(181,53,l),
(93,53,l),
(244,760,l),
(176,760,l),
(38,115,ls),
(23,41,o),
(55,0,o),
(129,0,cs)
);
}
);
userData = {
com.hugojourdan.ColorFlow = {
"0" = 0;
"1" = 0;
"10" = 0;
"11" = 0;
"2" = 0;
"3" = 0;
"4" = 0;
"5" = 0;
"6" = 0;
"7" = 0;
"8" = 0;
"9" = 0;
};
};
width = 260;
},
{
anchors = (
{
name = bottom;
pos = (94,0);
},
{
name = center;
pos = (154,281);
},
{
name = top;
pos = (256,759);
},
{
name = topright;
pos = (389,759);
}
);
layerId = "66114D67-63CC-4821-8086-0090D571F0A1";
shapes = (
{
closed = 1;
nodes = (
(224,0,l),
(248,110,l),
(159,110,l),
(297,760,l),
(162,760,l),
(25,117,ls),
(10,44,o),
(41,0,o),
(115,0,cs)
);
}
);
userData = {
com.hugojourdan.ColorFlow = {
"0" = 0;
"1" = 0;
"10" = 0;
"11" = 0;
"2" = 0;
"3" = 0;
"4" = 0;
"5" = 0;
"6" = 0;
"7" = 0;
"8" = 0;
"9" = 0;
};
};
width = 306;
}
);
metricLeft = l;
metricWidth = l;
},
{
color = 1;
glyphname = m.ss01;
kernLeft = KO_r.ss01;
kernRight = KO_m.ss01;
lastChange = "2025-05-28 12:37:31 +0000";
layers = (
{
anchors = (
{
name = bottom;
pos = (347,0);
},
{
name = top;
pos = (463,546);
}
);
layerId = "73572E25-487C-487F-975F-150A505979A5";
shapes = (
{
closed = 1;
nodes = (
(82,0,l),
(189,504,l),
(423,504,l),
(316,0,l),
(383,0,l),
(490,504,l),
(724,504,l),
(617,0,l),
(684,0,l),
(779,449,ls),
(795,522,o),
(771,558,o),
(692,558,cs),
(244,558,ls),
(165,558,o),
(125,522,o),
(109,449,cs),
(14,0,l)
);
}
);
userData = {
com.hugojourdan.ColorFlow = {
"0" = 0;
"1" = 0;
"10" = 0;
"11" = 0;
"2" = 0;
"3" = 0;
"4" = 0;
"5" = 0;
"6" = 0;
"7" = 0;
"8" = 0;
"9" = 0;
};
};
width = 810;
},
{
anchors = (
{
name = bottom;
pos = (362,0);
},
{
name = top;
pos = (482,560);
}
);
layerId = "66114D67-63CC-4821-8086-0090D571F0A1";
shapes = (
{
closed = 1;
nodes = (
(137,0,l),
(236,465,l),
(394,465,l),
(295,0,l),
(432,0,l),
(531,465,l),
(689,465,l),
(590,0,l),
(726,0,l),
(801,354,ls),
(831,492,o),
(787,575,o),
(634,575,cs),
(350,575,ls),
(193,575,o),
(107,497,o),
(76,354,cs),
(1,0,l)
);
}
);
userData = {
com.hugojourdan.ColorFlow = {
"0" = 0;
"1" = 0;
"10" = 0;
"11" = 0;
"2" = 0;
"3" = 0;
"4" = 0;
"5" = 0;
"6" = 0;
"7" = 0;
"8" = 0;
"9" = 0;
};
};
width = 841;
}
);
metricLeft = n;
metricRight = n;
},
{
color = 1;
glyphname = n.ss01;
kernLeft = KO_n.ss01;
kernRight = KO_n.ss01;
lastChange = "2025-05-28 12:37:31 +0000";
layers = (
{
anchors = (
{
name = bottom;
pos = (229,0);
},
{
name = top;
pos = (345,546);
}
);
layerId = "73572E25-487C-487F-975F-150A505979A5";
shapes = (
{
closed = 1;
nodes = (
(78,0,l),
(185,505,l),
(487,505,l),
(380,0,l),
(448,0,l),
(544,451,l),
(559,524,o),
(531,560,o),
(445,560,cs),
(251,560,ls),
(165,559,o),
(121,524,o),
(106,451,cs),
(10,0,l)
);
}
);
userData = {
com.hugojourdan.ColorFlow = {
"0" = 0;
"1" = 0;
"10" = 0;
"11" = 0;
"2" = 0;
"3" = 0;
"4" = 0;
"5" = 0;
"6" = 0;
"7" = 0;
"8" = 0;
"9" = 0;
};
};
width = 574;
},
{
anchors = (
{
name = bottom;
pos = (230,0);
},
{
name = top;
pos = (350,560);
}
);
layerId = "66114D67-63CC-4821-8086-0090D571F0A1";
shapes = (
{
closed = 1;
nodes = (
(122,0,l),
(218,452,l),
(433,452,l),
(337,0,l),
(473,0,l),
(540,316,ls),
(575,476,o),
(514,575,o),
(354,575,cs),
(352,575,ls),
(195,575,o),
(87,475,o),
(53,316,cs),
(-14,0,l)
);
}
);
userData = {
com.hugojourdan.ColorFlow = {
"0" = 0;
"1" = 0;
"10" = 0;
"11" = 0;
"2" = 0;
"3" = 0;
"4" = 0;
"5" = 0;
"6" = 0;
"7" = 0;
"8" = 0;
"9" = 0;
};
};
width = 578;
}
);
metricRight = "=|";
},
{
color = 1;
glyphname = r.ss01;
kernLeft = KO_r.ss01;
kernRight = KO_r.ss01;
lastChange = "2025-05-28 12:37:31 +0000";
layers = (
{
anchors = (
{
name = bottom;
pos = (109,0);
},
{
name = top;
pos = (225,546);
}
);
layerId = "73572E25-487C-487F-975F-150A505979A5";
shapes = (
{
closed = 1;
nodes = (
(82,0,l),
(187,493,l),
(357,493,l),
(368,546,l),
(266,546,ls),
(174,546,o),
(120,500,o),
(101,410,cs),
(14,0,l)
);
}
);
userData = {
com.hugojourdan.ColorFlow = {
"0" = 0;
"1" = 0;
"10" = 0;
"11" = 0;
"2" = 0;
"3" = 0;
"4" = 0;
"5" = 0;
"6" = 0;
"7" = 0;
"8" = 0;
"9" = 0;
};
};
width = 340;
},
{
anchors = (
{
name = bottom;
pos = (120,0);
},
{
name = top;
pos = (240,560);
}
);
layerId = "66114D67-63CC-4821-8086-0090D571F0A1";
shapes = (
{
closed = 1;
nodes = (
(136,0,l),
(231,450,l),
(378,450,l),
(402,560,l),
(289,560,ls),
(162,560,o),
(107,500,o),
(81,380,cs),
(0,0,l)
);
}
);
userData = {
com.hugojourdan.ColorFlow = {
"0" = 0;
"1" = 0;
"10" = 0;
"11" = 0;
"2" = 0;
"3" = 0;
"4" = 0;
"5" = 0;
"6" = 0;
"7" = 0;
"8" = 0;
"9" = 0;
};
};
width = 360;
}
);
metricLeft = n;
metricRight = r;
},
{
glyphname = t.ss01;
kernLeft = KO_t;
kernRight = KO_t.ss01;
lastChange = "2025-05-28 12:37:31 +0000";
layers = (
{
anchors = (
{
name = bottom;
pos = (141,0);
},
{
name = center;
pos = (199,273);
},
{
name = top;
pos = (288,692);
},
{
name = topright;
pos = (478,772);
}
);
layerId = "73572E25-487C-487F-975F-150A505979A5";
shapes = (
{
closed = 1;
nodes = (
(281,0,l),
(294,60,l),
(155,60,l),
(289,692,l),
(221,692,l),
(99,120,ls),
(80,28,o),
(105,0,o),
(194,0,cs)
);
},
{
closed = 1;
nodes = (
(384,486,l),
(397,546,l),
(85,546,l),
(72,486,l)
);
}
);
userData = {
com.hugojourdan.ColorFlow = {
"0" = 0;
"1" = 0;
"10" = 0;
"11" = 0;
"2" = 0;
"3" = 0;
"4" = 0;
"5" = 0;
"6" = 0;
"7" = 0;
"8" = 0;
"9" = 0;
};
};
width = 391;
},
{
anchors = (
{
name = bottom;
pos = (144,0);
},
{
name = center;
pos = (204,281);
},
{
name = top;
pos = (294,704);
},
{
name = topright;
pos = (491,772);
}
);
layerId = "66114D67-63CC-4821-8086-0090D571F0A1";
shapes = (
{
closed = 1;
nodes = (
(307,0,l),
(331,110,l),
(209,110,l),
(335,704,l),
(199,704,l),
(83,154,ls),
(58,42,o),
(84,0,o),
(204,0,cs)
);
},
{
closed = 1;
nodes = (
(402,446,l),
(427,560,l),
(81,560,l),
(57,446,l)
);
}
);
userData = {
com.hugojourdan.ColorFlow = {
"0" = 0;
"1" = 0;
"10" = 0;
"11" = 0;
"2" = 0;
"3" = 0;
"4" = 0;
"5" = 0;
"6" = 0;
"7" = 0;
"8" = 0;
"9" = 0;
};
};
width = 393;
}
);
},
{
color = 1;
glyphname = u.ss01;
kernLeft = KO_u.ss01;
kernRight = KO_u.ss01;
lastChange = "2025-05-28 12:37:31 +0000";
layers = (
{
anchors = (
{
name = bottom;
pos = (149,0);
},
{
name = ogonek;
pos = (379,10);
},
{
name = top;
pos = (265,546);
},
{
name = topright;
pos = (530,546);
}
);
layerId = "73572E25-487C-487F-975F-150A505979A5";
shapes = (
{
closed = 1;
nodes = (
(34,115,ls),
(16,29,o),
(49,-14,o),
(149,-14,cs),
(289,-14,ls),
(389,-14,o),
(440,29,o),
(458,115,c),
(550,546,l),
(482,546,l),
(375,41,l),
(87,41,l),
(194,546,l),
(126,546,l)
);
}
);
userData = {
com.hugojourdan.ColorFlow = {
"0" = 0;
"1" = 0;
"10" = 0;
"11" = 0;
"2" = 0;
"3" = 0;
"4" = 0;
"5" = 0;
"6" = 0;
"7" = 0;
"8" = 0;
"9" = 0;
};
};
width = 560;
},
{
anchors = (
{
name = bottom;
pos = (223,0);
},
{
name = ogonek;
pos = (455,10);
},
{
name = top;
pos = (343,560);
},
{
name = topright;
pos = (610,560);
}
);
layerId = "66114D67-63CC-4821-8086-0090D571F0A1";
shapes = (
{
closed = 1;
nodes = (
(47,245,ls),
(13,82,o),
(75,-15,o),
(231,-15,cs),
(233,-15,ls),
(390,-15,o),
(491,84,o),
(525,245,cs),
(592,560,l),
(456,560,l),
(360,109,l),
(154,109,l),
(250,560,l),
(114,560,l)
);
}
);
userData = {
com.hugojourdan.ColorFlow = {
"0" = 0;
"1" = 0;
"10" = 0;
"11" = 0;
"2" = 0;
"3" = 0;
"4" = 0;
"5" = 0;
"6" = 0;
"7" = 0;
"8" = 0;
"9" = 0;
};
};
width = 586;
}
);
metricRight = "=|";
},
{
color = 3;
glyphname = jdotless.ss02;
lastChange = "2025-05-28 12:37:31 +0000";
layers = (
{
anchors = (
{
name = bottom;
pos = (2,-215);
},
{
name = top;
pos = (164,546);
}
);
layerId = "73572E25-487C-487F-975F-150A505979A5";
shapes = (
{
closed = 1;
nodes = (
(36,-215,l),
(198,546,l),
(131,546,l),
(-7,-105,ls),
(-16,-144,o),
(-37,-158,o),
(-84,-158,cs),
(-134,-158,l),
(-146,-215,l)
);
}
);
userData = {
com.hugojourdan.ColorFlow = {
"0" = 0;
"1" = 0;
"10" = 0;
"11" = 0;
"2" = 0;
"3" = 0;
"4" = 0;
"5" = 0;
"6" = 0;
"7" = 0;
"8" = 0;
"9" = 0;
};
};
width = 212;
},
{
anchors = (
{
name = bottom;
pos = (25,-215);
},
{
name = top;
pos = (190,560);
}
);
layerId = "66114D67-63CC-4821-8086-0090D571F0A1";
shapes = (
{
closed = 1;
nodes = (
(96,-215,l),
(261,560,l),
(124,560,l),
(-6,-52,ls),
(-14,-90,o),
(-35,-105,o),
(-82,-105,cs),
(-115,-105,l),
(-139,-215,l)
);
}
);
userData = {
com.hugojourdan.ColorFlow = {
"0" = 0;
"1" = 0;
"10" = 0;
"11" = 0;
"2" = 0;
"3" = 0;
"4" = 0;
"5" = 0;
"6" = 0;
"7" = 0;
"8" = 0;
"9" = 0;
};
};
width = 259;
}
);
metricLeft = jdotless;
metricRight = idotless;
},
{
color = 3;
glyphname = l.ss02;
kernLeft = KO_i;
kernRight = KO_l.ss02;
lastChange = "2025-05-28 12:37:31 +0000";
layers = (
{
anchors = (
{
name = bottom;
pos = (63,0);
},
{
name = center;
pos = (121,273);
},
{
name = top;
pos = (225,760);
},
{
name = topright;
pos = (323,760);
}
);
layerId = "73572E25-487C-487F-975F-150A505979A5";
shapes = (
{
closed = 1;
nodes = (
(169,0,l),
(180,53,l),
(137,53,ls),
(108,53,o),
(96,69,o),
(102,98,cs),
(243,760,l),
(176,760,l),
(14,0,l)
);
}
);
userData = {
com.hugojourdan.ColorFlow = {
"0" = 0;
"1" = 0;
"10" = 0;
"11" = 0;
"2" = 0;
"3" = 0;
"4" = 0;
"5" = 0;
"6" = 0;
"7" = 0;
"8" = 0;
"9" = 0;
};
};
width = 260;
},
{
anchors = (
{
name = bottom;
pos = (141,0);
},
{
name = center;
pos = (201,281);
},
{
name = top;
pos = (301,750);
},
{
name = topright;
pos = (431,750);
}
);
layerId = "66114D67-63CC-4821-8086-0090D571F0A1";
shapes = (
{
closed = 1;
nodes = (
(234,0,l),
(258,110,l),
(205,110,ls),
(177,110,o),
(163,126,o),
(169,155,cs),
(298,760,l),
(162,760,l),
(0,0,l)
);
}
);
userData = {
com.hugojourdan.ColorFlow = {
"0" = 0;
"1" = 0;
"10" = 0;
"11" = 0;
"2" = 0;
"3" = 0;
"4" = 0;
"5" = 0;
"6" = 0;
"7" = 0;
"8" = 0;
"9" = 0;
};
};
width = 306;
}
);
metricLeft = l;
metricWidth = l;
},
{
color = 3;
glyphname = m.ss02;
kernLeft = KO_r;
kernRight = KO_u.ss01;
lastChange = "2025-05-28 12:37:31 +0000";
layers = (
{
anchors = (
{
name = bottom;
pos = (347,0);
},
{
name = top;
pos = (463,546);
}
);
layerId = "73572E25-487C-487F-975F-150A505979A5";
shapes = (
{
closed = 1;
nodes = (
(82,0,l),
(159,364,ls),
(180,460,o),
(238,504,o),
(309,504,cs),
(377,504,o),
(414,460,o),
(393,364,cs),
(316,0,l),
(383,0,l),
(460,364,ls),
(481,460,o),
(540,504,o),
(615,504,cs),
(679,504,o),
(715,460,o),
(694,364,cs),
(617,0,l),
(684,0,l),
(800,546,l),
(130,546,l),
(14,0,l)
);
}
);
userData = {
com.hugojourdan.ColorFlow = {
"0" = 0;
"1" = 0;
"10" = 0;
"11" = 0;
"2" = 0;
"3" = 0;
"4" = 0;
"5" = 0;
"6" = 0;
"7" = 0;
"8" = 0;
"9" = 0;
};
};
width = 810;
},
{
anchors = (
{
name = bottom;
pos = (362,0);
},
{
name = top;
pos = (482,560);
}
);
layerId = "66114D67-63CC-4821-8086-0090D571F0A1";
shapes = (
{
closed = 1;
nodes = (
(137,0,l),
(215,366,ls),
(228,427,o),
(269,460,o),
(318,460,cs),
(361,460,o),
(386,428,o),
(373,366,cs),
(295,0,l),
(432,0,l),
(509,366,ls),
(522,427,o),
(564,460,o),
(614,460,cs),
(657,460,o),
(680,428,o),
(668,366,cs),
(590,0,l),
(726,0,l),
(845,560,l),
(120,560,l),
(1,0,l)
);
}
);
userData = {
com.hugojourdan.ColorFlow = {
"0" = 0;
"1" = 0;
"10" = 0;
"11" = 0;
"2" = 0;
"3" = 0;
"4" = 0;
"5" = 0;
"6" = 0;
"7" = 0;
"8" = 0;
"9" = 0;
};
};
width = 841;
}
);
metricLeft = n;
metricRight = n;
},
{
color = 3;
glyphname = n.ss02;
kernLeft = KO_u.ss02;
kernRight = KO_n.ss02;
lastChange = "2025-05-28 12:37:31 +0000";
layers = (
{
anchors = (
{
name = bottom;
pos = (229,0);
},
{
name = top;
pos = (345,546);
}
);
layerId = "73572E25-487C-487F-975F-150A505979A5";
shapes = (
{
closed = 1;
nodes = (
(78,0,l),
(149,332,ls),
(173,447,o),
(238,507,o),
(337,507,cs),
(436,507,o),
(475,447,o),
(451,332,cs),
(380,0,l),
(448,0,l),
(564,546,l),
(126,546,l),
(10,0,l)
);
}
);
userData = {
com.hugojourdan.ColorFlow = {
"0" = 0;
"1" = 0;
"10" = 0;
"11" = 0;
"2" = 0;
"3" = 0;
"4" = 0;
"5" = 0;
"6" = 0;
"7" = 0;
"8" = 0;
"9" = 0;
};
};
width = 574;
},
{
anchors = (
{
name = bottom;
pos = (230,0);
},
{
name = top;
pos = (350,560);
}
);
layerId = "66114D67-63CC-4821-8086-0090D571F0A1";
shapes = (
{
closed = 1;
nodes = (
(122,0,l),
(193,335,ls),
(212,420,o),
(259,466,o),
(328,466,cs),
(398,466,o),
(427,421,o),
(408,335,cs),
(337,0,l),
(473,0,l),
(592,560,l),
(105,560,l),
(-14,0,l)
);
}
);
userData = {
com.hugojourdan.ColorFlow = {
"0" = 0;
"1" = 0;
"10" = 0;
"11" = 0;
"2" = 0;
"3" = 0;
"4" = 0;
"5" = 0;
"6" = 0;
"7" = 0;
"8" = 0;
"9" = 0;
};
};
width = 578;
}
);
metricRight = "=|";
},
{
color = 3;
glyphname = r.ss02;
kernLeft = KO_r;
kernRight = KO_r.ss01;
lastChange = "2025-05-28 12:37:31 +0000";
layers = (
{
anchors = (
{
name = bottom;
pos = (109,0);
},
{
name = top;
pos = (225,546);
}
);
layerId = "73572E25-487C-487F-975F-150A505979A5";
shapes = (
{
closed = 1;
nodes = (
(82,0,l),
(169,408,ls),
(182,471,o),
(205,493,o),
(272,493,cs),
(357,493,l),
(368,546,l),
(130,546,l),
(14,0,l)
);
}
);
userData = {
com.hugojourdan.ColorFlow = {
"0" = 0;
"1" = 0;
"10" = 0;
"11" = 0;
"2" = 0;
"3" = 0;
"4" = 0;
"5" = 0;
"6" = 0;
"7" = 0;
"8" = 0;
"9" = 0;
};
};
width = 340;
},
{
anchors = (
{
name = bottom;
pos = (127,0);
},
{
name = top;
pos = (247,560);
}
);
layerId = "66114D67-63CC-4821-8086-0090D571F0A1";
shapes = (
{
closed = 1;
nodes = (
(137,0,l),
(214,361,ls),
(228,425,o),
(256,450,o),
(319,450,cs),
(395,450,l),
(418,560,l),
(120,560,l),
(1,0,l)
);
}
);
userData = {
com.hugojourdan.ColorFlow = {
"0" = 0;
"1" = 0;
"10" = 0;
"11" = 0;
"2" = 0;
"3" = 0;
"4" = 0;
"5" = 0;
"6" = 0;
"7" = 0;
"8" = 0;
"9" = 0;
};
};
width = 377;
}
);
metricLeft = n;
metricRight = r;
},
{
export = 0;
glyphname = a.ss03;
lastChange = "2025-05-28 12:37:31 +0000";
layers = (
{
anchors = (
{
name = bottom;
pos = (236,0);
},
{
name = ogonek;
pos = (473,10);
},
{
name = top;
pos = (352,546);
}
);
layerId = "73572E25-487C-487F-975F-150A505979A5";
shapes = (
{
closed = 1;
nodes = (
(308.372,-15,o),
(407.011,52,o),
(442.25,161,c),
(515.056,273,l),
(489.862,385,l),
(500.031,494,o),
(427.272,561,o),
(331.272,561,cs),
(198.272,561,o),
(76.727,474.931,o),
(36.022,283.432,cs),
(-6.123,85.156,o),
(86.351,-15,o),
(214.84,-15,cs)
);
},
{
closed = 1;
nodes = (
(121.593,45,o),
(75.235,128,o),
(106.056,273,cs),
(136.877,418,o),
(218.519,501,o),
(331.519,501,cs),
(439.519,501,o),
(475.263,401,o),
(448.056,273,cs),
(420.849,145,o),
(342.593,45,o),
(234.593,45,cs)
);
},
{
closed = 1;
nodes = (
(458.028,0,l),
(572,546,l),
(504,546,l),
(471.225,382,l),
(424.887,164,l),
(390.028,0,l)
);
}
);
userData = {
com.hugojourdan.ColorFlow = {
"0" = 0;
"1" = 0;
"10" = 0;
"11" = 0;
"2" = 0;
"3" = 0;
"4" = 0;
"5" = 0;
"6" = 0;
"7" = 0;
"8" = 0;
"9" = 0;
};
};
width = 588;
},
{
anchors = (
{
name = bottom;
pos = (245,0);
},
{
name = ogonek;
pos = (492,10);
},
{
name = top;
pos = (365,560);
}
);
layerId = "66114D67-63CC-4821-8086-0090D571F0A1";
shapes = (
{
closed = 1;
nodes = (
(289,-15,o),
(375,52,o),
(402,159,c),
(482,281,l),
(453,402,l),
(472,510,o),
(414,575,o),
(320,575,cs),
(192,575,o),
(71,487,o),
(29,290,cs),
(-13,93,o),
(76,-15,o),
(194,-15,cs)
);
},
{
closed = 1;
nodes = (
(171,103,o),
(141,171,o),
(166,290,cs),
(188,391,o),
(248,458,o),
(332,458,cs),
(416,458,o),
(437,383,o),
(415,281,cs),
(393,177,o),
(339,103,o),
(256,103,cs)
);
},
{
closed = 1;
nodes = (
(491,0,l),
(610,560,l),
(474,560,l),
(438,390,l),
(391,167,l),
(355,0,l)
);
}
);
userData = {
com.hugojourdan.ColorFlow = {
"0" = 0;
"1" = 0;
"10" = 0;
"11" = 0;
"2" = 0;
"3" = 0;
"4" = 0;
"5" = 0;
"6" = 0;
"7" = 0;
"8" = 0;
"9" = 0;
};
};
width = 610;
}
);
metricLeft = d;
metricRight = d;
},
{
color = 6;
glyphname = f_i;
kernLeft = KO_f;
kernRight = KO_i;
lastChange = "2025-05-28 12:37:31 +0000";
layers = (
{
anchors = (
{
name = bottom_1;
pos = (91,0);
},
{
name = bottom_2;
pos = (389,0);
},
{
name = caret_1;
pos = (298,0);
},
{
name = top_1;
pos = (253,760);
},
{
name = top_2;
pos = (551,760);
}
);
layerId = "73572E25-487C-487F-975F-150A505979A5";
shapes = (
{
closed = 1;
nodes = (
(547,486,l),
(560,546,l),
(240,546,l),
(227,486,l)
);
},
{
alignment = -1;
ref = _f.short;
},
{
alignment = -1;
pos = (384,0);
ref = i;
}
);
userData = {
com.hugojourdan.ColorFlow = {
"0" = 0;
"1" = 0;
"10" = 0;
"11" = 0;
"2" = 0;
"3" = 0;
"4" = 0;
"5" = 0;
"6" = 0;
"7" = 0;
"8" = 0;
"9" = 0;
};
};
width = 596;
},
{
anchors = (
{
name = bottom_1;
pos = (100,0);
},
{
name = bottom_2;
pos = (420,0);
},
{
name = caret_1;
pos = (320,0);
},
{
name = top_1;
pos = (262,760);
},
{
name = top_2;
pos = (582,760);
}
);
layerId = "66114D67-63CC-4821-8086-0090D571F0A1";
shapes = (
{
closed = 1;
nodes = (
(572,446,l),
(597,560,l),
(236,560,l),
(212,446,l)
);
},
{
alignment = -1;
ref = _f.short;
},
{
alignment = -1;
pos = (385,0);
ref = i;
}
);
userData = {
com.hugojourdan.ColorFlow = {
"0" = 0;
"1" = 0;
"10" = 0;
"11" = 0;
"2" = 0;
"3" = 0;
"4" = 0;
"5" = 0;
"6" = 0;
"7" = 0;
"8" = 0;
"9" = 0;
};
};
width = 642;
}
);
metricLeft = f;
metricRight = i;
},
{
glyphname = f_l;
kernLeft = KO_f;
kernRight = KO_l;
lastChange = "2025-05-28 12:37:31 +0000";
layers = (
{
anchors = (
{
name = bottom_1;
pos = (103,0);
},
{
name = bottom_2;
pos = (425,0);
},
{
name = caret_1;
pos = (322,0);
},
{
name = top_1;
pos = (265,760);
},
{
name = top_2;
pos = (587,760);
}
);
layerId = "73572E25-487C-487F-975F-150A505979A5";
shapes = (
{
closed = 1;
nodes = (
(547,486,l),
(560,546,l),
(240,546,l),
(227,486,l)
);
},
{
alignment = -1;
ref = _f.short;
},
{
alignment = -1;
pos = (384,0);
ref = l;
}
);
userData = {
com.hugojourdan.ColorFlow = {
"0" = 0;
"1" = 0;
"10" = 0;
"11" = 0;
"2" = 0;
"3" = 0;
"4" = 0;
"5" = 0;
"6" = 0;
"7" = 0;
"8" = 0;
"9" = 0;
};
};
width = 644;
},
{
anchors = (
{
name = bottom_1;
pos = (174,0);
},
{
name = bottom_2;
pos = (520,0);
},
{
name = caret_1;
pos = (347,0);
},
{
name = top_1;
pos = (336,760);
},
{
name = top_2;
pos = (682,760);
}
);
layerId = "66114D67-63CC-4821-8086-0090D571F0A1";
shapes = (
{
closed = 1;
nodes = (
(612,446,l),
(637,560,l),
(276,560,l),
(252,446,l)
);
},
{
alignment = -1;
ref = _f.short;
},
{
alignment = -1;
pos = (389,0);
ref = l;
}
);
userData = {
com.hugojourdan.ColorFlow = {
"0" = 0;
"1" = 0;
"10" = 0;
"11" = 0;
"2" = 0;
"3" = 0;
"4" = 0;
"5" = 0;
"6" = 0;
"7" = 0;
"8" = 0;
"9" = 0;
};
};
width = 695;
}
);
metricLeft = f;
metricRight = l;
},
{
color = 0;
glyphname = ordfeminine;
lastChange = "2025-05-28 12:37:31 +0000";
layers = (
{
layerId = "73572E25-487C-487F-975F-150A505979A5";
shapes = (
{
closed = 1;
nodes = (
(257,500,l),
(292,665,ls),
(306,727,o),
(272,750,o),
(217,750,cs),
(176,750,o),
(139,733,o),
(116,703,c),
(141,673,l),
(157,698,o),
(184,713,o),
(212,713,cs),
(239,713,o),
(256,699,o),
(249,669,cs),
(213,500,l)
);
},
{
closed = 1;
nodes = (
(186,495,o),
(221,519,o),
(233,569,c),
(236,606,l),
(225,557,o),
(197,531,o),
(160,531,cs),
(138,531,o),
(120,541,o),
(125,567,cs),
(131,591,o),
(148,604,o),
(185,610,cs),
(245,620,l),
(252,654,l),
(188,644,ls),
(124,634,o),
(90,609,o),
(83,575,cs),
(72,525,o),
(94,495,o),
(141,495,cs)
);
}
);
userData = {
com.hugojourdan.ColorFlow = {
"0" = 0;
"1" = 0;
"10" = 0;
"11" = 0;
"2" = 0;
"3" = 0;
"4" = 0;
"5" = 0;
"6" = 0;
"7" = 0;
"8" = 0;
"9" = 0;
};
};
width = 240;
},
{
layerId = "66114D67-63CC-4821-8086-0090D571F0A1";
shapes = (
{
closed = 1;
nodes = (
(269,500,l),
(305,668,ls),
(316,724,o),
(284,756,o),
(222,756,cs),
(180,756,o),
(140,745,o),
(108,722,c),
(135,667,l),
(153,685,o),
(179,696,o),
(205,696,cs),
(224,696,o),
(238,687,o),
(233,666,cs),
(198,500,l)
);
},
{
closed = 1;
nodes = (
(178,495,o),
(204,521,o),
(215,564,c),
(221,609,l),
(212,568,o),
(195,549,o),
(169,549,cs),
(154,549,o),
(142,558,o),
(145,575,cs),
(149,590,o),
(161,600,o),
(183,604,cs),
(229,614,l),
(238,658,l),
(180,647,ls),
(119,635,o),
(82,613,o),
(74,574,cs),
(64,526,o),
(89,495,o),
(134,495,cs)
);
}
);
userData = {
com.hugojourdan.ColorFlow = {
"0" = 0;
"1" = 0;
"10" = 0;
"11" = 0;
"2" = 0;
"3" = 0;
"4" = 0;
"5" = 0;
"6" = 0;
"7" = 0;
"8" = 0;
"9" = 0;
};
};
width = 248;
}
);
unicode = 170;
},
{
color = 0;
glyphname = ordmasculine;
lastChange = "2025-05-28 12:37:31 +0000";
layers = (
{
anchors = (
{
name = bottom;
pos = (178,500);
},
{
name = center;
pos = (204,621);
},
{
name = ogonek;
pos = (279,504);
},
{
name = top;
pos = (229,741);
},
{
name = topright;
pos = (345,741);
}
);
layerId = "73572E25-487C-487F-975F-150A505979A5";
shapes = (
{
closed = 1;
nodes = (
(245,493,o),
(298,544,o),
(314,621,cs),
(331,700,o),
(299,750,o),
(231,750,cs),
(162,750,o),
(111,699,o),
(94,621,cs),
(78,545,o),
(108,493,o),
(177,493,c)
);
},
{
closed = 1;
nodes = (
(143,531,o),
(125,565,o),
(137,621,cs),
(149,678,o),
(178,712,o),
(223,712,cs),
(267,712,o),
(282,679,o),
(270,621,cs),
(258,565,o),
(229,531,o),
(185,531,c)
);
}
);
userData = {
com.hugojourdan.ColorFlow = {
"0" = 0;
"1" = 0;
"10" = 0;
"11" = 0;
"2" = 0;
"3" = 0;
"4" = 0;
"5" = 0;
"6" = 0;
"7" = 0;
"8" = 0;
"9" = 0;
};
};
width = 260;
},
{
anchors = (
{
name = bottom;
pos = (178,500);
},
{
name = center;
pos = (204,624);
},
{
name = ogonek;
pos = (281,504);
},
{
name = top;
pos = (231,749);
},
{
name = topright;
pos = (349,749);
}
);
layerId = "66114D67-63CC-4821-8086-0090D571F0A1";
shapes = (
{
closed = 1;
nodes = (
(251,493,o),
(305,547,o),
(321,624,cs),
(337,701,o),
(307,756,o),
(232,756,cs),
(158,756,o),
(105,702,o),
(88,624,cs),
(72,549,o),
(101,493,o),
(176,493,c)
);
},
{
closed = 1;
nodes = (
(161,553,o),
(147,574,o),
(158,624,cs),
(169,675,o),
(189,696,o),
(219,696,cs),
(248,696,o),
(261,676,o),
(250,624,cs),
(240,575,o),
(219,553,o),
(189,553,c)
);
}
);
userData = {
com.hugojourdan.ColorFlow = {
"0" = 0;
"1" = 0;
"10" = 0;
"11" = 0;
"2" = 0;
"3" = 0;
"4" = 0;
"5" = 0;
"6" = 0;
"7" = 0;
"8" = 0;
"9" = 0;
};
};
width = 262;
}
);
unicode = 186;
},
{
glyphname = zero;
kernLeft = KO_zero;
kernRight = KO_zero;
lastChange = "2025-05-28 12:37:31 +0000";
layers = (
{
layerId = "73572E25-487C-487F-975F-150A505979A5";
shapes = (
{
closed = 1;
nodes = (
(437,-12,o),
(550,140,o),
(595,351,cs),
(639,561,o),
(592,714,o),
(425,714,cs),
(247,714,o),
(131,561,o),
(87,351,cs),
(42,140,o),
(92,-12,o),
(270,-12,cs)
);
},
{
closed = 1;
nodes = (
(150,47,o),
(123,160,o),
(164,351,cs),
(204,543,o),
(279,655,o),
(412,655,cs),
(536,655,o),
(558,543,o),
(518,351,cs),
(477,160,o),
(408,47,o),
(283,47,cs)
);
}
);
userData = {
com.hugojourdan.ColorFlow = {
"0" = 0;
"1" = 0;
"10" = 0;
"11" = 0;
"2" = 0;
"3" = 0;
"4" = 0;
"5" = 0;
"6" = 0;
"7" = 0;
"8" = 0;
"9" = 0;
};
};
width = 648;
},
{
layerId = "66114D67-63CC-4821-8086-0090D571F0A1";
shapes = (
{
closed = 1;
nodes = (
(439,-12,o),
(553,130,o),
(600,351,cs),
(647,571,o),
(593,714,o),
(413,714,cs),
(226,714,o),
(106,572,o),
(59,351,cs),
(12,131,o),
(72,-12,o),
(259,-12,cs)
);
},
{
closed = 1;
nodes = (
(181,104,o),
(168,192,o),
(202,351,cs),
(236,510,o),
(285,599,o),
(389,599,cs),
(483,599,o),
(493,511,o),
(459,351,cs),
(426,194,o),
(380,104,o),
(284,104,cs)
);
}
);
userData = {
com.hugojourdan.ColorFlow = {
"0" = 0;
"1" = 0;
"10" = 0;
"11" = 0;
"2" = 0;
"3" = 0;
"4" = 0;
"5" = 0;
"6" = 0;
"7" = 0;
"8" = 0;
"9" = 0;
};
};
width = 629;
}
);
metricRight = "=|";
unicode = 48;
},
{
glyphname = one;
kernLeft = KO_one;
kernRight = KO_one;
lastChange = "2025-05-28 12:37:31 +0000";
layers = (
{
layerId = "73572E25-487C-487F-975F-150A505979A5";
shapes = (
{
closed = 1;
nodes = (
(232,0,l),
(381,700,l),
(184,700,l),
(114,640,l),
(329,640,l),
(302,686,l),
(156,0,l)
);
}
);
userData = {
com.hugojourdan.ColorFlow = {
"0" = 0;
"1" = 0;
"10" = 0;
"11" = 0;
"2" = 0;
"3" = 0;
"4" = 0;
"5" = 0;
"6" = 0;
"7" = 0;
"8" = 0;
"9" = 0;
};
};
width = 411;
},
{
layerId = "66114D67-63CC-4821-8086-0090D571F0A1";
shapes = (
{
closed = 1;
nodes = (
(284,0,l),
(433,700,l),
(180,700,l),
(98,585,l),
(300,585,l),
(284,686,l),
(139,0,l)
);
}
);
userData = {
com.hugojourdan.ColorFlow = {
"0" = 0;
"1" = 0;
"10" = 0;
"11" = 0;
"2" = 0;
"3" = 0;
"4" = 0;
"5" = 0;
"6" = 0;
"7" = 0;
"8" = 0;
"9" = 0;
};
};
width = 433;
}
);
unicode = 49;
},
{
glyphname = two;
kernLeft = KO_two;
kernRight = KO_two;
lastChange = "2025-05-28 12:37:31 +0000";
layers = (
{
layerId = "73572E25-487C-487F-975F-150A505979A5";
shapes = (
{
closed = 1;
nodes = (
(458,0,l),
(470,58,l),
(54,58,l),
(92,23,l),
(362,252,ls),
(493,363,o),
(536,431,o),
(550,498,cs),
(578,630,o),
(494,715,o),
(367,715,cs),
(274,715,o),
(148,679,o),
(101,488,c),
(171,469,l),
(204,621,o),
(289,655,o),
(363,655,cs),
(429,655,o),
(491,602,o),
(470,503,cs),
(455,433,o),
(424,394,o),
(335,319,cs),
(22,55,l),
(10,0,l)
);
}
);
userData = {
com.hugojourdan.ColorFlow = {
"0" = 0;
"1" = 0;
"10" = 0;
"11" = 0;
"2" = 0;
"3" = 0;
"4" = 0;
"5" = 0;
"6" = 0;
"7" = 0;
"8" = 0;
"9" = 0;
};
};
width = 556;
},
{
layerId = "66114D67-63CC-4821-8086-0090D571F0A1";
shapes = (
{
closed = 1;
nodes = (
(488,0,l),
(513,115,l),
(67,115,l),
(114,22,l),
(400,239,ls),
(532,339,o),
(572,396,o),
(588,472,cs),
(620,624,o),
(531,715,o),
(378,715,cs),
(236,715,o),
(128,636,o),
(92,490,c),
(220,446,l),
(246,555,o),
(307,600,o),
(373,600,cs),
(428,600,o),
(456,552,o),
(443,491,cs),
(430,429,o),
(384,384,o),
(293,316,cs),
(37,127,l),
(10,0,l)
);
}
);
userData = {
com.hugojourdan.ColorFlow = {
"0" = 0;
"1" = 0;
"10" = 0;
"11" = 0;
"2" = 0;
"3" = 0;
"4" = 0;
"5" = 0;
"6" = 0;
"7" = 0;
"8" = 0;
"9" = 0;
};
};
width = 589;
}
);
unicode = 50;
},
{
glyphname = three;
kernLeft = KO_three;
kernRight = KO_three;
lastChange = "2025-05-28 12:37:31 +0000";
layers = (
{
layerId = "73572E25-487C-487F-975F-150A505979A5";
shapes = (
{
attr = {
identifier = ID0x3535f16a0;
};
closed = 1;
nodes = (
(377,-15,o),
(469,62,o),
(493,174,cs),
(515,276,o),
(467,354,o),
(380,370,c),
(375,362,l),
(461,374,o),
(529,436,o),
(546,517,cs),
(572,641,o),
(496,715,o),
(372,715,cs),
(236,715,o),
(149,646,o),
(111,525,c),
(183,509,l),
(214,614,o),
(279,655,o),
(364,655,cs),
(446,655,o),
(485,609,o),
(468,529,cs),
(450,444,o),
(399,397,o),
(308,397,cs),
(253,397,l),
(241,337,l),
(291,337,ls),
(393,337,o),
(435,281,o),
(414,184,cs),
(397,103,o),
(326,45,o),
(242,45,cs),
(147,45,o),
(103,101,o),
(113,213,c),
(37,203,l),
(22,62,o),
(99,-15,o),
(237,-15,cs)
);
}
);
userData = {
com.hugojourdan.ColorFlow = {
"0" = 0;
"1" = 0;
"10" = 0;
"11" = 0;
"2" = 0;
"3" = 0;
"4" = 0;
"5" = 0;
"6" = 0;
"7" = 0;
"8" = 0;
"9" = 0;
};
};
width = 557;
},
{
layerId = "66114D67-63CC-4821-8086-0090D571F0A1";
shapes = (
{
attr = {
identifier = ID0x3535f16a0;
};
closed = 1;
nodes = (
(391,-15,o),
(497,63,o),
(520,171,cs),
(543,277,o),
(502,355,o),
(421,370,c),
(416,362,l),
(495,373,o),
(562,433,o),
(579,515,cs),
(605,637,o),
(519,715,o),
(377,715,cs),
(236,715,o),
(139,645,o),
(94,519,c),
(231,483,l),
(246,555,o),
(296,600,o),
(357,600,cs),
(414,600,o),
(440,569,o),
(429,513,cs),
(416,455,o),
(376,424,o),
(307,424,cs),
(249,424,l),
(223,304,l),
(277,304,ls),
(364,304,o),
(395,266,o),
(382,201,cs),
(369,143,o),
(318,101,o),
(258,101,cs),
(188,101,o),
(155,144,o),
(164,223,c),
(17,200,l),
(1,58,o),
(86,-15,o),
(256,-15,cs)
);
}
);
userData = {
com.hugojourdan.ColorFlow = {
"0" = 0;
"1" = 0;
"10" = 0;
"11" = 0;
"2" = 0;
"3" = 0;
"4" = 0;
"5" = 0;
"6" = 0;
"7" = 0;
"8" = 0;
"9" = 0;
};
};
width = 588;
}
);
unicode = 51;
},
{
glyphname = four;
kernLeft = KO_four;
kernRight = KO_four;
lastChange = "2025-05-28 12:37:31 +0000";
layers = (
{
layerId = "73572E25-487C-487F-975F-150A505979A5";
shapes = (
{
closed = 1;
nodes = (
(351,0,l),
(389,179,l),
(500,179,l),
(513,239,l),
(402,239,l),
(500,700,l),
(380,700,l),
(5,242,l),
(-8,179,l),
(313,179,l),
(275,0,l)
);
},
{
closed = 1;
nodes = (
(412,645,l),
(326,239,l),
(84,239,l)
);
}
);
userData = {
com.hugojourdan.ColorFlow = {
"0" = 0;
"1" = 0;
"10" = 0;
"11" = 0;
"2" = 0;
"3" = 0;
"4" = 0;
"5" = 0;
"6" = 0;
"7" = 0;
"8" = 0;
"9" = 0;
};
};
width = 582;
},
{
layerId = "66114D67-63CC-4821-8086-0090D571F0A1";
shapes = (
{
closed = 1;
nodes = (
(410,0,l),
(442,151,l),
(532,151,l),
(557,270,l),
(467,270,l),
(559,700,l),
(337,700,l),
(12,274,l),
(-14,151,l),
(297,151,l),
(265,0,l)
);
},
{
closed = 1;
nodes = (
(396,617,l),
(323,270,l),
(138,270,l)
);
}
);
userData = {
com.hugojourdan.ColorFlow = {
"0" = 0;
"1" = 0;
"10" = 0;
"11" = 0;
"2" = 0;
"3" = 0;
"4" = 0;
"5" = 0;
"6" = 0;
"7" = 0;
"8" = 0;
"9" = 0;
};
};
width = 600;
},
{
associatedMasterId = "73572E25-487C-487F-975F-150A505979A5";
layerId = "99695CD5-B13F-41FB-BC81-B0BBF44F32A8";
name = "6 Feb 25 at 10:45";
shapes = (
{
closed = 1;
nodes = (
(350.972,0,l),
(499.762,700,l),
(379.762,700,l),
(5.411,242,l),
(-7.98,179,l),
(500.02,179,l),
(512.773,239,l),
(55.773,239,l),
(66.097,217,l),
(428.535,666,l),
(429.685,662,l),
(419.298,679,l),
(274.972,0,l)
);
}
);
userData = {
com.hugojourdan.ColorFlow = {
"0" = 0;
"1" = 0;
"10" = 0;
"11" = 0;
"2" = 0;
"3" = 0;
"4" = 0;
"5" = 0;
"6" = 0;
"7" = 0;
"8" = 0;
"9" = 0;
};
};
width = 582;
},
{
associatedMasterId = "66114D67-63CC-4821-8086-0090D571F0A1";
layerId = "A82C45D0-2412-4333-B6F7-5203CBEC2DDE";
name = "6 Feb 25 at 10:45";
shapes = (
{
closed = 1;
nodes = (
(409.795,0,l),
(558.584,700,l),
(337.245,700,l),
(12.372,274.029,l),
(-13.732,151.223,l),
(531.919,151.223,l),
(557.145,269.903,l),
(55.864,269.903,l),
(78.502,190.369,l),
(399.154,620.602,l),
(425.313,615.456,l),
(399.664,632.456,l),
(265.232,0,l)
);
}
);
userData = {
com.hugojourdan.ColorFlow = {
"0" = 0;
"1" = 0;
"10" = 0;
"11" = 0;
"2" = 0;
"3" = 0;
"4" = 0;
"5" = 0;
"6" = 0;
"7" = 0;
"8" = 0;
"9" = 0;
};
};
width = 600;
}
);
unicode = 52;
userData = {
KernOnName = four;
};
},
{
glyphname = five;
kernLeft = KO_five;
kernRight = KO_five;
lastChange = "2025-05-28 12:37:31 +0000";
layers = (
{
layerId = "73572E25-487C-487F-975F-150A505979A5";
shapes = (
{
attr = {
identifier = ID0x37be8a340;
};
closed = 1;
nodes = (
(360,-15,o),
(483,47,o),
(521,227,cs),
(555,386,o),
(466,472,o),
(347,472,cs),
(278,472,o),
(200,448,o),
(165,376,c),
(191,389,l),
(290,693,l),
(228,640,l),
(548,640,l),
(561,700,l),
(219,700,l),
(92,322,l),
(142,304,l),
(189,383,o),
(261,412,o),
(322,412,cs),
(420,412,o),
(473,350,o),
(448,233,cs),
(425,121,o),
(346,45,o),
(248,45,cs),
(156,45,o),
(93,108,o),
(106,211,c),
(33,202,l),
(18,60,o),
(112,-15,o),
(243,-15,cs)
);
}
);
userData = {
com.hugojourdan.ColorFlow = {
"0" = 0;
"1" = 0;
"10" = 0;
"11" = 0;
"2" = 0;
"3" = 0;
"4" = 0;
"5" = 0;
"6" = 0;
"7" = 0;
"8" = 0;
"9" = 0;
};
};
width = 581;
},
{
layerId = "66114D67-63CC-4821-8086-0090D571F0A1";
shapes = (
{
attr = {
identifier = ID0x37be8a340;
};
closed = 1;
nodes = (
(369,-15,o),
(501,55,o),
(539,232,cs),
(572,387,o),
(489,479,o),
(370,479,cs),
(304,479,o),
(232,455,o),
(196,376,c),
(214,389,l),
(319,693,l),
(206,585,l),
(549,585,l),
(574,700,l),
(197,700,l),
(76,356,l),
(176,283,l),
(203,338,o),
(259,363,o),
(305,363,cs),
(371,363,o),
(413,322,o),
(395,236,cs),
(377,151,o),
(311,101,o),
(246,101,cs),
(188,101,o),
(142,144,o),
(152,220,c),
(10,190,l),
(-6,47,o),
(105,-15,o),
(238,-15,cs)
);
}
);
userData = {
com.hugojourdan.ColorFlow = {
"0" = 0;
"1" = 0;
"10" = 0;
"11" = 0;
"2" = 0;
"3" = 0;
"4" = 0;
"5" = 0;
"6" = 0;
"7" = 0;
"8" = 0;
"9" = 0;
};
};
width = 577;
}
);
unicode = 53;
},
{
glyphname = six;
kernLeft = KO_six;
kernRight = KO_six;
lastChange = "2025-05-28 12:37:31 +0000";
layers = (
{
layerId = "73572E25-487C-487F-975F-150A505979A5";
shapes = (
{
attr = {
identifier = ID0x1492ec2d0;
};
closed = 1;
nodes = (
(374,-15,o),
(495,57,o),
(529,217,cs),
(565,386,o),
(472,472,o),
(359,472,cs),
(249,472,o),
(159,403,o),
(132,318,c),
(135,297,l),
(151,374,ls),
(179,496,o),
(240,657,o),
(387,657,cs),
(454,657,o),
(500,612,o),
(497,529,c),
(572,545,l),
(578,654,o),
(498,715,o),
(394,715,cs),
(195,715,o),
(110,535,o),
(76,388,cs),
(21,150,o),
(48,-15,o),
(249,-15,cs)
);
},
{
attr = {
identifier = ID0x1492ec2d0;
};
closed = 1;
nodes = (
(152,45,o),
(107,120,o),
(131,232,cs),
(160,369,o),
(269,412,o),
(341,412,cs),
(433,412,o),
(482,350,o),
(457,232,cs),
(434,120,o),
(348,45,o),
(263,45,cs)
);
}
);
userData = {
com.hugojourdan.ColorFlow = {
"0" = 0;
"1" = 0;
"10" = 0;
"11" = 0;
"2" = 0;
"3" = 0;
"4" = 0;
"5" = 0;
"6" = 0;
"7" = 0;
"8" = 0;
"9" = 0;
};
};
width = 581;
},
{
layerId = "66114D67-63CC-4821-8086-0090D571F0A1";
shapes = (
{
attr = {
identifier = ID0x1492ec2d0;
};
closed = 1;
nodes = (
(382,-15,o),
(508,51,o),
(545,223,cs),
(578,378,o),
(493,472,o),
(382,472,cs),
(280,472,o),
(201,409,o),
(174,325,c),
(176,297,l),
(192,374,ls),
(215,473,o),
(254,600,o),
(364,600,cs),
(407,600,o),
(448,577,o),
(440,505,c),
(593,545,l),
(593,656,o),
(510,715,o),
(401,715,cs),
(178,715,o),
(90,540,o),
(48,362,cs),
(-3,149,o),
(31,-15,o),
(255,-15,cs)
);
},
{
attr = {
identifier = ID0x1492ec2d0;
};
closed = 1;
nodes = (
(193,101,o),
(154,150,o),
(172,232,cs),
(191,322,o),
(263,357,o),
(319,357,cs),
(383,357,o),
(421,316,o),
(403,232,cs),
(386,151,o),
(324,101,o),
(261,101,cs)
);
}
);
userData = {
com.hugojourdan.ColorFlow = {
"0" = 0;
"1" = 0;
"10" = 0;
"11" = 0;
"2" = 0;
"3" = 0;
"4" = 0;
"5" = 0;
"6" = 0;
"7" = 0;
"8" = 0;
"9" = 0;
};
};
width = 590;
}
);
unicode = 54;
userData = {
KernOnName = six;
};
},
{
glyphname = seven;
kernLeft = KO_seven;
kernRight = KO_seven;
lastChange = "2025-05-28 12:37:31 +0000";
layers = (
{
layerId = "73572E25-487C-487F-975F-150A505979A5";
shapes = (
{
closed = 1;
nodes = (
(175,0,l),
(582,625,l),
(598,700,l),
(146,700,l),
(133,640,l),
(532,640,l),
(536,679,l),
(77,0,l)
);
}
);
userData = {
com.hugojourdan.ColorFlow = {
"0" = 0;
"1" = 0;
"10" = 0;
"11" = 0;
"2" = 0;
"3" = 0;
"4" = 0;
"5" = 0;
"6" = 0;
"7" = 0;
"8" = 0;
"9" = 0;
};
};
width = 537;
},
{
layerId = "66114D67-63CC-4821-8086-0090D571F0A1";
shapes = (
{
closed = 1;
nodes = (
(221,0,l),
(586,569,l),
(614,701,l),
(142,701,l),
(118,586,l),
(537,586,l),
(525,680,l),
(52,0,l)
);
}
);
userData = {
com.hugojourdan.ColorFlow = {
"0" = 0;
"1" = 0;
"10" = 0;
"11" = 0;
"2" = 0;
"3" = 0;
"4" = 0;
"5" = 0;
"6" = 0;
"7" = 0;
"8" = 0;
"9" = 0;
};
};
width = 555;
}
);
unicode = 55;
},
{
glyphname = eight;
kernLeft = KO_eight;
kernRight = KO_eight;
lastChange = "2025-05-28 12:37:31 +0000";
layers = (
{
layerId = "73572E25-487C-487F-975F-150A505979A5";
shapes = (
{
attr = {
identifier = ID0x7f82b6528300;
};
closed = 1;
nodes = (
(383,-13,o),
(469,74,o),
(490,174,cs),
(511,273,o),
(474,352,o),
(388,377,c),
(386,369,l),
(465,393,o),
(518,459,o),
(534,531,cs),
(555,631,o),
(502,713,o),
(368,713,cs),
(242,713,o),
(157,637,o),
(137,543,cs),
(121,468,o),
(145,397,o),
(213,370,c),
(214,376,l),
(133,356,o),
(52,284,o),
(34,196,cs),
(9,80,o),
(73,-13,o),
(228,-13,cs)
);
},
{
attr = {
identifier = ID0x7f82b6528300;
};
closed = 1;
nodes = (
(125,47,o),
(90,112,o),
(107,193,cs),
(124,273,o),
(196,338,o),
(294,338,cs),
(382,338,o),
(436,273,o),
(419,193,cs),
(402,112,o),
(349,47,o),
(232,47,cs)
);
},
{
attr = {
identifier = ID0x7f82b6528300;
};
closed = 1;
nodes = (
(238,411,o),
(199,468,o),
(214,535,cs),
(228,600,o),
(270,653,o),
(361,653,cs),
(442,653,o),
(473,600,o),
(459,535,cs),
(444,468,o),
(390,411,o),
(309,411,cs)
);
}
);
userData = {
com.hugojourdan.ColorFlow = {
"0" = 0;
"1" = 0;
"10" = 0;
"11" = 0;
"2" = 0;
"3" = 0;
"4" = 0;
"5" = 0;
"6" = 0;
"7" = 0;
"8" = 0;
"9" = 0;
};
};
width = 561;
},
{
layerId = "66114D67-63CC-4821-8086-0090D571F0A1";
shapes = (
{
attr = {
identifier = ID0x7f82b6528300;
};
closed = 1;
nodes = (
(391,-13,o),
(491,60,o),
(517,187,cs),
(536,280,o),
(503,354,o),
(422,377,c),
(420,369,l),
(496,389,o),
(546,450,o),
(560,517,cs),
(582,624,o),
(518,713,o),
(366,713,cs),
(225,713,o),
(131,635,o),
(110,530,cs),
(95,455,o),
(117,393,o),
(182,370,c),
(184,376,l),
(93,352,o),
(30,289,o),
(13,206,cs),
(-13,80,o),
(61,-13,o),
(234,-13,cs)
);
},
{
attr = {
identifier = ID0x7f82b6528300;
};
closed = 1;
nodes = (
(169,96,o),
(144,149,o),
(158,214,cs),
(172,278,o),
(231,325,o),
(293,325,cs),
(355,325,o),
(394,279,o),
(380,214,cs),
(366,150,o),
(320,96,o),
(244,96,cs)
);
},
{
attr = {
identifier = ID0x7f82b6528300;
};
closed = 1;
nodes = (
(264,423,o),
(235,465,o),
(246,516,cs),
(257,565,o),
(295,604,o),
(352,604,cs),
(409,604,o),
(432,566,o),
(421,516,cs),
(411,466,o),
(364,423,o),
(314,423,cs)
);
}
);
userData = {
com.hugojourdan.ColorFlow = {
"0" = 0;
"1" = 0;
"10" = 0;
"11" = 0;
"2" = 0;
"3" = 0;
"4" = 0;
"5" = 0;
"6" = 0;
"7" = 0;
"8" = 0;
"9" = 0;
};
};
width = 566;
}
);
metricRight = "=|";
unicode = 56;
},
{
glyphname = nine;
kernLeft = KO_nine;
kernRight = KO_nine;
lastChange = "2025-05-28 12:37:31 +0000";
layers = (
{
layerId = "73572E25-487C-487F-975F-150A505979A5";
shapes = (
{
attr = {
identifier = ID0x32713d930;
};
closed = 1;
nodes = (
(246,715,o),
(119,643,o),
(83,473,cs),
(49,314,o),
(138,228,o),
(265,228,cs),
(359,228,o),
(454,297,o),
(482,382,c),
(479,403,l),
(463,326,ls),
(435,204,o),
(374,43,o),
(227,43,cs),
(160,43,o),
(114,88,o),
(122,171,c),
(42,155,l),
(36,46,o),
(112,-15,o),
(228,-15,cs),
(422,-15,o),
(498,147,o),
(537,313,cs),
(593,550,o),
(567,715,o),
(368,715,cs)
);
},
{
attr = {
identifier = ID0x32713d930;
};
closed = 1;
nodes = (
(462,655,o),
(507,580,o),
(483,468,cs),
(454,331,o),
(351,288,o),
(282,288,cs),
(184,288,o),
(132,350,o),
(157,468,cs),
(180,580,o),
(266,655,o),
(356,655,cs)
);
}
);
userData = {
com.hugojourdan.ColorFlow = {
"0" = 0;
"1" = 0;
"10" = 0;
"11" = 0;
"2" = 0;
"3" = 0;
"4" = 0;
"5" = 0;
"6" = 0;
"7" = 0;
"8" = 0;
"9" = 0;
};
};
width = 581;
},
{
layerId = "66114D67-63CC-4821-8086-0090D571F0A1";
shapes = (
{
attr = {
identifier = ID0x367b60d50;
};
closed = 1;
nodes = (
(238,715,o),
(111,660,o),
(73,473,cs),
(41,311,o),
(136,228,o),
(248,228,cs),
(350,228,o),
(421,291,o),
(446,375,c),
(444,403,l),
(428,326,ls),
(405,227,o),
(366,100,o),
(256,100,cs),
(213,100,o),
(172,123,o),
(180,195,c),
(27,155,l),
(27,44,o),
(122,-15,o),
(249,-15,cs),
(453,-15,o),
(530,131,o),
(574,328,cs),
(623,551,o),
(589,715,o),
(365,715,cs)
);
},
{
attr = {
identifier = ID0x367b60d50;
};
closed = 1;
nodes = (
(423,599,o),
(466,550,o),
(448,468,cs),
(429,378,o),
(363,343,o),
(311,343,cs),
(240,343,o),
(199,384,o),
(217,471,cs),
(234,559,o),
(290,599,o),
(352,599,cs)
);
}
);
userData = {
com.hugojourdan.ColorFlow = {
"0" = 0;
"1" = 0;
"10" = 0;
"11" = 0;
"2" = 0;
"3" = 0;
"4" = 0;
"5" = 0;
"6" = 0;
"7" = 0;
"8" = 0;
"9" = 0;
};
};
width = 590;
}
);
unicode = 57;
},
{
glyphname = zero.zero;
kernLeft = KO_zero;
kernRight = KO_zero;
lastChange = "2025-05-28 12:37:31 +0000";
layers = (
{
layerId = "73572E25-487C-487F-975F-150A505979A5";
shapes = (
{
closed = 1;
nodes = (
(531,604,l),
(494,654,l),
(113,93,l),
(158,51,l)
);
},
{
alignment = -1;
ref = zero;
}
);
userData = {
com.hugojourdan.ColorFlow = {
"0" = 0;
"1" = 0;
"10" = 0;
"11" = 0;
"2" = 0;
"3" = 0;
"4" = 0;
"5" = 0;
"6" = 0;
"7" = 0;
"8" = 0;
"9" = 0;
};
};
width = 648;
},
{
layerId = "66114D67-63CC-4821-8086-0090D571F0A1";
shapes = (
{
closed = 1;
nodes = (
(542,574,l),
(469,634,l),
(101,133,l),
(181,81,l)
);
},
{
alignment = -1;
ref = zero;
}
);
userData = {
com.hugojourdan.ColorFlow = {
"0" = 0;
"1" = 0;
"10" = 0;
"11" = 0;
"2" = 0;
"3" = 0;
"4" = 0;
"5" = 0;
"6" = 0;
"7" = 0;
"8" = 0;
"9" = 0;
};
};
width = 629;
}
);
metricLeft = zero;
metricRight = zero;
},
{
glyphname = one.tf;
lastChange = "2025-05-28 12:37:31 +0000";
layers = (
{
layerId = "73572E25-487C-487F-975F-150A505979A5";
shapes = (
{
closed = 1;
nodes = (
(299,0,l),
(448,700,l),
(246,700,l),
(176,640,l),
(396,640,l),
(369,686,l),
(223,0,l)
);
},
{
closed = 1;
nodes = (
(458,60,l),
(62,60,l),
(49,0,l),
(445,0,l)
);
}
);
userData = {
com.hugojourdan.ColorFlow = {
"0" = 0;
"1" = 0;
"10" = 0;
"11" = 0;
"2" = 0;
"3" = 0;
"4" = 0;
"5" = 0;
"6" = 0;
"7" = 0;
"8" = 0;
"9" = 0;
};
};
width = 600;
},
{
layerId = "66114D67-63CC-4821-8086-0090D571F0A1";
shapes = (
{
closed = 1;
nodes = (
(344,0,l),
(493,700,l),
(215,700,l),
(133,581,l),
(358,581,l),
(343,686,l),
(197,0,l)
);
},
{
closed = 1;
nodes = (
(497,119,l),
(44,119,l),
(19,0,l),
(472,0,l)
);
}
);
userData = {
com.hugojourdan.ColorFlow = {
"0" = 0;
"1" = 0;
"10" = 0;
"11" = 0;
"2" = 0;
"3" = 0;
"4" = 0;
"5" = 0;
"6" = 0;
"7" = 0;
"8" = 0;
"9" = 0;
};
};
width = 600;
}
);
metricRight = "=|";
metricWidth = "=600";
},
{
glyphname = zero.tf.zero;
lastChange = "2025-05-28 12:37:31 +0000";
layers = (
{
layerId = "73572E25-487C-487F-975F-150A505979A5";
shapes = (
{
closed = 1;
nodes = (
(513,604,l),
(476,654,l),
(95,93,l),
(140,51,l)
);
},
{
alignment = 1;
pos = (-24,0);
ref = zero;
}
);
userData = {
com.hugojourdan.ColorFlow = {
"0" = 0;
"1" = 0;
"10" = 0;
"11" = 0;
"2" = 0;
"3" = 0;
"4" = 0;
"5" = 0;
"6" = 0;
"7" = 0;
"8" = 0;
"9" = 0;
};
};
width = 600;
},
{
layerId = "66114D67-63CC-4821-8086-0090D571F0A1";
shapes = (
{
closed = 1;
nodes = (
(543,574,l),
(461,634,l),
(93,133,l),
(183,81,l)
);
},
{
alignment = 1;
pos = (-14,0);
ref = zero;
}
);
userData = {
com.hugojourdan.ColorFlow = {
"0" = 0;
"1" = 0;
"10" = 0;
"11" = 0;
"2" = 0;
"3" = 0;
"4" = 0;
"5" = 0;
"6" = 0;
"7" = 0;
"8" = 0;
"9" = 0;
};
};
width = 600;
}
);
metricRight = "=|";
metricWidth = "=600";
},
{
color = 0;
glyphname = fraction;
lastChange = "2025-05-28 12:37:31 +0000";
layers = (
{
background = {
shapes = (
{
attr = {
strokeHeight = 65;
strokeWidth = 65;
};
closed = 0;
nodes = (
(550,700,l),
(-50,0,l)
);
}
);
};
layerId = "73572E25-487C-487F-975F-150A505979A5";
shapes = (
{
closed = 1;
nodes = (
(459,684,l),
(422,721,l),
(-327,21,l),
(-289,-16,l)
);
}
);
userData = {
com.hugojourdan.ColorFlow = {
"0" = 0;
"1" = 0;
"10" = 0;
"11" = 0;
"2" = 0;
"3" = 0;
"4" = 0;
"5" = 0;
"6" = 0;
"7" = 0;
"8" = 0;
"9" = 0;
};
};
width = 99;
},
{
layerId = "66114D67-63CC-4821-8086-0090D571F0A1";
shapes = (
{
closed = 1;
nodes = (
(473,680,l),
(424,730,l),
(-325,30,l),
(-276,-20,l)
);
}
);
userData = {
com.hugojourdan.ColorFlow = {
"0" = 0;
"1" = 0;
"10" = 0;
"11" = 0;
"2" = 0;
"3" = 0;
"4" = 0;
"5" = 0;
"6" = 0;
"7" = 0;
"8" = 0;
"9" = 0;
};
};
width = 116;
}
);
metricRight = "=|";
unicode = 8260;
},
{
color = 0;
glyphname = zeroinferior;
lastChange = "2025-05-28 12:37:31 +0000";
layers = (
{
background = {
shapes = (
{
pos = (42,-150);
ref = zero;
scale = (0.44,0.44);
}
);
};
layerId = "73572E25-487C-487F-975F-150A505979A5";
shapes = (
{
closed = 1;
nodes = (
(176,-155,o),
(227,-88,o),
(247,4,cs),
(267,97,o),
(244,164,o),
(166,164,cs),
(85,164,o),
(32,96,o),
(13,4,cs),
(-7,-88,o),
(18,-155,o),
(98,-155,cs)
);
},
{
closed = 1;
nodes = (
(57,-113,o),
(50,-70,o),
(66,4,cs),
(82,79,o),
(107,122,o),
(157,122,cs),
(204,122,o),
(210,80,o),
(194,4,cs),
(178,-71,o),
(154,-113,o),
(107,-113,cs)
);
}
);
userData = {
com.hugojourdan.ColorFlow = {
"0" = 0;
"1" = 0;
"10" = 0;
"11" = 0;
"2" = 0;
"3" = 0;
"4" = 0;
"5" = 0;
"6" = 0;
"7" = 0;
"8" = 0;
"9" = 0;
};
};
width = 374;
},
{
layerId = "66114D67-63CC-4821-8086-0090D571F0A1";
shapes = (
{
closed = 1;
nodes = (
(158,-155,o),
(211,-88,o),
(231,4,cs),
(250,96,o),
(225,164,o),
(144,164,cs),
(58,164,o),
(4,97,o),
(-15,4,cs),
(-35,-87,o),
(-9,-155,o),
(76,-155,cs)
);
},
{
closed = 1;
nodes = (
(52,-93,o),
(49,-58,o),
(62,4,cs),
(76,66,o),
(92,102,o),
(131,102,cs),
(164,102,o),
(167,67,o),
(153,4,cs),
(140,-57,o),
(125,-93,o),
(90,-93,cs)
);
}
);
userData = {
com.hugojourdan.ColorFlow = {
"0" = 0;
"1" = 0;
"10" = 0;
"11" = 0;
"2" = 0;
"3" = 0;
"4" = 0;
"5" = 0;
"6" = 0;
"7" = 0;
"8" = 0;
"9" = 0;
};
};
width = 334;
}
);
metricLeft = zero;
metricRight = zero;
unicode = 8320;
},
{
color = 0;
glyphname = oneinferior;
lastChange = "2025-05-28 12:37:31 +0000";
layers = (
{
background = {
shapes = (
{
pos = (23,-150);
ref = one;
scale = (0.44,0.44);
}
);
};
layerId = "73572E25-487C-487F-975F-150A505979A5";
shapes = (
{
closed = 1;
nodes = (
(74,-150,l),
(140,158,l),
(37,158,l),
(3,116,l),
(94,116,l),
(85,152,l),
(21,-150,l)
);
}
);
userData = {
com.hugojourdan.ColorFlow = {
"0" = 0;
"1" = 0;
"10" = 0;
"11" = 0;
"2" = 0;
"3" = 0;
"4" = 0;
"5" = 0;
"6" = 0;
"7" = 0;
"8" = 0;
"9" = 0;
};
};
width = 285;
},
{
layerId = "66114D67-63CC-4821-8086-0090D571F0A1";
shapes = (
{
closed = 1;
nodes = (
(89,-150,l),
(154,158,l),
(33,158,l),
(-6,96,l),
(81,96,l),
(77,152,l),
(13,-150,l)
);
}
);
userData = {
com.hugojourdan.ColorFlow = {
"0" = 0;
"1" = 0;
"10" = 0;
"11" = 0;
"2" = 0;
"3" = 0;
"4" = 0;
"5" = 0;
"6" = 0;
"7" = 0;
"8" = 0;
"9" = 0;
};
};
width = 269;
}
);
metricLeft = one;
metricRight = one;
unicode = 8321;
},
{
color = 0;
glyphname = twoinferior;
lastChange = "2025-05-28 12:37:31 +0000";
layers = (
{
background = {
shapes = (
{
pos = (27,-150);
ref = two;
scale = (0.44,0.44);
}
);
};
layerId = "73572E25-487C-487F-975F-150A505979A5";
shapes = (
{
closed = 1;
nodes = (
(181,-150,l),
(190,-107,l),
(-3,-107,l),
(17,-132,l),
(98,-71,ls),
(167,-19,o),
(210,22,o),
(220,73,cs),
(233,130,o),
(199,165,o),
(141,165,cs),
(88,165,o),
(31,138,o),
(11,66,c),
(59,49,l),
(73,104,o),
(102,121,o),
(129,121,cs),
(153,121,o),
(172,102,o),
(165,73,cs),
(159,42,o),
(133,15,o),
(86,-22,cs),
(-16,-102,l),
(-26,-150,l)
);
}
);
userData = {
com.hugojourdan.ColorFlow = {
"0" = 0;
"1" = 0;
"10" = 0;
"11" = 0;
"2" = 0;
"3" = 0;
"4" = 0;
"5" = 0;
"6" = 0;
"7" = 0;
"8" = 0;
"9" = 0;
};
};
width = 311;
},
{
layerId = "66114D67-63CC-4821-8086-0090D571F0A1";
shapes = (
{
closed = 1;
nodes = (
(188,-150,l),
(201,-87,l),
(-4,-87,l),
(19,-129,l),
(100,-75,ls),
(177,-26,o),
(214,14,o),
(226,68,cs),
(239,128,o),
(206,165,o),
(138,165,cs),
(72,165,o),
(20,125,o),
(2,66,c),
(70,41,l),
(80,80,o),
(100,102,o),
(124,102,cs),
(141,102,o),
(153,89,o),
(149,68,cs),
(144,45,o),
(125,25,o),
(88,-2,cs),
(-16,-76,l),
(-32,-150,l)
);
}
);
userData = {
com.hugojourdan.ColorFlow = {
"0" = 0;
"1" = 0;
"10" = 0;
"11" = 0;
"2" = 0;
"3" = 0;
"4" = 0;
"5" = 0;
"6" = 0;
"7" = 0;
"8" = 0;
"9" = 0;
};
};
width = 320;
}
);
metricLeft = two;
metricRight = two;
unicode = 8322;
},
{
color = 0;
glyphname = threeinferior;
lastChange = "2025-05-28 12:37:31 +0000";
layers = (
{
background = {
shapes = (
{
pos = (24,-150);
ref = three;
scale = (0.44,0.44);
}
);
};
layerId = "73572E25-487C-487F-975F-150A505979A5";
shapes = (
{
attr = {
identifier = ID0x35f242d10;
};
closed = 1;
nodes = (
(134,-157,o),
(185,-119,o),
(197,-63,cs),
(205,-23,o),
(185,7,o),
(150,13,c),
(148,9,l),
(182,15,o),
(211,44,o),
(220,83,cs),
(230,134,o),
(198,165,o),
(139,165,cs),
(76,165,o),
(34,131,o),
(15,80,c),
(65,67,l),
(76,106,o),
(100,123,o),
(129,123,cs),
(158,123,o),
(172,106,o),
(166,79,cs),
(159,48,o),
(138,33,o),
(105,33,cs),
(81,33,l),
(71,-12,l),
(92,-12,ls),
(134,-12,o),
(150,-31,o),
(143,-64,cs),
(137,-93,o),
(112,-114,o),
(82,-114,cs),
(51,-114,o),
(30,-98,o),
(35,-53,c),
(-19,-62,l),
(-26,-124,o),
(8,-157,o),
(73,-157,cs)
);
}
);
userData = {
com.hugojourdan.ColorFlow = {
"0" = 0;
"1" = 0;
"10" = 0;
"11" = 0;
"2" = 0;
"3" = 0;
"4" = 0;
"5" = 0;
"6" = 0;
"7" = 0;
"8" = 0;
"9" = 0;
};
};
width = 311;
},
{
layerId = "66114D67-63CC-4821-8086-0090D571F0A1";
shapes = (
{
attr = {
identifier = ID0x35f242d10;
};
closed = 1;
nodes = (
(131,-157,o),
(184,-118,o),
(196,-61,cs),
(205,-23,o),
(187,7,o),
(152,13,c),
(150,9,l),
(183,15,o),
(211,45,o),
(218,79,cs),
(230,134,o),
(195,165,o),
(132,165,cs),
(66,165,o),
(20,134,o),
(-3,78,c),
(68,58,l),
(72,84,o),
(91,103,o),
(114,103,cs),
(134,103,o),
(145,92,o),
(140,72,cs),
(137,52,o),
(120,40,o),
(95,40,cs),
(67,40,l),
(54,-22,l),
(80,-22,ls),
(114,-22,o),
(125,-37,o),
(120,-58,cs),
(116,-79,o),
(98,-94,o),
(75,-94,cs),
(52,-94,o),
(35,-80,o),
(40,-50,c),
(-39,-63,l),
(-46,-123,o),
(-9,-157,o),
(63,-157,cs)
);
}
);
userData = {
com.hugojourdan.ColorFlow = {
"0" = 0;
"1" = 0;
"10" = 0;
"11" = 0;
"2" = 0;
"3" = 0;
"4" = 0;
"5" = 0;
"6" = 0;
"7" = 0;
"8" = 0;
"9" = 0;
};
};
width = 313;
}
);
metricLeft = three;
metricRight = three;
unicode = 8323;
},
{
color = 0;
glyphname = fourinferior;
lastChange = "2025-05-28 12:37:31 +0000";
layers = (
{
background = {
shapes = (
{
pos = (-12,-150);
ref = four;
scale = (0.44,0.44);
}
);
};
layerId = "73572E25-487C-487F-975F-150A505979A5";
shapes = (
{
closed = 1;
nodes = (
(109,-150,l),
(175,158,l),
(93,158,l),
(-52,-30,l),
(-62,-74,l),
(168,-74,l),
(177,-32,l),
(-32,-32,l),
(-27,-59,l),
(115,128,l),
(126,128,l),
(117,136,l),
(56,-150,l)
);
}
);
userData = {
com.hugojourdan.ColorFlow = {
"0" = 0;
"1" = 0;
"10" = 0;
"11" = 0;
"2" = 0;
"3" = 0;
"4" = 0;
"5" = 0;
"6" = 0;
"7" = 0;
"8" = 0;
"9" = 0;
};
};
width = 304;
},
{
layerId = "66114D67-63CC-4821-8086-0090D571F0A1";
shapes = (
{
closed = 1;
nodes = (
(129,-150,l),
(195,158,l),
(82,158,l),
(-49,-13,l),
(-62,-77,l),
(181,-77,l),
(194,-15,l),
(-30,-15,l),
(-18,-62,l),
(110,112,l),
(125,112,l),
(110,119,l),
(53,-150,l)
);
}
);
userData = {
com.hugojourdan.ColorFlow = {
"0" = 0;
"1" = 0;
"10" = 0;
"11" = 0;
"2" = 0;
"3" = 0;
"4" = 0;
"5" = 0;
"6" = 0;
"7" = 0;
"8" = 0;
"9" = 0;
};
};
width = 298;
}
);
metricLeft = four;
metricRight = four;
unicode = 8324;
},
{
color = 0;
glyphname = fiveinferior;
lastChange = "2025-05-28 12:37:31 +0000";
layers = (
{
background = {
shapes = (
{
pos = (27,-150);
ref = five;
scale = (0.44,0.44);
}
);
};
layerId = "73572E25-487C-487F-975F-150A505979A5";
shapes = (
{
attr = {
identifier = ID0x35f2d4650;
};
closed = 1;
nodes = (
(126,-157,o),
(186,-123,o),
(202,-45,cs),
(217,23,o),
(181,59,o),
(127,59,cs),
(98,59,o),
(65,47,o),
(50,15,c),
(59,21,l),
(105,155,l),
(62,116,l),
(210,116,l),
(219,158,l),
(59,158,l),
(5,4,l),
(40,-22,l),
(56,7,o),
(84,17,o),
(106,17,cs),
(139,17,o),
(159,-4,o),
(150,-46,cs),
(141,-88,o),
(109,-114,o),
(75,-114,cs),
(46,-114,o),
(23,-92,o),
(28,-55,c),
(-24,-65,l),
(-31,-127,o),
(11,-157,o),
(67,-157,cs)
);
}
);
userData = {
com.hugojourdan.ColorFlow = {
"0" = 0;
"1" = 0;
"10" = 0;
"11" = 0;
"2" = 0;
"3" = 0;
"4" = 0;
"5" = 0;
"6" = 0;
"7" = 0;
"8" = 0;
"9" = 0;
};
};
width = 320;
},
{
layerId = "66114D67-63CC-4821-8086-0090D571F0A1";
shapes = (
{
attr = {
identifier = ID0x35f2d4650;
};
closed = 1;
nodes = (
(113,-157,o),
(177,-123,o),
(195,-43,cs),
(208,21,o),
(172,57,o),
(120,57,cs),
(91,57,o),
(61,46,o),
(46,15,c),
(54,21,l),
(99,155,l),
(40,96,l),
(196,96,l),
(209,158,l),
(37,158,l),
(-19,0,l),
(38,-32,l),
(47,-11,o),
(68,-1,o),
(86,-1,cs),
(107,-1,o),
(125,-15,o),
(118,-48,cs),
(112,-78,o),
(88,-94,o),
(65,-94,cs),
(45,-94,o),
(26,-80,o),
(31,-51,c),
(-45,-67,l),
(-52,-128,o),
(-6,-157,o),
(52,-157,cs)
);
}
);
userData = {
com.hugojourdan.ColorFlow = {
"0" = 0;
"1" = 0;
"10" = 0;
"11" = 0;
"2" = 0;
"3" = 0;
"4" = 0;
"5" = 0;
"6" = 0;
"7" = 0;
"8" = 0;
"9" = 0;
};
};
width = 292;
}
);
metricLeft = five;
metricRight = five;
unicode = 8325;
},
{
color = 0;
glyphname = sixinferior;
lastChange = "2025-05-28 12:37:31 +0000";
layers = (
{
background = {
shapes = (
{
pos = (31,-150);
ref = six;
scale = (0.44,0.44);
}
);
};
layerId = "73572E25-487C-487F-975F-150A505979A5";
shapes = (
{
attr = {
identifier = ID0x35f2d51e0;
};
closed = 1;
nodes = (
(132,-157,o),
(192,-124,o),
(208,-46,cs),
(223,22,o),
(184,58,o),
(135,58,cs),
(91,58,o),
(53,29,o),
(40,-8,c),
(42,-19,l),
(49,15,ls),
(59,60,o),
(79,123,o),
(134,123,cs),
(158,123,o),
(176,108,o),
(172,76,c),
(229,90,l),
(230,137,o),
(196,165,o),
(146,165,cs),
(60,165,o),
(16,99,o),
(-5,8,cs),
(-27,-84,o),
(-14,-157,o),
(75,-157,cs)
);
},
{
attr = {
identifier = ID0x35f2d51e0;
};
closed = 1;
nodes = (
(49,-114,o),
(31,-88,o),
(40,-48,cs),
(50,-1,o),
(87,16,o),
(114,16,cs),
(146,16,o),
(165,-5,o),
(156,-48,cs),
(147,-88,o),
(116,-114,o),
(85,-114,cs)
);
}
);
userData = {
com.hugojourdan.ColorFlow = {
"0" = 0;
"1" = 0;
"10" = 0;
"11" = 0;
"2" = 0;
"3" = 0;
"4" = 0;
"5" = 0;
"6" = 0;
"7" = 0;
"8" = 0;
"9" = 0;
};
};
width = 316;
},
{
layerId = "66114D67-63CC-4821-8086-0090D571F0A1";
shapes = (
{
attr = {
identifier = ID0x35f2d51e0;
};
closed = 1;
nodes = (
(121,-157,o),
(184,-122,o),
(199,-46,cs),
(214,21,o),
(180,58,o),
(130,58,cs),
(85,58,o),
(55,34,o),
(41,-6,c),
(42,-19,l),
(49,15,ls),
(58,54,o),
(73,104,o),
(113,104,cs),
(131,104,o),
(146,95,o),
(142,68,c),
(224,91,l),
(223,138,o),
(187,165,o),
(133,165,cs),
(39,165,o),
(-4,99,o),
(-27,11,cs),
(-51,-86,o),
(-33,-157,o),
(60,-157,cs)
);
},
{
attr = {
identifier = ID0x35f2d51e0;
};
closed = 1;
nodes = (
(50,-94,o),
(34,-78,o),
(40,-48,cs),
(47,-18,o),
(71,-4,o),
(92,-4,cs),
(115,-4,o),
(130,-18,o),
(123,-48,cs),
(117,-77,o),
(96,-94,o),
(73,-94,cs)
);
}
);
userData = {
com.hugojourdan.ColorFlow = {
"0" = 0;
"1" = 0;
"10" = 0;
"11" = 0;
"2" = 0;
"3" = 0;
"4" = 0;
"5" = 0;
"6" = 0;
"7" = 0;
"8" = 0;
"9" = 0;
};
};
width = 301;
}
);
metricLeft = six;
metricRight = six;
unicode = 8326;
},
{
color = 0;
glyphname = seveninferior;
lastChange = "2025-05-28 12:37:31 +0000";
layers = (
{
background = {
shapes = (
{
pos = (33,-150);
ref = seven;
scale = (0.44,0.44);
}
);
};
layerId = "73572E25-487C-487F-975F-150A505979A5";
shapes = (
{
closed = 1;
nodes = (
(58,-150,l),
(225,109,l),
(236,158,l),
(31,158,l),
(22,116,l),
(204,116,l),
(201,149,l),
(-1,-150,l)
);
}
);
userData = {
com.hugojourdan.ColorFlow = {
"0" = 0;
"1" = 0;
"10" = 0;
"11" = 0;
"2" = 0;
"3" = 0;
"4" = 0;
"5" = 0;
"6" = 0;
"7" = 0;
"8" = 0;
"9" = 0;
};
};
width = 290;
},
{
layerId = "66114D67-63CC-4821-8086-0090D571F0A1";
shapes = (
{
closed = 1;
nodes = (
(72,-150,l),
(224,89,l),
(238,158,l),
(27,158,l),
(14,96,l),
(202,96,l),
(192,149,l),
(-11,-150,l)
);
}
);
userData = {
com.hugojourdan.ColorFlow = {
"0" = 0;
"1" = 0;
"10" = 0;
"11" = 0;
"2" = 0;
"3" = 0;
"4" = 0;
"5" = 0;
"6" = 0;
"7" = 0;
"8" = 0;
"9" = 0;
};
};
width = 295;
}
);
metricLeft = seven;
metricRight = seven;
unicode = 8327;
},
{
color = 0;
glyphname = eightinferior;
lastChange = "2025-05-28 12:37:31 +0000";
layers = (
{
background = {
shapes = (
{
pos = (24,-150);
ref = eight;
scale = (0.44,0.44);
}
);
};
layerId = "73572E25-487C-487F-975F-150A505979A5";
shapes = (
{
attr = {
identifier = ID0x35f2d6900;
};
closed = 1;
nodes = (
(138,-156,o),
(184,-115,o),
(194,-65,cs),
(203,-25,o),
(186,6,o),
(150,16,c),
(150,12,l),
(184,22,o),
(207,50,o),
(213,80,cs),
(223,125,o),
(197,164,o),
(135,164,cs),
(75,164,o),
(32,126,o),
(22,80,cs),
(16,51,o),
(26,23,o),
(55,13,c),
(55,15,l),
(15,5,o),
(-14,-26,o),
(-22,-65,cs),
(-32,-115,o),
(-3,-156,o),
(67,-156,cs)
);
},
{
attr = {
identifier = ID0x35f2d6900;
};
closed = 1;
nodes = (
(38,-115,o),
(25,-90,o),
(31,-59,cs),
(38,-29,o),
(68,-5,o),
(99,-5,cs),
(131,-5,o),
(150,-29,o),
(143,-59,cs),
(137,-90,o),
(114,-115,o),
(76,-115,cs)
);
},
{
attr = {
identifier = ID0x35f2d6900;
};
closed = 1;
nodes = (
(82,35,o),
(68,55,o),
(73,80,cs),
(78,104,o),
(97,123,o),
(126,123,cs),
(156,123,o),
(166,104,o),
(161,80,cs),
(156,55,o),
(133,35,o),
(107,35,cs)
);
}
);
userData = {
com.hugojourdan.ColorFlow = {
"0" = 0;
"1" = 0;
"10" = 0;
"11" = 0;
"2" = 0;
"3" = 0;
"4" = 0;
"5" = 0;
"6" = 0;
"7" = 0;
"8" = 0;
"9" = 0;
};
};
width = 315;
},
{
layerId = "66114D67-63CC-4821-8086-0090D571F0A1";
shapes = (
{
attr = {
identifier = ID0x35f2d6900;
};
closed = 1;
nodes = (
(124,-156,o),
(174,-115,o),
(185,-63,cs),
(193,-26,o),
(179,6,o),
(146,16,c),
(145,12,l),
(177,22,o),
(199,48,o),
(205,78,cs),
(215,124,o),
(186,164,o),
(118,164,cs),
(52,164,o),
(6,125,o),
(-4,78,cs),
(-10,51,o),
(-1,22,o),
(27,13,c),
(28,15,l),
(-10,5,o),
(-37,-25,o),
(-44,-63,cs),
(-56,-114,o),
(-24,-156,o),
(50,-156,cs)
);
},
{
attr = {
identifier = ID0x35f2d6900;
};
closed = 1;
nodes = (
(37,-97,o),
(28,-78,o),
(33,-51,cs),
(39,-28,o),
(60,-9,o),
(82,-9,cs),
(103,-9,o),
(118,-27,o),
(112,-51,cs),
(107,-76,o),
(91,-97,o),
(63,-97,cs)
);
},
{
attr = {
identifier = ID0x35f2d6900;
};
closed = 1;
nodes = (
(76,39,o),
(64,53,o),
(68,72,cs),
(72,91,o),
(85,105,o),
(106,105,cs),
(126,105,o),
(135,92,o),
(131,72,cs),
(127,54,o),
(110,39,o),
(92,39,cs)
);
}
);
userData = {
com.hugojourdan.ColorFlow = {
"0" = 0;
"1" = 0;
"10" = 0;
"11" = 0;
"2" = 0;
"3" = 0;
"4" = 0;
"5" = 0;
"6" = 0;
"7" = 0;
"8" = 0;
"9" = 0;
};
};
width = 287;
}
);
metricLeft = eight;
metricRight = eight;
unicode = 8328;
},
{
color = 0;
glyphname = nineinferior;
lastChange = "2025-05-28 12:37:31 +0000";
layers = (
{
background = {
shapes = (
{
pos = (29,-150);
ref = nine;
scale = (0.44,0.44);
}
);
};
layerId = "73572E25-487C-487F-975F-150A505979A5";
shapes = (
{
attr = {
identifier = ID0x34eaae420;
};
closed = 1;
nodes = (
(70,165,o),
(10,132,o),
(-7,54,cs),
(-21,-14,o),
(17,-50,o),
(66,-50,cs),
(110,-50,o),
(149,-21,o),
(161,16,c),
(160,27,l),
(152,-7,ls),
(143,-52,o),
(123,-115,o),
(68,-115,cs),
(44,-115,o),
(27,-99,o),
(31,-68,c),
(-26,-82,l),
(-28,-130,o),
(8,-157,o),
(56,-157,cs),
(147,-157,o),
(187,-83,o),
(207,-1,cs),
(226,81,o),
(223,165,o),
(128,165,cs)
);
},
{
attr = {
identifier = ID0x34eaae420;
};
closed = 1;
nodes = (
(153,122,o),
(170,96,o),
(162,56,cs),
(152,9,o),
(114,-8,o),
(87,-8,cs),
(55,-8,o),
(37,13,o),
(46,56,cs),
(54,96,o),
(86,122,o),
(117,122,cs)
);
}
);
userData = {
com.hugojourdan.ColorFlow = {
"0" = 0;
"1" = 0;
"10" = 0;
"11" = 0;
"2" = 0;
"3" = 0;
"4" = 0;
"5" = 0;
"6" = 0;
"7" = 0;
"8" = 0;
"9" = 0;
};
};
width = 317;
},
{
layerId = "66114D67-63CC-4821-8086-0090D571F0A1";
shapes = (
{
attr = {
identifier = ID0x34eaae420;
};
closed = 1;
nodes = (
(63,165,o),
(0,131,o),
(-16,54,cs),
(-30,-13,o),
(5,-50,o),
(55,-50,cs),
(100,-50,o),
(131,-25,o),
(143,14,c),
(142,27,l),
(135,-7,ls),
(127,-46,o),
(111,-95,o),
(71,-95,cs),
(54,-95,o),
(39,-86,o),
(42,-60,c),
(-39,-83,l),
(-38,-130,o),
(-1,-157,o),
(51,-157,cs),
(143,-157,o),
(189,-94,o),
(210,-5,cs),
(236,96,o),
(217,165,o),
(125,165,cs)
);
},
{
attr = {
identifier = ID0x34eaae420;
};
closed = 1;
nodes = (
(135,102,o),
(151,86,o),
(144,56,cs),
(138,26,o),
(114,12,o),
(92,12,cs),
(70,12,o),
(55,26,o),
(62,56,cs),
(68,85,o),
(89,102,o),
(111,102,cs)
);
}
);
userData = {
com.hugojourdan.ColorFlow = {
"0" = 0;
"1" = 0;
"10" = 0;
"11" = 0;
"2" = 0;
"3" = 0;
"4" = 0;
"5" = 0;
"6" = 0;
"7" = 0;
"8" = 0;
"9" = 0;
};
};
width = 297;
}
);
metricLeft = nine;
metricRight = nine;
unicode = 8329;
},
{
color = 0;
glyphname = .notdef;
lastChange = "2025-05-28 12:37:31 +0000";
layers = (
{
layerId = "73572E25-487C-487F-975F-150A505979A5";
shapes = (
{
closed = 1;
nodes = (
(433,0,l),
(582,700,l),
(181,700,l),
(32,0,l)
);
},
{
closed = 1;
nodes = (
(238,640,l),
(499,640,l),
(376,60,l),
(115,60,l)
);
}
);
userData = {
com.hugojourdan.ColorFlow = {
"0" = 0;
"1" = 0;
"10" = 0;
"11" = 0;
"2" = 0;
"3" = 0;
"4" = 0;
"5" = 0;
"6" = 0;
"7" = 0;
"8" = 0;
"9" = 0;
};
};
width = 581;
},
{
layerId = "66114D67-63CC-4821-8086-0090D571F0A1";
shapes = (
{
closed = 1;
nodes = (
(461,0,l),
(609,700,l),
(153,700,l),
(5,0,l)
);
},
{
closed = 1;
nodes = (
(273,584,l),
(440,584,l),
(341,116,l),
(174,116,l)
);
}
);
userData = {
com.hugojourdan.ColorFlow = {
"0" = 0;
"1" = 0;
"10" = 0;
"11" = 0;
"2" = 0;
"3" = 0;
"4" = 0;
"5" = 0;
"6" = 0;
"7" = 0;
"8" = 0;
"9" = 0;
};
};
width = 585;
}
);
metricLeft = I;
metricRight = I;
},
{
glyphname = period;
kernLeft = KO_period;
kernRight = KO_period;
lastChange = "2025-05-28 12:37:31 +0000";
layers = (
{
layerId = "73572E25-487C-487F-975F-150A505979A5";
shapes = (
{
closed = 1;
nodes = (
(114,-14,o),
(140,7,o),
(146,37,cs),
(153,71,o),
(129,96,o),
(97,96,cs),
(63,96,o),
(38,75,o),
(32,45,cs),
(25,8,o),
(48,-14,o),
(80,-14,cs)
);
}
);
userData = {
com.hugojourdan.ColorFlow = {
"0" = 0;
"1" = 0;
"10" = 0;
"11" = 0;
"2" = 0;
"3" = 0;
"4" = 0;
"5" = 0;
"6" = 0;
"7" = 0;
"8" = 0;
"9" = 0;
};
};
width = 276;
},
{
layerId = "66114D67-63CC-4821-8086-0090D571F0A1";
shapes = (
{
closed = 1;
nodes = (
(132,-14,o),
(174,13,o),
(184,63,cs),
(193,107,o),
(162,147,o),
(112,147,cs),
(67,147,o),
(25,116,o),
(16,72,cs),
(7,25,o),
(36,-14,o),
(88,-14,cs)
);
}
);
userData = {
com.hugojourdan.ColorFlow = {
"0" = 0;
"1" = 0;
"10" = 0;
"11" = 0;
"2" = 0;
"3" = 0;
"4" = 0;
"5" = 0;
"6" = 0;
"7" = 0;
"8" = 0;
"9" = 0;
};
};
width = 290;
}
);
metricRight = "=|";
unicode = 46;
userData = {
KernOnSpecialSpacing = {
L = period;
R = period;
};
};
},
{
glyphname = comma;
kernLeft = KO_comma;
kernRight = KO_comma;
lastChange = "2025-05-28 12:37:31 +0000";
layers = (
{
layerId = "73572E25-487C-487F-975F-150A505979A5";
shapes = (
{
closed = 1;
nodes = (
(16,-173,l),
(155,122,l),
(82,122,l),
(-45,-173,l)
);
}
);
userData = {
com.hugojourdan.ColorFlow = {
"0" = 0;
"1" = 0;
"10" = 0;
"11" = 0;
"2" = 0;
"3" = 0;
"4" = 0;
"5" = 0;
"6" = 0;
"7" = 0;
"8" = 0;
"9" = 0;
};
};
width = 267;
},
{
layerId = "66114D67-63CC-4821-8086-0090D571F0A1";
shapes = (
{
closed = 1;
nodes = (
(60,-159,l),
(201,122,l),
(76,122,l),
(-41,-159,l)
);
}
);
userData = {
com.hugojourdan.ColorFlow = {
"0" = 0;
"1" = 0;
"10" = 0;
"11" = 0;
"2" = 0;
"3" = 0;
"4" = 0;
"5" = 0;
"6" = 0;
"7" = 0;
"8" = 0;
"9" = 0;
};
};
width = 295;
}
);
metricRight = period;
unicode = 44;
userData = {
KernOnName = comma;
KernOnSpecialSpacing = {
L = period;
R = period;
};
};
},
{
glyphname = exclam;
lastChange = "2025-05-28 12:37:31 +0000";
layers = (
{
layerId = "73572E25-487C-487F-975F-150A505979A5";
shapes = (
{
closed = 1;
nodes = (
(154,192,l),
(262,700,l),
(192,700,l),
(84,192,l)
);
},
{
alignment = -1;
ref = period;
}
);
userData = {
com.hugojourdan.ColorFlow = {
"0" = 0;
"1" = 0;
"10" = 0;
"11" = 0;
"2" = 0;
"3" = 0;
"4" = 0;
"5" = 0;
"6" = 0;
"7" = 0;
"8" = 0;
"9" = 0;
};
};
width = 276;
},
{
layerId = "66114D67-63CC-4821-8086-0090D571F0A1";
shapes = (
{
closed = 1;
nodes = (
(199,213,l),
(303,700,l),
(159,700,l),
(56,213,l)
);
},
{
alignment = -1;
ref = period;
}
);
userData = {
com.hugojourdan.ColorFlow = {
"0" = 0;
"1" = 0;
"10" = 0;
"11" = 0;
"2" = 0;
"3" = 0;
"4" = 0;
"5" = 0;
"6" = 0;
"7" = 0;
"8" = 0;
"9" = 0;
};
};
width = 290;
}
);
metricLeft = period;
metricRight = "=|";
unicode = 33;
userData = {
KernOnSpecialSpacing = {
L = "spaced-off";
};
};
},
{
glyphname = exclamdown;
lastChange = "2025-05-28 12:37:31 +0000";
layers = (
{
layerId = "73572E25-487C-487F-975F-150A505979A5";
shapes = (
{
closed = 1;
nodes = (
(116,309,l),
(8,-199,l),
(78,-199,l),
(186,309,l)
);
},
{
closed = 1;
nodes = (
(153,515,o),
(127,494,o),
(121,464,cs),
(114,430,o),
(138,405,o),
(170,405,cs),
(204,405,o),
(229,426,o),
(235,456,cs),
(242,493,o),
(219,515,o),
(187,515,cs)
);
}
);
userData = {
com.hugojourdan.ColorFlow = {
"0" = 0;
"1" = 0;
"10" = 0;
"11" = 0;
"2" = 0;
"3" = 0;
"4" = 0;
"5" = 0;
"6" = 0;
"7" = 0;
"8" = 0;
"9" = 0;
};
};
width = 276;
},
{
layerId = "66114D67-63CC-4821-8086-0090D571F0A1";
shapes = (
{
closed = 1;
nodes = (
(74,284,l),
(-30,-203,l),
(114,-203,l),
(217,284,l)
);
},
{
closed = 1;
nodes = (
(145,511,o),
(103,484,o),
(93,434,cs),
(84,390,o),
(115,350,o),
(165,350,cs),
(210,350,o),
(252,381,o),
(261,425,cs),
(270,472,o),
(241,511,o),
(189,511,cs)
);
}
);
userData = {
com.hugojourdan.ColorFlow = {
"0" = 0;
"1" = 0;
"10" = 0;
"11" = 0;
"2" = 0;
"3" = 0;
"4" = 0;
"5" = 0;
"6" = 0;
"7" = 0;
"8" = 0;
"9" = 0;
};
};
width = 290;
}
);
metricLeft = exclam;
metricRight = exclam;
unicode = 161;
userData = {
KernOnSpecialSpacing = {
R = "spaced-off";
};
};
},
{
glyphname = question;
kernLeft = KO_question;
lastChange = "2025-05-28 12:37:31 +0000";
layers = (
{
background = {
shapes = (
{
closed = 1;
nodes = (
(265,198,l),
(264,207,o),
(263,211,o),
(263,214,cs),
(263,256,o),
(282,295,o),
(331,322,cs),
(416,368,o),
(466,444,o),
(466,529,cs),
(466,644,o),
(388,715,o),
(253,715,cs),
(101,715,o),
(28,632,o),
(21,485,c),
(98,471,l),
(99,591,o),
(150,656,o),
(254,656,cs),
(342,656,o),
(389,599,o),
(389,531,cs),
(389,471,o),
(369,423,o),
(284,371,cs),
(203,321,o),
(186,276,o),
(186,220,cs),
(186,208,o),
(186,203,o),
(187,198,c)
);
},
{
alignment = -1;
pos = (144,0);
ref = period;
}
);
};
layerId = "73572E25-487C-487F-975F-150A505979A5";
shapes = (
{
closed = 1;
nodes = (
(259,200,l),
(260,209,o),
(261,213,o),
(262,217,cs),
(271,257,o),
(303,295,o),
(368,333,cs),
(453,383,o),
(498,441,o),
(514,517,cs),
(539,634,o),
(478,715,o),
(348,715,cs),
(211,715,o),
(111,632,o),
(73,487,c),
(141,468,l),
(169,590,o),
(237,655,o),
(337,655,cs),
(416,655,o),
(464,611,o),
(445,524,cs),
(431,458,o),
(397,416,o),
(303,360,cs),
(236,319,o),
(206,281,o),
(194,225,cs),
(191,213,o),
(190,207,o),
(189,200,c)
);
},
{
alignment = -1;
pos = (113,0);
ref = period;
}
);
userData = {
com.hugojourdan.ColorFlow = {
"0" = 0;
"1" = 0;
"10" = 0;
"11" = 0;
"2" = 0;
"3" = 0;
"4" = 0;
"5" = 0;
"6" = 0;
"7" = 0;
"8" = 0;
"9" = 0;
};
};
width = 490;
},
{
layerId = "66114D67-63CC-4821-8086-0090D571F0A1";
shapes = (
{
closed = 1;
nodes = (
(319,212,l),
(320,218,o),
(320,224,o),
(321,230,cs),
(328,262,o),
(350,289,o),
(403,320,cs),
(499,375,o),
(541,425,o),
(558,508,cs),
(585,634,o),
(511,715,o),
(362,715,cs),
(216,715,o),
(111,634,o),
(69,496,c),
(189,453,l),
(218,551,o),
(272,600,o),
(347,600,cs),
(400,600,o),
(436,570,o),
(424,514,cs),
(413,463,o),
(381,428,o),
(314,389,cs),
(239,346,o),
(207,306,o),
(194,249,cs),
(192,238,o),
(190,223,o),
(190,212,c)
);
},
{
alignment = -1;
pos = (132,0);
ref = period;
}
);
userData = {
com.hugojourdan.ColorFlow = {
"0" = 0;
"1" = 0;
"10" = 0;
"11" = 0;
"2" = 0;
"3" = 0;
"4" = 0;
"5" = 0;
"6" = 0;
"7" = 0;
"8" = 0;
"9" = 0;
};
};
width = 533;
}
);
metricRight = "=|";
unicode = 63;
userData = {
KernOnSpecialSpacing = {
L = "spaced-off";
};
};
},
{
glyphname = periodcentered;
lastChange = "2025-05-28 12:37:31 +0000";
layers = (
{
background = {
shapes = (
{
closed = 1;
nodes = (
(121,268,o),
(143,290,o),
(143,316,cs),
(143,341,o),
(121,363,o),
(96,363,cs),
(70,363,o),
(48,341,o),
(48,316,cs),
(48,290,o),
(70,268,o),
(96,268,cs)
);
}
);
};
layerId = "73572E25-487C-487F-975F-150A505979A5";
shapes = (
{
alignment = -1;
pos = (58,275);
ref = period;
}
);
userData = {
com.hugojourdan.ColorFlow = {
"0" = 0;
"1" = 0;
"10" = 0;
"11" = 0;
"2" = 0;
"3" = 0;
"4" = 0;
"5" = 0;
"6" = 0;
"7" = 0;
"8" = 0;
"9" = 0;
};
};
width = 276;
},
{
layerId = "66114D67-63CC-4821-8086-0090D571F0A1";
shapes = (
{
alignment = -1;
pos = (52,247);
ref = period;
}
);
userData = {
com.hugojourdan.ColorFlow = {
"0" = 0;
"1" = 0;
"10" = 0;
"11" = 0;
"2" = 0;
"3" = 0;
"4" = 0;
"5" = 0;
"6" = 0;
"7" = 0;
"8" = 0;
"9" = 0;
};
};
width = 290;
}
);
metricLeft = period;
metricRight = period;
unicode = 183;
userData = {
KernOnSpecialSpacing = {
L = NoKerning;
R = NoKerning;
};
};
},
{
glyphname = bullet;
lastChange = "2025-05-28 12:37:31 +0000";
layers = (
{
background = {
shapes = (
{
closed = 1;
nodes = (
(238,200,o),
(290,252,o),
(290,316,cs),
(290,379,o),
(238,431,o),
(175,431,cs),
(111,431,o),
(59,379,o),
(59,316,cs),
(59,252,o),
(111,200,o),
(175,200,cs)
);
}
);
};
layerId = "73572E25-487C-487F-975F-150A505979A5";
shapes = (
{
alignment = -1;
pos = (49,261);
ref = period;
scale = (1.2573,1.2573);
}
);
userData = {
com.hugojourdan.ColorFlow = {
"0" = 0;
"1" = 0;
"10" = 0;
"11" = 0;
"2" = 0;
"3" = 0;
"4" = 0;
"5" = 0;
"6" = 0;
"7" = 0;
"8" = 0;
"9" = 0;
};
};
width = 305;
},
{
layerId = "66114D67-63CC-4821-8086-0090D571F0A1";
shapes = (
{
alignment = -1;
pos = (49,231);
ref = period;
scale = (1.2573,1.2573);
}
);
userData = {
com.hugojourdan.ColorFlow = {
"0" = 0;
"1" = 0;
"10" = 0;
"11" = 0;
"2" = 0;
"3" = 0;
"4" = 0;
"5" = 0;
"6" = 0;
"7" = 0;
"8" = 0;
"9" = 0;
};
};
width = 334;
}
);
metricLeft = period;
metricRight = period;
unicode = 8226;
userData = {
KernOnSpecialSpacing = {
L = NoKerning;
R = NoKerning;
};
};
},
{
color = 0;
glyphname = asterisk;
kernLeft = KO_asterisk;
kernRight = KO_asterisk;
lastChange = "2025-05-28 12:37:31 +0000";
layers = (
{
layerId = "73572E25-487C-487F-975F-150A505979A5";
shapes = (
{
closed = 1;
nodes = (
(223,542,l),
(264,449,l),
(313,479,l),
(261,563,l),
(380,593,l),
(374,642,l),
(254,598,l),
(287,720,l),
(235,720,l),
(216,598,l),
(117,642,l),
(91,593,l),
(196,563,l),
(109,479,l),
(145,449,l)
);
}
);
userData = {
com.hugojourdan.ColorFlow = {
"0" = 0;
"1" = 0;
"10" = 0;
"11" = 0;
"2" = 0;
"3" = 0;
"4" = 0;
"5" = 0;
"6" = 0;
"7" = 0;
"8" = 0;
"9" = 0;
};
};
width = 335;
},
{
layerId = "66114D67-63CC-4821-8086-0090D571F0A1";
shapes = (
{
closed = 1;
nodes = (
(218,527,l),
(253,443,l),
(319,485,l),
(272,558,l),
(371,584,l),
(364,651,l),
(263,610,l),
(295,720,l),
(224,720,l),
(208,610,l),
(120,651,l),
(84,584,l),
(178,558,l),
(101,485,l),
(149,443,l)
);
}
);
userData = {
com.hugojourdan.ColorFlow = {
"0" = 0;
"1" = 0;
"10" = 0;
"11" = 0;
"2" = 0;
"3" = 0;
"4" = 0;
"5" = 0;
"6" = 0;
"7" = 0;
"8" = 0;
"9" = 0;
};
};
width = 326;
}
);
metricRight = "=|";
unicode = 42;
userData = {
KernOnSpecialSpacing = {
L = quotes;
R = quotes;
};
};
},
{
color = 0;
glyphname = numbersign;
kernRight = KO_numbersign;
lastChange = "2025-05-28 12:37:31 +0000";
layers = (
{
background = {
shapes = (
{
attr = {
strokeHeight = 70;
strokeWidth = 70;
};
closed = 1;
nodes = (
(575,700,l),
(389,0,l)
);
},
{
attr = {
strokeHeight = 70;
strokeWidth = 70;
};
closed = 1;
nodes = (
(614,194,l),
(31,194,l)
);
},
{
attr = {
strokeHeight = 70;
strokeWidth = 70;
};
closed = 1;
nodes = (
(327,700,l),
(141,0,l)
);
},
{
attr = {
strokeHeight = 70;
strokeWidth = 70;
};
closed = 1;
nodes = (
(684,511,l),
(101,511,l)
);
}
);
};
layerId = "73572E25-487C-487F-975F-150A505979A5";
shapes = (
{
closed = 1;
nodes = (
(367,0,l),
(702,700,l),
(634,700,l),
(299,0,l)
);
},
{
closed = 1;
nodes = (
(592,159,l),
(607,229,l),
(24,229,l),
(9,159,l)
);
},
{
closed = 1;
nodes = (
(119,0,l),
(454,700,l),
(386,700,l),
(51,0,l)
);
},
{
closed = 1;
nodes = (
(729,476,l),
(744,546,l),
(161,546,l),
(146,476,l)
);
}
);
userData = {
com.hugojourdan.ColorFlow = {
"0" = 0;
"1" = 0;
"10" = 0;
"11" = 0;
"2" = 0;
"3" = 0;
"4" = 0;
"5" = 0;
"6" = 0;
"7" = 0;
"8" = 0;
"9" = 0;
};
};
width = 719;
},
{
layerId = "66114D67-63CC-4821-8086-0090D571F0A1";
shapes = (
{
closed = 1;
nodes = (
(394,0,l),
(729,700,l),
(615,700,l),
(281,0,l)
);
},
{
closed = 1;
nodes = (
(591,135,l),
(616,253,l),
(27,253,l),
(2,135,l)
);
},
{
closed = 1;
nodes = (
(140,0,l),
(475,700,l),
(361,700,l),
(26,0,l)
);
},
{
closed = 1;
nodes = (
(728,452,l),
(753,570,l),
(164,570,l),
(139,452,l)
);
}
);
userData = {
com.hugojourdan.ColorFlow = {
"0" = 0;
"1" = 0;
"10" = 0;
"11" = 0;
"2" = 0;
"3" = 0;
"4" = 0;
"5" = 0;
"6" = 0;
"7" = 0;
"8" = 0;
"9" = 0;
};
};
width = 724;
}
);
metricRight = "=|";
unicode = 35;
},
{
glyphname = slash;
kernLeft = KO_slash;
kernRight = KO_slash;
lastChange = "2025-05-28 12:37:31 +0000";
layers = (
{
layerId = "73572E25-487C-487F-975F-150A505979A5";
shapes = (
{
closed = 1;
nodes = (
(25,-47,l),
(407,750,l),
(330,750,l),
(-52,-47,l)
);
}
);
userData = {
com.hugojourdan.ColorFlow = {
"0" = 0;
"1" = 0;
"10" = 0;
"11" = 0;
"2" = 0;
"3" = 0;
"4" = 0;
"5" = 0;
"6" = 0;
"7" = 0;
"8" = 0;
"9" = 0;
};
};
width = 322;
},
{
layerId = "66114D67-63CC-4821-8086-0090D571F0A1";
shapes = (
{
closed = 1;
nodes = (
(69,-47,l),
(451,750,l),
(324,750,l),
(-58,-47,l)
);
}
);
userData = {
com.hugojourdan.ColorFlow = {
"0" = 0;
"1" = 0;
"10" = 0;
"11" = 0;
"2" = 0;
"3" = 0;
"4" = 0;
"5" = 0;
"6" = 0;
"7" = 0;
"8" = 0;
"9" = 0;
};
};
width = 363;
}
);
metricRight = "=|";
unicode = 47;
userData = {
KernOnSpecialSpacing = {
L = slash;
R = slash;
};
};
},
{
glyphname = backslash;
kernLeft = KO_backslash;
lastChange = "2025-05-28 12:37:31 +0000";
layers = (
{
layerId = "73572E25-487C-487F-975F-150A505979A5";
shapes = (
{
closed = 1;
nodes = (
(230,-47,l),
(186,750,l),
(119,750,l),
(163,-47,l)
);
}
);
userData = {
com.hugojourdan.ColorFlow = {
"0" = 0;
"1" = 0;
"10" = 0;
"11" = 0;
"2" = 0;
"3" = 0;
"4" = 0;
"5" = 0;
"6" = 0;
"7" = 0;
"8" = 0;
"9" = 0;
};
};
width = 323;
},
{
layerId = "66114D67-63CC-4821-8086-0090D571F0A1";
shapes = (
{
closed = 1;
nodes = (
(268,-47,l),
(224,750,l),
(113,750,l),
(157,-47,l)
);
}
);
userData = {
com.hugojourdan.ColorFlow = {
"0" = 0;
"1" = 0;
"10" = 0;
"11" = 0;
"2" = 0;
"3" = 0;
"4" = 0;
"5" = 0;
"6" = 0;
"7" = 0;
"8" = 0;
"9" = 0;
};
};
width = 363;
}
);
unicode = 92;
userData = {
KernOnSpecialSpacing = {
L = "spaced-off";
R = "spaced-off";
};
};
},
{
glyphname = hyphen;
kernLeft = KO_hyphen;
kernRight = KO_hyphen;
lastChange = "2025-05-28 12:37:31 +0000";
layers = (
{
layerId = "73572E25-487C-487F-975F-150A505979A5";
shapes = (
{
closed = 1;
nodes = (
(381,254,l),
(394,314,l),
(104,314,l),
(91,254,l)
);
}
);
userData = {
com.hugojourdan.ColorFlow = {
"0" = 0;
"1" = 0;
"10" = 0;
"11" = 0;
"2" = 0;
"3" = 0;
"4" = 0;
"5" = 0;
"6" = 0;
"7" = 0;
"8" = 0;
"9" = 0;
};
};
width = 480;
},
{
layerId = "66114D67-63CC-4821-8086-0090D571F0A1";
shapes = (
{
closed = 1;
nodes = (
(382,253,l),
(407,367,l),
(117,367,l),
(92,253,l)
);
}
);
userData = {
com.hugojourdan.ColorFlow = {
"0" = 0;
"1" = 0;
"10" = 0;
"11" = 0;
"2" = 0;
"3" = 0;
"4" = 0;
"5" = 0;
"6" = 0;
"7" = 0;
"8" = 0;
"9" = 0;
};
};
width = 486;
}
);
metricRight = "=|";
unicode = 45;
userData = {
KernOnName = hyphen;
KernOnSpecialSpacing = {
L = hyphen;
R = hyphen;
};
};
},
{
glyphname = underscore;
kernLeft = KO_underscore;
kernRight = KO_underscore;
lastChange = "2025-05-28 12:37:31 +0000";
layers = (
{
layerId = "73572E25-487C-487F-975F-150A505979A5";
shapes = (
{
closed = 1;
nodes = (
(547,-163,l),
(559,-109,l),
(-81,-109,l),
(-93,-163,l)
);
}
);
userData = {
com.hugojourdan.ColorFlow = {
"0" = 0;
"1" = 0;
"10" = 0;
"11" = 0;
"2" = 0;
"3" = 0;
"4" = 0;
"5" = 0;
"6" = 0;
"7" = 0;
"8" = 0;
"9" = 0;
};
};
width = 640;
},
{
layerId = "66114D67-63CC-4821-8086-0090D571F0A1";
shapes = (
{
closed = 1;
nodes = (
(546,-163,l),
(565,-75,l),
(-75,-75,l),
(-94,-163,l)
);
}
);
userData = {
com.hugojourdan.ColorFlow = {
"0" = 0;
"1" = 0;
"10" = 0;
"11" = 0;
"2" = 0;
"3" = 0;
"4" = 0;
"5" = 0;
"6" = 0;
"7" = 0;
"8" = 0;
"9" = 0;
};
};
width = 640;
}
);
metricLeft = "=0";
metricRight = "=0";
unicode = 95;
userData = {
KernOnSpecialSpacing = {
L = underscore;
R = underscore;
};
};
},
{
glyphname = parenleft;
kernLeft = KO_parenleft;
kernRight = KO_parenleft;
lastChange = "2025-05-28 12:37:31 +0000";
layers = (
{
layerId = "73572E25-487C-487F-975F-150A505979A5";
shapes = (
{
closed = 1;
nodes = (
(189,-196,l),
(97,-83,o),
(80,121,o),
(120,308,cs),
(153,464,o),
(258,633,o),
(391,722,c),
(361,763,l),
(182,647,o),
(84,469,o),
(50,308,cs),
(10,121,o),
(26,-92,o),
(151,-227,c)
);
}
);
userData = {
com.hugojourdan.ColorFlow = {
"0" = 0;
"1" = 0;
"10" = 0;
"11" = 0;
"2" = 0;
"3" = 0;
"4" = 0;
"5" = 0;
"6" = 0;
"7" = 0;
"8" = 0;
"9" = 0;
};
};
width = 299;
},
{
layerId = "66114D67-63CC-4821-8086-0090D571F0A1";
shapes = (
{
closed = 1;
nodes = (
(217,-175,l),
(134,-81,o),
(108,75,o),
(150,268,cs),
(190,460,o),
(290,622,o),
(405,711,c),
(357,763,l),
(162,659,o),
(64,476,o),
(26,288,cs),
(-9,110,o),
(28,-127,o),
(157,-227,c)
);
}
);
userData = {
com.hugojourdan.ColorFlow = {
"0" = 0;
"1" = 0;
"10" = 0;
"11" = 0;
"2" = 0;
"3" = 0;
"4" = 0;
"5" = 0;
"6" = 0;
"7" = 0;
"8" = 0;
"9" = 0;
};
};
width = 324;
}
);
unicode = 40;
userData = {
KernOnSpecialSpacing = {
L = slash;
R = parenthesis;
};
};
},
{
glyphname = parenright;
kernLeft = KO_parenright;
kernRight = KO_parenright;
lastChange = "2025-05-28 12:37:31 +0000";
layers = (
{
layerId = "73572E25-487C-487F-975F-150A505979A5";
shapes = (
{
closed = 1;
nodes = (
(112,-116,o),
(212,63,o),
(246,224,cs),
(286,413,o),
(270,623,o),
(145,759,c),
(107,728,l),
(194,619,o),
(216,412,o),
(176,224,cs),
(143,69,o),
(44,-97,o),
(-95,-190,c),
(-65,-231,l)
);
}
);
userData = {
com.hugojourdan.ColorFlow = {
"0" = 0;
"1" = 0;
"10" = 0;
"11" = 0;
"2" = 0;
"3" = 0;
"4" = 0;
"5" = 0;
"6" = 0;
"7" = 0;
"8" = 0;
"9" = 0;
};
};
width = 299;
},
{
layerId = "66114D67-63CC-4821-8086-0090D571F0A1";
shapes = (
{
closed = 1;
nodes = (
(142,-131,o),
(256,24,o),
(296,227,cs),
(336,427,o),
(300,636,o),
(161,753,c),
(101,701,l),
(179,606,o),
(212,453,o),
(172,257,cs),
(131,53,o),
(35,-89,o),
(-87,-175,c),
(-39,-237,l)
);
}
);
userData = {
com.hugojourdan.ColorFlow = {
"0" = 0;
"1" = 0;
"10" = 0;
"11" = 0;
"2" = 0;
"3" = 0;
"4" = 0;
"5" = 0;
"6" = 0;
"7" = 0;
"8" = 0;
"9" = 0;
};
};
width = 324;
}
);
metricLeft = "=|parenleft";
metricRight = "=|parenleft";
unicode = 41;
userData = {
KernOnSpecialSpacing = {
L = parenthesis;
};
};
},
{
color = 0;
glyphname = braceleft;
kernRight = KO_braceleft;
lastChange = "2025-05-28 12:37:31 +0000";
layers = (
{
layerId = "73572E25-487C-487F-975F-150A505979A5";
shapes = (
{
closed = 1;
nodes = (
(185,-230,o),
(221,-211,o),
(255,-173,c),
(213,-129,l),
(188,-159,o),
(166,-170,o),
(132,-170,cs),
(45,-170,o),
(53,-93,o),
(91,8,cs),
(130,119,ls),
(165,208,o),
(161,254,o),
(113,271,c),
(162,283,o),
(189,328,o),
(194,412,cs),
(203,537,ls),
(209,638,o),
(233,715,o),
(320,715,cs),
(354,715,o),
(372,704,o),
(385,674,c),
(441,710,l),
(421,753,o),
(389,775,o),
(326,775,cs),
(220,775,o),
(146,703,o),
(138,574,cs),
(121,367,ls),
(119,323,o),
(100,301,o),
(68,301,cs),
(26,301,l),
(13,241,l),
(55,241,ls),
(87,241,o),
(97,219,o),
(80,175,cs),
(10,-29,ls),
(-37,-158,o),
(17,-230,o),
(125,-230,cs)
);
}
);
userData = {
com.hugojourdan.ColorFlow = {
"0" = 0;
"1" = 0;
"10" = 0;
"11" = 0;
"2" = 0;
"3" = 0;
"4" = 0;
"5" = 0;
"6" = 0;
"7" = 0;
"8" = 0;
"9" = 0;
};
};
width = 358;
},
{
layerId = "66114D67-63CC-4821-8086-0090D571F0A1";
shapes = (
{
closed = 1;
nodes = (
(228,-230,o),
(269,-210,o),
(299,-182,c),
(252,-97,l),
(235,-116,o),
(213,-128,o),
(186,-128,cs),
(115,-128,o),
(127,-62,o),
(152,15,cs),
(188,126,ls),
(217,211,o),
(209,256,o),
(151,272,c),
(212,286,o),
(242,333,o),
(250,414,cs),
(262,530,ls),
(270,608,o),
(285,673,o),
(356,673,cs),
(383,673,o),
(400,661,o),
(410,642,c),
(488,717,l),
(471,751,o),
(434,775,o),
(356,775,cs),
(239,775,o),
(150,703,o),
(139,534,cs),
(127,380,ls),
(125,344,o),
(107,326,o),
(74,326,cs),
(24,326,l),
(1,218,l),
(51,218,ls),
(83,218,o),
(94,199,o),
(81,164,cs),
(28,11,ls),
(-33,-159,o),
(45,-230,o),
(158,-230,cs)
);
}
);
userData = {
com.hugojourdan.ColorFlow = {
"0" = 0;
"1" = 0;
"10" = 0;
"11" = 0;
"2" = 0;
"3" = 0;
"4" = 0;
"5" = 0;
"6" = 0;
"7" = 0;
"8" = 0;
"9" = 0;
};
};
width = 402;
}
);
unicode = 123;
userData = {
KernOnSpecialSpacing = {
L = slash;
R = parenthesis;
};
};
},
{
glyphname = braceright;
kernLeft = KO_braceright;
lastChange = "2025-05-28 12:37:31 +0000";
layers = (
{
layerId = "73572E25-487C-487F-975F-150A505979A5";
shapes = (
{
closed = 1;
nodes = (
(126,-230,o),
(210,-158,o),
(219,-29,cs),
(235,175,ls),
(238,219,o),
(256,241,o),
(288,241,cs),
(330,241,l),
(343,301,l),
(301,301,ls),
(269,301,o),
(260,323,o),
(276,367,cs),
(347,574,ls),
(393,703,o),
(350,775,o),
(245,775,cs),
(181,775,o),
(140,753,o),
(102,710,c),
(142,674,l),
(169,704,o),
(191,715,o),
(225,715,cs),
(312,715,o),
(304,638,o),
(266,537,cs),
(223,412,ls),
(192,328,o),
(199,283,o),
(244,271,c),
(188,254,o),
(164,208,o),
(161,119,cs),
(154,8,ls),
(148,-93,o),
(124,-170,o),
(37,-170,cs),
(3,-170,o),
(-15,-159,o),
(-26,-129,c),
(-87,-173,l),
(-69,-211,o),
(-42,-230,o),
(18,-230,cs)
);
}
);
userData = {
com.hugojourdan.ColorFlow = {
"0" = 0;
"1" = 0;
"10" = 0;
"11" = 0;
"2" = 0;
"3" = 0;
"4" = 0;
"5" = 0;
"6" = 0;
"7" = 0;
"8" = 0;
"9" = 0;
};
};
width = 357;
},
{
layerId = "66114D67-63CC-4821-8086-0090D571F0A1";
shapes = (
{
closed = 1;
nodes = (
(141,-230,o),
(249,-159,o),
(260,11,cs),
(272,164,ls),
(274,199,o),
(293,218,o),
(325,218,cs),
(374,218,l),
(398,326,l),
(348,326,ls),
(315,326,o),
(305,344,o),
(318,380,cs),
(371,534,ls),
(432,703,o),
(374,775,o),
(256,775,cs),
(179,775,o),
(131,751,o),
(100,717,c),
(146,642,l),
(164,661,o),
(187,673,o),
(213,673,cs),
(285,673,o),
(272,608,o),
(246,530,cs),
(209,414,ls),
(182,333,o),
(192,286,o),
(248,272,c),
(183,256,o),
(155,211,o),
(149,126,cs),
(137,15,ls),
(129,-62,o),
(113,-128,o),
(43,-128,cs),
(15,-128,o),
(-1,-116,o),
(-10,-97,c),
(-94,-182,l),
(-75,-210,o),
(-42,-230,o),
(27,-230,cs)
);
}
);
userData = {
com.hugojourdan.ColorFlow = {
"0" = 0;
"1" = 0;
"10" = 0;
"11" = 0;
"2" = 0;
"3" = 0;
"4" = 0;
"5" = 0;
"6" = 0;
"7" = 0;
"8" = 0;
"9" = 0;
};
};
width = 402;
}
);
metricLeft = "=|braceleft";
metricRight = "=|braceleft";
unicode = 125;
userData = {
KernOnSpecialSpacing = {
L = parenthesis;
};
};
},
